SplineFontDB: 3.0
FontName: LoyalRegularv1
FullName: Loyal Regular
FamilyName: Loyal
Weight: Regular
Copyright: Copyright (c) 2023, Emmet Blanchette
Version: 001.000
ItalicAngle: 0
UnderlinePosition: -100
UnderlineWidth: 50
Ascent: 800
Descent: 200
InvalidEm: 0
sfntRevision: 0x00010000
LayerCount: 2
Layer: 0 0 "Back" 1
Layer: 1 0 "Fore" 0
XUID: [1021 827 1087830365 2319689]
StyleMap: 0x0040
FSType: 0
OS2Version: 4
OS2_WeightWidthSlopeOnly: 0
OS2_UseTypoMetrics: 1
CreationTime: 1702354516
ModificationTime: 1703544179
PfmFamily: 17
TTFWeight: 400
TTFWidth: 5
LineGap: 90
VLineGap: 0
Panose: 2 0 5 3 0 0 0 0 0 0
OS2TypoAscent: 800
OS2TypoAOffset: 0
OS2TypoDescent: -200
OS2TypoDOffset: 0
OS2TypoLinegap: 90
OS2WinAscent: 636
OS2WinAOffset: 0
OS2WinDescent: 200
OS2WinDOffset: 0
HheadAscent: 636
HheadAOffset: 0
HheadDescent: -200
HheadDOffset: 0
OS2SubXSize: 650
OS2SubYSize: 700
OS2SubXOff: 0
OS2SubYOff: 140
OS2SupXSize: 650
OS2SupYSize: 700
OS2SupXOff: 0
OS2SupYOff: 480
OS2StrikeYSize: 49
OS2StrikeYPos: 258
OS2CapHeight: 619
OS2XHeight: 421
OS2Vendor: 'PfEd'
OS2CodePages: 00000001.00000000
OS2UnicodeRanges: 80000001.40000000.00000000.00000000
Lookup: 4 0 1 "<1,2> Common Ligatures in Latin lookup 0" { "<1,2> Common Ligatures in Latin lookup 0 subtable"  } [<1,2> ('latn' <'dflt' > ) 'liga' ('latn' <'dflt' > ) ]
Lookup: 258 0 0 "'kern' Horizontal Kerning in Latin lookup 0" { "'kern' Horizontal Kerning in Latin lookup 0 subtable"  } ['kern' ('DFLT' <'dflt' > 'latn' <'dflt' > ) ]
DEI: 91125
MacFeat: 0 0 0
MacName: 0 0 24 "All Typographic Features"
MacName: 0 1 24 "Fonctions typographiques"
MacName: 0 2 33 "Alle typografischen M\232glichkeiten"
MacName: 0 3 21 "Funzioni Tipografiche"
MacName: 0 4 28 "Alle typografische kenmerken"
MacSetting: 0
MacName: 0 0 17 "All Type Features"
MacName: 0 1 31 "Toutes fonctions typographiques"
MacName: 0 2 23 "Alle Auszeichnungsarten"
MacName: 0 3 17 "Tutte le Funzioni"
MacName: 0 4 18 "Alle typekenmerken"
MacFeat: 1 0 0

StartChar: .notdef
Encoding: 65536 -1 0
Width: 500
Flags: MW
HStem: 0 50<100 400 100 450> 483 50<100 400 100 100>
VStem: 50 50<50 50 50 483> 400 50<50 483 483 483>
LayerCount: 2
Fore
SplineSet
50 0 m 1
 50 533 l 1
 450 533 l 1
 450 0 l 1
 50 0 l 1
100 50 m 1
 400 50 l 1
 400 483 l 1
 100 483 l 1
 100 50 l 1
EndSplineSet
EndChar

StartChar: exclam
Encoding: 33 33 2
Width: 188
Flags: MW
HStem: -16.04 103.64 613.63 20G
VStem: -0.820312 103.641 11.21 79.5996
LayerCount: 2
Fore
SplineSet
67.830078125 129.740234375 m 1xd0
 60.9296875 129.740234375 l 1
 41.08984375 129.740234375 l 1
 34.189453125 129.740234375 l 1
 33.6162109375 136.616210938 l 2
 33.607421875 136.719726562 11.2099609375 404.665039062 11.2099609375 618.580078125 c 0
 11.2099609375 626.890625 17.94921875 633.629882812 26.259765625 633.629882812 c 2
 75.900390625 633.629882812 l 2
 84.1337890625 633.629882812 90.8095703125 626.951171875 90.8095703125 618.719726562 c 0
 90.8095703125 404.665039062 68.412109375 136.719726562 68.4033203125 136.616210938 c 2
 67.830078125 129.740234375 l 1xd0
51 -16.0400390625 m 0
 22.380859375 -16.0400390625 -0.8203125 7.1572265625 -0.8203125 35.7802734375 c 0
 -0.8203125 64.3984375 22.3779296875 87.599609375 51 87.599609375 c 0
 79.619140625 87.599609375 102.8203125 64.40234375 102.8203125 35.7802734375 c 0xe0
 102.8203125 7.1611328125 79.623046875 -16.0400390625 51 -16.0400390625 c 0
EndSplineSet
EndChar

StartChar: comma
Encoding: 44 44 3
Width: 148
Flags: MW
HStem: -15 94.7588<51 51>
VStem: -0.660156 105.32<27.5977 45.3823 27.5977 45.4639>
LayerCount: 2
Fore
SplineSet
-0.66015625 32.3828125 m 0
 -0.66015625 58.544921875 22.91796875 79.7587890625 52 79.7587890625 c 0
 81.0830078125 79.7587890625 104.66015625 58.4970703125 104.66015625 32.267578125 c 0
 104.66015625 22.927734375 104.537109375 15.8349609375 102.98046875 7.98828125 c 0
 102.025390625 3.1708984375 100.551757812 -1.8095703125 98.33984375 -7.6923828125 c 0
 89.0537109375 -32.275390625 62.54296875 -44.134765625 35.6025390625 -57.7802734375 c 2
 28.88671875 -61.552734375 l 1
 25.294921875 -54.73828125 l 2
 22.482421875 -49.9375 23.234375 -50.998046875 22.693359375 -50.0576171875 c 0
 21.525390625 -48.091796875 15.12109375 -34.5791015625 29.806640625 -27.9736328125 c 0
 31.2353515625 -27.296875 33.4619140625 -26.322265625 35.3603515625 -25.4091796875 c 0
 39.830078125 -23.3154296875 47.0302734375 -18.759765625 51.7314453125 -15 c 1
 21.669921875 -14.67578125 -0.66015625 6.5791015625 -0.66015625 32.3828125 c 0
EndSplineSet
EndChar

StartChar: hyphen
Encoding: 45 45 4
Width: 284
Flags: MW
HStem: 168.72 79.6104
VStem: 1.2998 231.4
LayerCount: 2
Fore
SplineSet
232.700195312 168.719726562 m 1
 225.200195312 168.719726562 l 1
 9.6904296875 168.719726562 l 2
 5.048828125 168.719726562 1.2998046875 172.46875 1.2998046875 177.110351562 c 2
 1.2998046875 240.830078125 l 1
 1.2998046875 248.330078125 l 1
 8.7998046875 248.330078125 l 1
 224.309570312 248.330078125 l 2
 228.947265625 248.330078125 232.700195312 244.586914062 232.700195312 239.940429688 c 2
 232.700195312 176.219726562 l 1
 232.700195312 168.719726562 l 1
EndSplineSet
EndChar

StartChar: period
Encoding: 46 46 5
Width: 168
Flags: MW
HStem: -16 105.32<37.459 66.541>
VStem: -0.660156 105.32<22.1191 51.2012>
LayerCount: 2
Fore
SplineSet
52 -16 m 0
 22.91796875 -16 -0.66015625 7.578125 -0.66015625 36.66015625 c 0
 -0.66015625 65.7421875 22.91796875 89.3203125 52 89.3203125 c 0
 81.08203125 89.3203125 104.66015625 65.7421875 104.66015625 36.66015625 c 0
 104.66015625 7.578125 81.08203125 -16 52 -16 c 0
EndSplineSet
EndChar

StartChar: slash
Encoding: 47 47 6
Width: 253
Flags: MW
HStem: 608.628 20G
VStem: -0.391602 220.627
LayerCount: 2
Fore
SplineSet
178.052734375 612.546875 m 2
 181.393554688 624.349609375 182.603515625 628.627929688 182.603515625 628.627929688 c 1
 182.65234375 628.45703125 l 1
 182.7109375 628.629882812 l 2
 185.634765625 632.881835938 195.416992188 634.3984375 202.764648438 633.142578125 c 0
 206.118164062 632.055664062 213.823242188 629.158203125 213.844726562 629.150390625 c 2
 220.235351562 626.690429688 l 1
 218.365234375 625.053710938 l 1
 39.544921875 -0.71875 l 1
 36.7138671875 -10.62109375 l 2
 34.357421875 -14.60546875 25.888671875 -16.921875 17.8583984375 -15.6865234375 c 0
 14.83984375 -14.7978515625 6.76171875 -12.4501953125 6.76171875 -12.4501953125 c 1
 -0.3916015625 -10.376953125 l 1
 1.6318359375 -8.375 l 1
 178.052734375 612.546875 l 2
EndSplineSet
EndChar

StartChar: zero
Encoding: 48 48 7
Width: 500
Flags: MW
HStem: -16.0498 34.8301 598.8 34.8799
VStem: -0.389648 79.6094 382.78 79.6094
LayerCount: 2
Fore
SplineSet
245.1796875 633.6796875 m 0
 363.424804688 633.6796875 462.389648438 557.260742188 462.389648438 318.711914062 c 0
 462.389648438 133.38671875 408.171875 -16.0595703125 247.349609375 -16.0498046875 c 0
 85.9072265625 -16.0498046875 -0.3896484375 119.96875 -0.3896484375 314.263671875 c 0
 -0.3896484375 548.00390625 109.66015625 633.6796875 245.1796875 633.6796875 c 0
238.8203125 598.799804688 m 0
 123.673828125 598.799804688 79.2197265625 471.193359375 79.2197265625 321.724609375 c 0
 79.2197265625 140.506835938 164.030273438 18.7802734375 240.240234375 18.7802734375 c 0
 315.890625 18.7802734375 382.780273438 99.3896484375 382.780273438 318.673828125 c 0
 382.780273438 466.106445312 347.486328125 598.799804688 238.8203125 598.799804688 c 0
EndSplineSet
EndChar

StartChar: one
Encoding: 49 49 8
Width: 284
Flags: MW
HStem: 0.0195312 28.7705 507.781 28.0576 599.69 20G
VStem: 94.2002 79.54
LayerCount: 2
Fore
SplineSet
18.2998046875 535.838867188 m 2
 38.349609375 535.838867188 l 2
 73.4501953125 535.838867188 94.2802734375 547.083007812 94.2802734375 587.702148438 c 0
 94.2802734375 605.376953125 109.107421875 619.690429688 127.169921875 619.690429688 c 2
 166.240234375 619.690429688 l 1
 173.740234375 619.690429688 l 1
 173.740234375 612.190429688 l 1
 173.740234375 80.4619140625 l 2
 173.740234375 36.77734375 195.081054688 28.7900390625 212.290039062 28.7900390625 c 2
 227.700195312 28.7900390625 l 2
 235.958984375 28.7900390625 242.690429688 22.015625 242.690429688 13.6298828125 c 2
 242.690429688 7.51953125 l 1
 242.690429688 0.01953125 l 1
 235.190429688 0.01953125 l 1
 32.759765625 0.01953125 l 1
 25.259765625 0.01953125 l 1
 25.259765625 7.51953125 l 1
 25.259765625 13.6298828125 l 2
 25.259765625 21.4287109375 31.3388671875 28.7900390625 40.25 28.7900390625 c 2
 55.5703125 28.7900390625 l 2
 72.115234375 28.7900390625 94.2001953125 36.880859375 94.2001953125 80.4775390625 c 2
 94.2001953125 507.78125 l 1
 10.8095703125 507.78125 l 1
 3.3095703125 507.78125 l 1
 3.3095703125 515.095703125 l 1
 3.3095703125 521.053710938 l 2
 3.3095703125 528.66015625 9.3896484375 535.838867188 18.2998046875 535.838867188 c 2
EndSplineSet
EndChar

StartChar: two
Encoding: 50 50 9
Width: 463
Flags: MW
HStem: 0 79.6055 599.18 34.3701
VStem: 7.88965 66.3584 340.46 83.5801
LayerCount: 2
Fore
SplineSet
50.4404296875 442.690429688 m 0
 26.939453125 442.690429688 7.8896484375 461.739257812 7.8896484375 485.240234375 c 0
 7.8896484375 513.072265625 17.828125 538.588867188 44.6435546875 567.8203125 c 0
 76.0908203125 602.094726562 131.125976562 633.549804688 214.440429688 633.549804688 c 0
 318.822265625 633.549804688 424.040039062 597.931640625 424.040039062 485.118164062 c 0
 424.040039062 397.71875 356.462890625 338.452148438 318.518554688 304.41796875 c 2
 72.7080078125 79.60546875 l 1
 344.529296875 79.60546875 l 2
 364.762695312 79.5283203125 409.049804688 79.4404296875 409.049804688 79.4404296875 c 2
 416.774414062 79.4404296875 426.45703125 72.951171875 423.81640625 62.4619140625 c 0
 422.935546875 58.9384765625 409.616210938 5.6806640625 409.616210938 5.6806640625 c 1
 408.1953125 0 l 1
 402.33984375 0 l 1
 7.2900390625 0 l 1
 -0.2099609375 0 l 1
 -0.2099609375 7.5 l 1
 -0.2099609375 54.5087890625 l 1
 -0.2099609375 57.6748046875 l 1
 2.1572265625 59.841796875 l 1
 229.084960938 267.565429688 l 2
 260.08203125 296.609375 298.786132812 328.673828125 315.399414062 356.280273438 c 0
 332.8359375 385.298828125 340.459960938 411.124023438 340.459960938 480.751953125 c 0
 340.459960938 575.103515625 267.399414062 599.1796875 200 599.1796875 c 0
 112.966796875 599.1796875 79.3486328125 549.392578125 76.75 539.55078125 c 0
 74.9755859375 532.84765625 74.3330078125 523.103515625 74.248046875 520.334960938 c 0
 86.396484375 511.764648438 92.990234375 499.790039062 92.990234375 485.240234375 c 0
 92.990234375 461.739257812 73.9404296875 442.690429688 50.4404296875 442.690429688 c 0
EndSplineSet
EndChar

StartChar: three
Encoding: 51 51 10
Width: 430
Flags: MW
HStem: -16.0303 34.8604 317.53 35.0693 598.81 34.79
VStem: -0.179688 85.0693 17.8252 84.6045 297.79 79.6104 308.57 79.6201
LayerCount: 2
Fore
SplineSet
377.400390625 475.823242188 m 0xec
 377.400390625 411.87109375 328.446289062 353.745117188 273.513671875 333.028320312 c 1
 330.333984375 314.40625 388.181640625 261.965820312 388.190429688 182.770507812 c 0
 388.190429688 7.634765625 227.451171875 -16.0302734375 177.919921875 -16.0302734375 c 0
 86.66015625 -16.0302734375 19.88671875 29.5908203125 4.0244140625 79.2626953125 c 0
 0.3291015625 90.857421875 -0.1796875 100.08984375 -0.1796875 110.2890625 c 0
 0.0625 133.64453125 18.9736328125 152.450195312 42.33984375 152.450195312 c 0
 65.8408203125 152.450195312 84.8896484375 133.400390625 84.8896484375 109.900390625 c 0
 84.8896484375 94.4921875 76.08203125 81.29296875 65.345703125 74.24609375 c 1
 69.490234375 31.052734375 117.578125 18.830078125 169.469726562 18.830078125 c 0
 278.787109375 18.830078125 308.5703125 111.469726562 308.5703125 177.955078125 c 0xf2
 308.5703125 289.876953125 222.280273438 317.530273438 162.26953125 317.530273438 c 2
 154.76953125 317.530273438 l 1
 154.76953125 325.030273438 l 1
 154.76953125 345.099609375 l 1
 154.76953125 352.599609375 l 1
 162.26953125 352.599609375 l 2
 230.119140625 352.599609375 297.790039062 424.041015625 297.790039062 471.100585938 c 0
 297.790039062 577.010742188 237.11328125 598.809570312 179.799804688 598.809570312 c 0
 129.23046875 598.809570312 91.5390625 573.475585938 83.333984375 548.966796875 c 1
 96.0244140625 540.095703125 102.4296875 528.188476562 102.4296875 513.530273438 c 0
 102.4296875 490.029296875 83.380859375 470.98046875 59.8798828125 470.98046875 c 0
 38.05078125 470.98046875 20.3212890625 487.2578125 17.8251953125 508.329101562 c 0
 15.6826171875 520.709960938 17.509765625 534.193359375 20.9208984375 544.630859375 c 0
 42.3193359375 610.0703125 118.870117188 633.599609375 178.900390625 633.599609375 c 0
 308.287109375 633.599609375 377.400390625 572.446289062 377.400390625 475.823242188 c 0xec
EndSplineSet
EndChar

StartChar: four
Encoding: 52 52 11
Width: 481
Flags: MW
HStem: 0.0302734 28.7695 178.51 34.8799 599.7 20G
VStem: 279.06 79.54
LayerCount: 2
Fore
SplineSet
-1 207.8046875 m 1
 0.80859375 210.032226562 l 1
 324.90625 609.275390625 l 2
 330.265625 615.856445312 338.375976562 619.700195312 346.959960938 619.700195312 c 2
 351.099609375 619.700195312 l 1
 358.599609375 619.700195312 l 1
 358.599609375 612.200195312 l 1
 358.599609375 213.400390625 l 1
 422.009765625 213.400390625 l 2
 430.268554688 213.400390625 437 206.625976562 437 198.240234375 c 2
 437 186 l 1
 437 178.5 l 1
 429.5 178.5 l 1
 358.599609375 178.5 l 1
 358.599609375 79.271484375 l 2
 358.599609375 36.6015625 379.940429688 28.7998046875 397.150390625 28.7998046875 c 2
 412.559570312 28.7998046875 l 2
 420.819335938 28.7998046875 427.549804688 22.025390625 427.549804688 13.6396484375 c 2
 427.549804688 7.5302734375 l 1
 427.549804688 0.0302734375 l 1
 420.049804688 0.0302734375 l 1
 217.620117188 0.0302734375 l 1
 210.120117188 0.0302734375 l 1
 210.120117188 7.5302734375 l 1
 210.120117188 13.6396484375 l 2
 210.120117188 21.4384765625 216.19921875 28.7998046875 225.110351562 28.7998046875 c 2
 240.4296875 28.7998046875 l 2
 256.975585938 28.7998046875 279.059570312 36.7001953125 279.059570312 79.271484375 c 2
 279.059570312 178.509765625 l 1
 6.5 178.509765625 l 1
 -1 178.509765625 l 1
 -1 185.884765625 l 1
 -1 205.176757812 l 1
 -1 207.8046875 l 1
47.6416015625 213.389648438 m 1
 279.059570312 213.389648438 l 1
 279.059570312 503.348632812 l 1
 47.6416015625 213.389648438 l 1
EndSplineSet
EndChar

StartChar: five
Encoding: 53 53 12
Width: 462
Flags: MW
HStem: -16.0195 34.8096 380.77 35.1006 540.09 79.6104
VStem: -1.32031 85.1006 20.0996 34.8906 332.36 84.96
LayerCount: 2
Fore
SplineSet
173.489257812 -16.01953125 m 0xec
 71.1494140625 -16.009765625 -1.3203125 45.3056640625 -1.3203125 110.530273438 c 0
 -1.3203125 134.030273438 17.7294921875 153.080078125 41.23046875 153.080078125 c 0
 64.73046875 153.080078125 83.7802734375 134.030273438 83.7802734375 110.530273438 c 0xf4
 83.7802734375 96.15234375 75.962890625 83.6103515625 66.5048828125 76.4873046875 c 1
 73.6630859375 39.1611328125 109.708007812 18.7900390625 173.490234375 18.7900390625 c 0
 296.967773438 18.7900390625 332.360351562 93.462890625 332.360351562 220.109375 c 0
 332.360351562 371.801757812 203.586914062 380.76953125 150.459960938 380.76953125 c 0
 100.701171875 380.76953125 71.7275390625 374.159179688 30.98046875 353.584960938 c 2
 20.099609375 348.091796875 l 1
 20.099609375 360.280273438 l 1
 20.099609375 612.200195312 l 1
 20.099609375 619.700195312 l 1
 27.599609375 619.700195312 l 1
 360.75 619.700195312 l 1
 370.35546875 619.700195312 l 1
 368.026367188 610.381835938 l 1
 353.21484375 551.125976562 l 2
 351.588867188 544.641601562 345.760742188 540.08984375 339.0703125 540.08984375 c 2
 54.990234375 540.08984375 l 1
 54.990234375 402.385742188 l 1
 88.8828125 413.713867188 121.080078125 415.870117188 160.370117188 415.870117188 c 0
 226.876953125 415.870117188 417.3203125 394.893554688 417.3203125 214.427734375 c 0
 417.3203125 41.8525390625 277.315429688 -16.01953125 173.489257812 -16.01953125 c 0xec
EndSplineSet
EndChar

StartChar: six
Encoding: 54 54 13
Width: 441
Flags: MW
HStem: -16.0898 35.3994 371.33 34.5098
VStem: 0.0498047 87.8506 330.29 79.6699
LayerCount: 2
Fore
SplineSet
371.341796875 609.607421875 m 1
 364.838867188 607.666992188 l 2
 254.764648438 574.584960938 121.45703125 521.056640625 83.9921875 345.921875 c 1
 108.236328125 373.486328125 152.767578125 405.83984375 216.709960938 405.83984375 c 0
 353.8984375 405.83984375 409.959960938 298.5078125 409.959960938 206.051757812 c 0
 409.959960938 38.4931640625 296.369140625 -16.08984375 211.66015625 -16.08984375 c 0
 114.295898438 -16.08984375 0.0498046875 43.90625 0.0498046875 259.0625 c 0
 0.0498046875 480.579101562 199.918945312 599.759765625 335.736328125 630.041015625 c 0
 343.576171875 631.836914062 346.459960938 632.44921875 351.256835938 633.279296875 c 0
 359.142578125 634.604492188 367.045898438 629.811523438 368.731445312 621.841796875 c 0
 369.397460938 618.818359375 369.977539062 616.061523438 369.977539062 616.061523438 c 1
 371.341796875 609.607421875 l 1
87.900390625 195.330078125 m 0
 87.900390625 90.8974609375 131.916992188 19.3095703125 218.8203125 19.3095703125 c 0
 296.172851562 19.3095703125 330.280273438 108.040039062 330.290039062 193.861328125 c 0
 330.290039062 273.524414062 302.452148438 371.330078125 213.860351562 371.330078125 c 0
 128.561523438 371.330078125 87.900390625 278.266601562 87.900390625 195.330078125 c 0
EndSplineSet
EndChar

StartChar: seven
Encoding: 55 55 14
Width: 438
Flags: MW
HStem: 539.9 79.6396
LayerCount: 2
Fore
SplineSet
399.98046875 619.540039062 m 1
 395.71484375 609.423828125 l 1
 133.904296875 -11.416015625 l 1
 131.044921875 -18.3583984375 l 1
 124.10546875 -15.4912109375 l 1
 113.3359375 -11.0419921875 l 2
 106.541015625 -8.3076171875 100.87890625 -0.4013671875 104.422851562 7.962890625 c 2
 104.422851562 7.962890625 105.185546875 9.771484375 107.17578125 14.470703125 c 2
 329.459960938 539.900390625 l 1
 103.290039062 539.900390625 l 2
 51.875 539.900390625 44.1669921875 513.428710938 35.654296875 481.768554688 c 0
 32.548828125 470.1796875 31.607421875 466.852539062 31.607421875 466.852539062 c 2
 29.5322265625 458.950195312 21.2158203125 454.1796875 13.1943359375 456.30859375 c 0
 10.072265625 457.092773438 7.2158203125 457.892578125 7.2158203125 457.892578125 c 1
 0.3818359375 459.788085938 l 1
 1.8916015625 466.716796875 l 1
 33.912109375 613.63671875 l 1
 35.19921875 619.540039062 l 1
 41.240234375 619.540039062 l 1
 388.780273438 619.540039062 l 1
 399.98046875 619.540039062 l 1
EndSplineSet
EndChar

StartChar: eight
Encoding: 56 56 15
Width: 413
Flags: MW
HStem: -17.1504 35.79 598.77 34.7109
VStem: 0.110352 78.6396 276.26 68.8701 281.24 79.6396
LayerCount: 2
Fore
SplineSet
345.129882812 501.638671875 m 0xf0
 345.129882812 439.901367188 311.109375 407.55859375 218.288085938 336.489257812 c 1
 315.920898438 261.4609375 360.879882812 218.041015625 360.879882812 140.564453125 c 0xe8
 360.879882812 59.767578125 290.930664062 -17.150390625 177.940429688 -17.150390625 c 0
 60.4462890625 -17.150390625 0.1103515625 62.234375 0.1103515625 133.370117188 c 0
 0.1103515625 212.129882812 44.8564453125 256.365234375 120.830078125 314.966796875 c 1
 17.583984375 397.1171875 5.740234375 428.91015625 5.740234375 482.969726562 c 0
 5.740234375 556.53125 61.017578125 633.48046875 177.370117188 633.48046875 c 0
 279.629882812 633.48046875 345.129882812 570.796875 345.129882812 501.638671875 c 0xf0
178.240234375 598.76953125 m 0
 117.1484375 598.76953125 85.2998046875 547.26171875 85.2998046875 506.860351562 c 0
 85.2998046875 459.858398438 94.60546875 437.228515625 190.735351562 352.934570312 c 1
 258.719726562 414.543945312 276.259765625 444.235351562 276.259765625 493.870117188 c 0xf0
 276.259765625 550.3671875 236.592773438 598.76953125 178.240234375 598.76953125 c 0
78.75 142.740234375 m 0
 78.75 57.115234375 142.14453125 18.6396484375 184 18.6396484375 c 0
 240.829101562 18.6396484375 281.249023438 62.208984375 281.240234375 113.5703125 c 0xe8
 281.240234375 178.084960938 255.532226562 205.305664062 148.296875 299.306640625 c 1
 103.615234375 258.333984375 78.75 232.931640625 78.75 142.740234375 c 0
EndSplineSet
EndChar

StartChar: nine
Encoding: 57 57 16
Width: 453
Flags: MW
HStem: 211.47 34.5107 598 35.5<155.992 234.631>
VStem: 0.0498047 79.6602 322.1 87.8506
LayerCount: 2
Fore
SplineSet
198.349609375 633.5 m 0
 295.473632812 633.5 409.950195312 580.126953125 409.950195312 358.155273438 c 0
 409.950195312 149.646484375 239.754882812 44.943359375 147.508789062 10.154296875 c 0
 111.799804688 -3.310546875 55.6591796875 -22.57421875 55.6240234375 -22.5859375 c 2
 48.251953125 -25.1748046875 l 1
 45.9677734375 -17.7021484375 l 2
 45.966796875 -17.701171875 43.529296875 -9.9794921875 42.5595703125 -6.9189453125 c 0
 40.4013671875 -0.0966796875 43.0986328125 9.119140625 51.9775390625 11.7548828125 c 0
 52.01171875 11.765625 53.8291015625 12.3056640625 58.94921875 13.826171875 c 2
 58.94921875 13.826171875 171.354492188 45.3681640625 241.715820312 111.53125 c 0
 273.826171875 142.077148438 304.223632812 189.604492188 323.913085938 269.038085938 c 1
 298.989257812 241.802734375 255.375 211.469726562 193.299804688 211.469726562 c 0
 56.1123046875 211.469726562 0.0498046875 318.802734375 0.0498046875 411.258789062 c 0
 0.0498046875 578.814453125 113.634765625 633.5 198.349609375 633.5 c 0
79.7099609375 423.44921875 m 0
 79.7099609375 343.786132812 107.547851562 245.98046875 196.139648438 245.98046875 c 0
 281.438476562 245.98046875 322.099609375 339.033203125 322.099609375 421.98046875 c 0
 322.099609375 526.412109375 278.083007812 598 191.1796875 598 c 0
 113.817382812 598 79.7099609375 509.270507812 79.7099609375 423.44921875 c 0
EndSplineSet
EndChar

StartChar: colon
Encoding: 58 58 17
Width: 193
Flags: MW
HStem: -15.7217 103.962 328.23 105.319
VStem: 1.33984 105.32
LayerCount: 2
Fore
SplineSet
62.455078125 -15.7216796875 m 0
 33.7490234375 -20.3798828125 6.697265625 -0.8837890625 2.0390625 27.8232421875 c 0
 -2.6201171875 56.53125 16.876953125 83.580078125 45.583984375 88.240234375 c 0
 74.2900390625 92.8984375 101.341796875 73.40234375 106 44.6953125 c 0
 110.659179688 15.9892578125 91.1630859375 -11.0615234375 62.455078125 -15.7216796875 c 0
106.66015625 380.889648438 m 0
 106.66015625 351.80859375 83.0810546875 328.23046875 54 328.23046875 c 0
 24.9189453125 328.23046875 1.33984375 351.80859375 1.33984375 380.889648438 c 0
 1.33984375 409.971679688 24.91796875 433.549804688 54 433.549804688 c 0
 83.08203125 433.549804688 106.66015625 409.971679688 106.66015625 380.889648438 c 0
EndSplineSet
EndChar

StartChar: semicolon
Encoding: 59 59 18
Width: 190
Flags: MW
HStem: -16 100.043<50 50> 331.073 105.319<36.4492 65.5303>
VStem: -1.66992 105.32<29.0381 47.793 29.0381 47.8359 383.732 398.273>
LayerCount: 2
Fore
SplineSet
-1.669921875 34.0244140625 m 0
 -1.669921875 61.6474609375 21.908203125 84.04296875 50.990234375 84.04296875 c 0
 80.0712890625 84.04296875 103.650390625 61.623046875 103.650390625 33.962890625 c 0
 103.650390625 24.11328125 103.52734375 16.6337890625 101.970703125 8.359375 c 0
 101.015625 3.2783203125 99.5419921875 -1.97265625 97.330078125 -8.1767578125 c 0
 88.0439453125 -34.1005859375 61.533203125 -46.6064453125 34.5927734375 -60.99609375 c 2
 27.8779296875 -64.7685546875 l 1
 24.28515625 -57.955078125 l 2
 21.4736328125 -52.888671875 22.2197265625 -53.994140625 21.6826171875 -53.0107421875 c 0
 20.515625 -50.9365234375 14.109375 -36.6728515625 28.7978515625 -29.6953125 c 0
 30.2294921875 -28.98046875 32.4501953125 -27.9541015625 34.3486328125 -26.990234375 c 0
 38.8193359375 -24.7783203125 46.0205078125 -19.9677734375 50.720703125 -16 c 1
 20.6611328125 -15.658203125 -1.669921875 6.7822265625 -1.669921875 34.0244140625 c 0
103.650390625 383.732421875 m 0
 103.650390625 354.651367188 80.0703125 331.073242188 50.990234375 331.073242188 c 0
 21.9072265625 331.073242188 -1.658203125 354.651367188 -1.669921875 383.732421875 c 0
 -1.669921875 412.814453125 21.908203125 436.392578125 50.990234375 436.392578125 c 0
 80.0712890625 436.392578125 103.650390625 412.814453125 103.650390625 383.732421875 c 0
EndSplineSet
EndChar

StartChar: question
Encoding: 63 63 19
Width: 413
Flags: MW
HStem: -16.04 103.64 589.88 43.7305
VStem: 0.65625 25.0596 112.45 103.64 146.86 34.7998
LayerCount: 2
Fore
SplineSet
146.860351562 129.740234375 m 1xe8
 146.860351562 137.240234375 l 2
 146.860351562 191.153320312 168.068359375 249.500976562 192.030273438 285.799804688 c 0
 244.607421875 365.489257812 260.389648438 376.493164062 273.120117188 426.596679688 c 0
 284.102539062 469.83203125 285.23046875 508.080078125 272.307617188 538.204101562 c 0
 258.361328125 570.720703125 224.5234375 589.879882812 173.120117188 589.879882812 c 0
 120.905273438 589.879882812 65.4619140625 562.897460938 25.7158203125 466.286132812 c 2
 23.029296875 459.75390625 l 1
 16.34765625 462.044921875 l 2
 16.306640625 462.059570312 13.7041015625 462.959960938 10.5849609375 463.962890625 c 0
 1.916015625 466.9375 -0.4267578125 476.091796875 0.65625 481.713867188 c 0
 1.1318359375 483.995117188 1.8369140625 486.936523438 6.0908203125 497.984375 c 0
 44.2509765625 597.110351562 108.577148438 633.610351562 172.870117188 633.610351562 c 0
 288.935546875 633.610351562 359.75 567.793945312 359.75 489.099609375 c 0
 359.75 403.837890625 319.57421875 368.872070312 262.948242188 304.036132812 c 0
 209.377929688 242.706054688 181.66015625 188.255859375 181.66015625 137.240234375 c 2
 181.66015625 129.740234375 l 1
 174.16015625 129.740234375 l 1
 154.360351562 129.740234375 l 1
 146.860351562 129.740234375 l 1xe8
164.26953125 -16.0400390625 m 0
 135.651367188 -16.0400390625 112.450195312 7.158203125 112.450195312 35.7802734375 c 0
 112.450195312 64.3984375 135.647460938 87.599609375 164.26953125 87.599609375 c 0
 192.888671875 87.599609375 216.08984375 64.40234375 216.08984375 35.7802734375 c 0xf0
 216.08984375 7.1611328125 192.892578125 -16.0400390625 164.26953125 -16.0400390625 c 0
EndSplineSet
EndChar

StartChar: A
Encoding: 65 65 20
Width: 606
Flags: MW
HStem: 0.00976562 28.7705 200.37 27.3496
LayerCount: 2
Fore
SplineSet
277.379882812 611.516601562 m 2
 280.864257812 622.212890625 296.170898438 622.51171875 299.932617188 611.716796875 c 2
 488.681640625 82.8876953125 l 2
 495.655273438 63.9482421875 523.818359375 28.7802734375 543.75 28.7802734375 c 2
 559.0703125 28.7802734375 l 2
 567.243164062 28.7802734375 574.139648438 22.1181640625 574.139648438 13.6201171875 c 2
 574.139648438 7.509765625 l 1
 574.139648438 0.009765625 l 1
 566.639648438 0.009765625 l 1
 364.209960938 0.009765625 l 1
 356.709960938 0.009765625 l 1
 356.709960938 7.509765625 l 1
 356.709960938 13.6201171875 l 2
 356.709960938 21.4189453125 362.7890625 28.7802734375 371.700195312 28.7802734375 c 2
 379.450195312 28.7802734375 l 2
 385.151367188 28.7802734375 389.69140625 29.556640625 393.248046875 30.7998046875 c 0
 410.294921875 36.755859375 411.875976562 58.2548828125 402.50390625 84.775390625 c 2
 361.081054688 200.370117188 l 1
 171.125 200.370117188 l 1
 130.296875 84.8076171875 l 2
 128.606445312 79.990234375 127.767578125 75.1318359375 127.719726562 70.4052734375 c 0
 127.501953125 48.9345703125 143.35546875 28.7802734375 175.889648438 28.7802734375 c 2
 202.309570312 28.7802734375 l 2
 211.115234375 28.7802734375 217.299804688 21.5009765625 217.299804688 13.6201171875 c 2
 217.299804688 7.509765625 l 1
 217.299804688 0.009765625 l 1
 209.799804688 0.009765625 l 1
 7.3603515625 0.009765625 l 1
 -0.1396484375 0.009765625 l 1
 -0.1396484375 7.509765625 l 1
 -0.1396484375 13.6201171875 l 2
 -0.1396484375 22.0126953125 6.6005859375 28.7802734375 14.849609375 28.7802734375 c 2
 30.259765625 28.7802734375 l 2
 65.5 28.7802734375 87.994140625 63.8994140625 95.048828125 82.8623046875 c 2
 277.379882812 611.516601562 l 2
262.887695312 470.857421875 m 1
 182.69140625 227.719726562 l 1
 348.6328125 227.719726562 l 1
 262.887695312 470.857421875 l 1
EndSplineSet
EndChar

StartChar: B
Encoding: 66 66 21
Width: 548
Flags: MW
HStem: 0 34.8799 371.28 34.8799 584.8 34.8799
VStem: 70.3096 79.46 363.71 79.6299 420.22 78.5
LayerCount: 2
Fore
SplineSet
443.33984375 502.448242188 m 0xf8
 443.33984375 435.7734375 386.698242188 402.970703125 332.372070312 389.227539062 c 1
 456.885742188 367.103515625 498.719726562 287.567382812 498.719726562 201.94140625 c 0xf4
 498.719726562 -0.5166015625 291.922851562 0 173.599609375 0 c 2
 8.7802734375 0 l 1
 1.2802734375 0 l 1
 1.2802734375 7.5 l 1
 1.2802734375 13.462890625 l 2
 1.2802734375 21.0732421875 7.3603515625 28.2548828125 16.26953125 28.2548828125 c 2
 31.58984375 28.2548828125 l 2
 48.236328125 28.2548828125 70.3095703125 36.3564453125 70.3095703125 79.9716796875 c 2
 70.3095703125 539.698242188 l 2
 70.3095703125 583.333984375 48.2275390625 591.424804688 31.58984375 591.424804688 c 2
 16.26953125 591.424804688 l 2
 7.3583984375 591.424804688 1.2802734375 598.608398438 1.2802734375 606.217773438 c 2
 1.2802734375 612.1796875 l 1
 1.2802734375 619.6796875 l 1
 8.7802734375 619.6796875 l 1
 245.200195312 619.6796875 l 2
 341.319335938 619.6796875 443.33984375 594.016601562 443.33984375 502.448242188 c 0xf8
208.889648438 584.799804688 m 2
 149.76953125 584.799804688 l 1
 149.76953125 406.16015625 l 1
 173.599609375 406.16015625 l 2
 276.15234375 406.16015625 363.709960938 438.926757812 363.709960938 499.2421875 c 0xf8
 363.709960938 566.150390625 261.568359375 584.799804688 208.889648438 584.799804688 c 2
173.599609375 34.8798828125 m 2
 307.9296875 34.8798828125 420.219726562 58.2373046875 420.219726562 195.635742188 c 0xf4
 420.219726562 306.350585938 351.520507812 371.280273438 173.599609375 371.280273438 c 2
 149.76953125 371.280273438 l 1
 149.76953125 34.8798828125 l 1
 173.599609375 34.8798828125 l 2
EndSplineSet
EndChar

StartChar: C
Encoding: 67 67 22
Width: 552
Flags: MW
HStem: 593.032 40.6377
VStem: -1.00977 79.6201
LayerCount: 2
Fore
SplineSet
525.838867188 163.629882812 m 1
 524.96875 155.337890625 l 2
 519.478515625 102.978515625 495.952148438 57.421875 452.525390625 22.185546875 c 0
 333.229492188 -74.59765625 168.021484375 -24.3056640625 94.91796875 51.607421875 c 0
 35.86328125 112.927734375 -1.009765625 202.766601562 -1.009765625 304.5 c 0
 -1.009765625 406.740234375 33.90625 493.439453125 94.1533203125 553.049804688 c 0
 175.375976562 633.453125 254.299804688 633.669921875 315.879882812 633.669921875 c 0
 404 633.669921875 501.424804688 574.311523438 517.506835938 451.060546875 c 2
 518.474609375 443.645507812 l 1
 511.0625 442.65625 l 1
 511.0625 442.65625 506.349609375 442.02734375 505.008789062 441.80859375 c 2
 504.827148438 441.778320312 l 1
 504.643554688 441.7578125 l 2
 496.8046875 440.870117188 489.303710938 447.813476562 488.168945312 452.23828125 c 0
 487.208007812 456.544921875 485.904296875 463.541992188 481.78515625 472.407226562 c 0
 468.403320312 501.51171875 447.541015625 554.270507812 390.625 575.69140625 c 0
 358.942382812 587.630859375 329.913085938 592.946289062 303.435546875 593.032226562 c 0
 154.303710938 593.518554688 78.6103515625 425.319335938 78.6103515625 308.129882812 c 0
 78.6103515625 179.40234375 154.145507812 79.25 219.861328125 40.7548828125 c 0
 284.352539062 2.837890625 418.357421875 18.1298828125 466.094726562 102.379882812 c 0
 473.263671875 115.112304688 481.418945312 139.858398438 483.518554688 149.048828125 c 0
 485.330078125 156.98828125 492.126953125 163.629882812 501.169921875 163.629882812 c 2
 517.509765625 163.629882812 l 1
 525.838867188 163.629882812 l 1
EndSplineSet
EndChar

StartChar: D
Encoding: 68 68 23
Width: 550
Flags: MW
HStem: 0 34.8799 584.8 34.8799
VStem: 67.9805 79.46 435.57 85.4795
LayerCount: 2
Fore
SplineSet
6.4501953125 619.6796875 m 1
 204.919921875 619.6796875 l 2
 437.407226562 619.6796875 521.049804688 478.85546875 521.049804688 338.837890625 c 0
 521.049804688 216.103515625 482.751953125 130.997070312 423.489257812 76.857421875 c 0
 364.274414062 22.671875 285.146484375 0 204.919921875 0 c 2
 6.4501953125 0 l 1
 -1.0498046875 0 l 1
 -1.0498046875 7.5 l 1
 -1.0498046875 13.462890625 l 2
 -1.0498046875 21.0732421875 5.0302734375 28.2548828125 13.9404296875 28.2548828125 c 2
 29.259765625 28.2548828125 l 2
 45.90625 28.2548828125 67.98046875 36.3564453125 67.98046875 79.9716796875 c 2
 67.98046875 539.698242188 l 2
 67.98046875 583.333984375 45.8974609375 591.424804688 29.259765625 591.424804688 c 2
 13.9404296875 591.424804688 l 2
 5.029296875 591.424804688 -1.0498046875 598.608398438 -1.0498046875 606.217773438 c 2
 -1.0498046875 612.1796875 l 1
 -1.0498046875 619.6796875 l 1
 6.4501953125 619.6796875 l 1
147.440429688 34.8798828125 m 1
 204.919921875 34.8798828125 l 2
 335.123046875 34.8798828125 435.559570312 177.127929688 435.5703125 316.127929688 c 0
 435.5703125 491.141601562 332.374023438 584.799804688 204.919921875 584.799804688 c 2
 147.440429688 584.799804688 l 1
 147.440429688 34.8798828125 l 1
EndSplineSet
EndChar

StartChar: E
Encoding: 69 69 24
Width: 519
Flags: MW
HStem: 0 34.8896 314.4 34.8691 584.8 34.8799
VStem: 68.7197 79.46 323.56 28.7705
LayerCount: 2
Fore
SplineSet
489.399414062 122.732421875 m 1
 488.205078125 115.64453125 l 1
 469.78515625 6.2548828125 l 1
 468.732421875 0 l 1
 462.389648438 0 l 1
 7.1904296875 0 l 1
 -0.3095703125 0 l 1
 -0.3095703125 7.5 l 1
 -0.3095703125 13.462890625 l 2
 -0.3095703125 21.0732421875 5.7705078125 28.2548828125 14.6796875 28.2548828125 c 2
 30 28.2548828125 l 2
 46.646484375 28.2548828125 68.7197265625 36.3564453125 68.7197265625 79.9716796875 c 2
 68.7197265625 539.698242188 l 2
 68.7197265625 583.323242188 46.6357421875 591.424804688 30 591.424804688 c 2
 14.6796875 591.424804688 l 2
 5.7685546875 591.424804688 -0.3095703125 598.608398438 -0.3095703125 606.217773438 c 2
 -0.3095703125 612.1796875 l 1
 -0.3095703125 619.6796875 l 1
 7.1904296875 619.6796875 l 1
 462.400390625 619.6796875 l 1
 469.403320312 619.6796875 l 1
 469.8828125 612.693359375 l 1
 477.452148438 502.443359375 l 1
 477.94140625 495.323242188 l 1
 470.853515625 494.482421875 l 1
 470.853515625 494.482421875 467.95703125 494.135742188 464.810546875 493.790039062 c 0
 456.512695312 492.78515625 448.9375 498.7734375 448.067382812 506.931640625 c 2
 448.067382812 506.931640625 447.6484375 510.374023438 446.259765625 522.237304688 c 0
 443.927734375 542.387695312 429.939453125 584.799804688 388.129882812 584.799804688 c 2
 148.1796875 584.799804688 l 1
 148.1796875 349.26953125 l 1
 270.549804688 349.26953125 l 2
 312.25 349.26953125 323.559570312 390.236328125 323.559570312 410.110351562 c 2
 323.559570312 425.51953125 l 2
 323.559570312 433.780273438 330.334960938 440.509765625 338.719726562 440.509765625 c 2
 344.830078125 440.509765625 l 1
 352.330078125 440.509765625 l 1
 352.330078125 433.009765625 l 1
 352.330078125 230.580078125 l 1
 352.330078125 223.080078125 l 1
 344.830078125 223.080078125 l 1
 338.719726562 223.080078125 l 2
 330.920898438 223.080078125 323.559570312 229.159179688 323.559570312 238.0703125 c 2
 323.559570312 253.389648438 l 2
 323.559570312 272.607421875 312.12109375 314.400390625 270.549804688 314.400390625 c 2
 148.1796875 314.400390625 l 1
 148.1796875 34.8896484375 l 1
 388.120117188 34.8896484375 l 2
 430.4296875 34.8896484375 450.700195312 79.447265625 455.079101562 99.076171875 c 0
 457.666015625 110.7265625 458.4375 114.1328125 458.4375 114.1328125 c 2
 460.172851562 122.12109375 468.260742188 127.388671875 476.448242188 125.506835938 c 0
 479.528320312 124.827148438 482.368164062 124.225585938 482.368164062 124.225585938 c 1
 489.399414062 122.732421875 l 1
EndSplineSet
EndChar

StartChar: F
Encoding: 70 70 25
Width: 517
Flags: MW
HStem: 0 28.7695 314.39 34.8701 584.8 34.8799
VStem: 69.7197 79.46 324.55 28.7705
LayerCount: 2
Fore
SplineSet
459.424804688 505.5703125 m 0
 459.415039062 505.614257812 458.705078125 508.9296875 456.073242188 520.58984375 c 0
 448.58984375 553.790039062 422.372070312 584.799804688 389.120117188 584.799804688 c 2
 149.1796875 584.799804688 l 1
 149.1796875 349.259765625 l 1
 271.540039062 349.259765625 l 2
 313.25 349.259765625 324.549804688 390.21484375 324.549804688 410.099609375 c 2
 324.549804688 425.509765625 l 2
 324.549804688 433.768554688 331.32421875 440.5 339.709960938 440.5 c 2
 345.8203125 440.5 l 1
 353.3203125 440.5 l 1
 353.3203125 433 l 1
 353.3203125 230.5703125 l 1
 353.3203125 223.0703125 l 1
 345.8203125 223.0703125 l 1
 339.709960938 223.0703125 l 2
 331.911132812 223.0703125 324.549804688 229.1484375 324.549804688 238.059570312 c 2
 324.549804688 253.379882812 l 2
 324.549804688 272.596679688 313.1015625 314.389648438 271.540039062 314.389648438 c 2
 149.169921875 314.389648438 l 1
 149.169921875 80.4130859375 l 2
 149.169921875 36.75390625 170.510742188 28.76953125 187.719726562 28.76953125 c 2
 203.129882812 28.76953125 l 2
 211.387695312 28.76953125 218.120117188 21.9970703125 218.120117188 13.6103515625 c 2
 218.120117188 7.5 l 1
 218.120117188 0 l 1
 210.620117188 0 l 1
 8.1904296875 0 l 1
 0.6904296875 0 l 1
 0.6904296875 7.5 l 1
 0.6904296875 13.6103515625 l 2
 0.6904296875 21.41015625 6.7705078125 28.76953125 15.6796875 28.76953125 c 2
 31 28.76953125 l 2
 47.646484375 28.76953125 69.7197265625 36.8642578125 69.7197265625 80.44140625 c 2
 69.7197265625 539.762695312 l 2
 69.7197265625 583.359375 47.6376953125 591.443359375 31 591.443359375 c 2
 15.6796875 591.443359375 l 2
 6.7685546875 591.443359375 0.6904296875 598.620117188 0.6904296875 606.223632812 c 2
 0.6904296875 612.1796875 l 1
 0.6904296875 619.6796875 l 1
 8.1904296875 619.6796875 l 1
 463.389648438 619.6796875 l 1
 469.732421875 619.6796875 l 1
 470.78515625 613.424804688 l 1
 489.205078125 504.03515625 l 1
 490.399414062 496.942382812 l 1
 483.36328125 495.453125 l 1
 483.36328125 495.453125 480.452148438 494.837890625 477.495117188 494.1953125 c 0
 474.16015625 493.362304688 470.462890625 493.96484375 467.81640625 495.213867188 c 0
 463.764648438 497.055664062 460.49609375 500.78515625 459.424804688 505.5703125 c 0
EndSplineSet
EndChar

StartChar: G
Encoding: 71 71 26
Width: 610
Flags: MW
HStem: -16.0303 34.9307 286.69 28.8594 598.83 34.8496
VStem: 0.19043 80.0898 436.39 80.0107
LayerCount: 2
Fore
SplineSet
291.200195312 -16.0302734375 m 0
 92.5146484375 -16.0302734375 0.1904296875 154.732421875 0.1904296875 303.493164062 c 0
 0.1904296875 527.243164062 144.444335938 633.6796875 287.75 633.6796875 c 0
 398.036132812 633.6796875 493.385742188 560.430664062 509.13671875 439.669921875 c 2
 510.087890625 432.380859375 l 1
 502.818359375 431.284179688 l 1
 502.818359375 431.284179688 459.305664062 424.719726562 457.946289062 424.4921875 c 2
 457.749023438 424.458984375 l 1
 457.55078125 424.436523438 l 2
 449.758789062 423.557617188 442.405273438 430.5 441.271484375 434.741210938 c 0
 440.228515625 439.29296875 436.192382812 457.165039062 430.967773438 476.569335938 c 0
 410.00390625 554.41015625 375.720703125 598.830078125 280.740234375 598.830078125 c 0
 125.890625 598.830078125 80.2802734375 420.73046875 80.2802734375 306.978515625 c 0
 80.2802734375 208.397460938 139.793945312 18.900390625 293 18.900390625 c 0
 427.6640625 18.900390625 436.389648438 182.8984375 436.389648438 209.791015625 c 2
 436.48046875 234.715820312 l 2
 436.48046875 278.536132812 414.224609375 286.690429688 397.440429688 286.690429688 c 2
 382.009765625 286.690429688 l 2
 373.073242188 286.690429688 366.969726562 294.069335938 366.969726562 301.900390625 c 2
 366.969726562 308.049804688 l 1
 366.969726562 315.549804688 l 1
 374.469726562 315.549804688 l 1
 578.3203125 315.549804688 l 1
 585.8203125 315.549804688 l 1
 585.8203125 308.049804688 l 1
 585.8203125 301.900390625 l 2
 585.8203125 293.4765625 579.0546875 286.690429688 570.780273438 286.690429688 c 2
 555.26953125 286.690429688 l 2
 537.924804688 286.690429688 516.490234375 278.645507812 516.490234375 234.526367188 c 2
 516.400390625 209.522460938 l 2
 516.400390625 136.546875 475.84765625 -16.0302734375 291.200195312 -16.0302734375 c 0
EndSplineSet
EndChar

StartChar: H
Encoding: 72 72 27
Width: 619
Flags: MW
HStem: 0 28.7695 310.96 34.8604 590.91 28.7695
VStem: 68.5596 79.5303 443.99 79.5293
LayerCount: 2
Fore
SplineSet
577.450195312 590.91015625 m 2
 562.040039062 590.91015625 l 2
 544.842773438 590.91015625 523.529296875 582.8984375 523.51953125 539.278320312 c 2
 523.51953125 80.40234375 l 2
 523.51953125 36.78125 544.831054688 28.7802734375 562.030273438 28.7802734375 c 2
 577.440429688 28.7802734375 l 2
 585.700195312 28.7802734375 592.4296875 22.0048828125 592.4296875 13.6201171875 c 2
 592.4296875 7.509765625 l 1
 592.4296875 0.009765625 l 1
 584.9296875 0.009765625 l 1
 382.5 0.009765625 l 1
 375 0.009765625 l 1
 375 7.509765625 l 1
 375 13.6201171875 l 2
 375 21.4189453125 381.079101562 28.7802734375 389.990234375 28.7802734375 c 2
 405.309570312 28.7802734375 l 2
 421.916015625 28.7802734375 443.990234375 36.892578125 443.990234375 80.408203125 c 2
 443.990234375 310.959960938 l 1
 148.08984375 310.959960938 l 1
 148.08984375 80.3974609375 l 2
 148.08984375 36.771484375 169.400390625 28.76953125 186.599609375 28.76953125 c 2
 202.009765625 28.76953125 l 2
 210.267578125 28.76953125 217 21.9970703125 217 13.6103515625 c 2
 217 7.5 l 1
 217 0 l 1
 209.5 0 l 1
 7.0703125 0 l 1
 -0.4296875 0 l 1
 -0.4296875 7.5 l 1
 -0.4296875 13.6103515625 l 2
 -0.4296875 21.41015625 5.650390625 28.76953125 14.5595703125 28.76953125 c 2
 29.8798828125 28.76953125 l 2
 46.486328125 28.76953125 68.5595703125 36.880859375 68.5595703125 80.3916015625 c 2
 68.5595703125 539.278320312 l 2
 68.5595703125 582.797851562 46.478515625 590.900390625 29.8798828125 590.900390625 c 2
 14.5595703125 590.900390625 l 2
 5.650390625 590.900390625 -0.4296875 598.259765625 -0.4296875 606.059570312 c 2
 -0.4296875 612.169921875 l 1
 -0.4296875 619.669921875 l 1
 7.0703125 619.669921875 l 1
 209.509765625 619.669921875 l 1
 217.009765625 619.669921875 l 1
 217.009765625 612.169921875 l 1
 217.009765625 606.059570312 l 2
 217.009765625 597.6640625 210.265625 590.900390625 202.01953125 590.900390625 c 2
 186.610351562 590.900390625 l 2
 169.400390625 590.900390625 148.099609375 582.930664062 148.099609375 539.474609375 c 2
 148.099609375 345.8203125 l 1
 443.990234375 345.8203125 l 1
 443.990234375 539.483398438 l 2
 443.990234375 582.838867188 421.908203125 590.91015625 405.309570312 590.91015625 c 2
 389.990234375 590.91015625 l 2
 381.079101562 590.91015625 375 598.271484375 375 606.0703125 c 2
 375 612.1796875 l 1
 375 619.6796875 l 1
 382.5 619.6796875 l 1
 584.940429688 619.6796875 l 1
 592.440429688 619.6796875 l 1
 592.440429688 612.1796875 l 1
 592.440429688 606.0703125 l 2
 592.440429688 597.674804688 585.697265625 590.91015625 577.450195312 590.91015625 c 2
EndSplineSet
EndChar

StartChar: I
Encoding: 73 73 28
Width: 246
Flags: MW
HStem: 0.00976562 28.7705 590.91 28.7695
VStem: 69.2803 79.5293
LayerCount: 2
Fore
SplineSet
202.73046875 590.91015625 m 2
 187.3203125 590.91015625 l 2
 170.123046875 590.91015625 148.809570312 582.900390625 148.809570312 539.278320312 c 2
 148.809570312 80.40234375 l 2
 148.809570312 36.78125 170.12109375 28.7802734375 187.3203125 28.7802734375 c 2
 202.73046875 28.7802734375 l 2
 210.990234375 28.7802734375 217.719726562 22.0048828125 217.719726562 13.6201171875 c 2
 217.719726562 7.509765625 l 1
 217.719726562 0.009765625 l 1
 210.219726562 0.009765625 l 1
 7.7900390625 0.009765625 l 1
 0.2900390625 0.009765625 l 1
 0.2900390625 7.509765625 l 1
 0.2900390625 13.6201171875 l 2
 0.2900390625 21.4189453125 6.369140625 28.7802734375 15.2802734375 28.7802734375 c 2
 30.599609375 28.7802734375 l 2
 47.2060546875 28.7802734375 69.2802734375 36.8916015625 69.2802734375 80.40234375 c 2
 69.2802734375 539.288085938 l 2
 69.2802734375 582.807617188 47.1982421875 590.91015625 30.599609375 590.91015625 c 2
 15.2802734375 590.91015625 l 2
 6.369140625 590.91015625 0.2900390625 598.271484375 0.2900390625 606.0703125 c 2
 0.2900390625 612.1796875 l 1
 0.2900390625 619.6796875 l 1
 7.7900390625 619.6796875 l 1
 210.219726562 619.6796875 l 1
 217.719726562 619.6796875 l 1
 217.719726562 612.1796875 l 1
 217.719726562 606.0703125 l 2
 217.719726562 597.67578125 210.977539062 590.91015625 202.73046875 590.91015625 c 2
EndSplineSet
EndChar

StartChar: J
Encoding: 74 74 29
Width: 266
Flags: MW
HStem: 590.91 28.7695
VStem: 89.6904 79.5498
LayerCount: 2
Fore
SplineSet
-10.5185546875 -104.741210938 m 0
 -8.91015625 -104.12890625 -7.1455078125 -103.416015625 -5.28515625 -102.6640625 c 0
 60.138671875 -76.900390625 89.6904296875 -19.337890625 89.6904296875 50.76171875 c 2
 89.6904296875 539.022460938 l 2
 89.6904296875 582.798828125 67.5966796875 590.91015625 51.0595703125 590.91015625 c 2
 35.740234375 590.91015625 l 2
 26.8291015625 590.91015625 20.75 598.271484375 20.75 606.0703125 c 2
 20.75 612.1796875 l 1
 20.75 619.6796875 l 1
 28.25 619.6796875 l 1
 230.690429688 619.6796875 l 1
 238.190429688 619.6796875 l 1
 238.190429688 612.1796875 l 1
 238.190429688 606.0703125 l 2
 238.190429688 597.68359375 231.458007812 590.91015625 223.200195312 590.91015625 c 2
 207.790039062 590.91015625 l 2
 190.583007812 590.91015625 169.240234375 582.873046875 169.240234375 538.965820312 c 2
 169.240234375 100.768554688 l 2
 169.240234375 66.1640625 167.783203125 37.220703125 164.892578125 12.31640625 c 0
 156.21875 -62.5068359375 94.6015625 -109.388671875 -8.775390625 -140.705078125 c 2
 -16.8681640625 -143.20703125 l 1
 -18.37109375 -134.87109375 l 1
 -19.5859375 -128.1328125 l 2
 -19.9287109375 -126.1484375 -20.2041015625 -124.642578125 -20.5869140625 -122.421875 c 0
 -21.9306640625 -114.58984375 -17.6513671875 -107.33984375 -10.5185546875 -104.741210938 c 0
EndSplineSet
EndChar

StartChar: K
Encoding: 75 75 30
Width: 565
Flags: MW
HStem: 0 28.7695 590.9 28.7695
VStem: 69.46 79.5303
LayerCount: 2
Fore
SplineSet
381.28515625 523.919921875 m 2
 206.862304688 343.174804688 l 1
 416.362304688 102.662109375 l 2
 431.448242188 85.7236328125 481.700195312 28.7802734375 501.139648438 28.7802734375 c 2
 516.459960938 28.7802734375 l 2
 524.631835938 28.7802734375 531.530273438 22.1201171875 531.530273438 13.6201171875 c 2
 531.530273438 7.509765625 l 1
 531.530273438 0.009765625 l 1
 524.030273438 0.009765625 l 1
 321.599609375 0.009765625 l 1
 314.099609375 0.009765625 l 1
 314.099609375 7.509765625 l 1
 314.099609375 13.6201171875 l 2
 314.099609375 21.419921875 320.1796875 28.7802734375 329.08984375 28.7802734375 c 2
 336.83984375 28.7802734375 l 2
 346.0703125 28.7802734375 350.826171875 30.755859375 352.8046875 32.4345703125 c 0
 357.866210938 36.7314453125 353.34375 53.5654296875 335.854492188 73.89453125 c 2
 149 289.297851562 l 1
 149 81.76953125 l 2
 149 36.9833984375 170.30078125 28.76953125 187.509765625 28.76953125 c 2
 202.919921875 28.76953125 l 2
 211.166015625 28.76953125 217.91015625 22.005859375 217.91015625 13.6103515625 c 2
 217.91015625 7.5 l 1
 217.91015625 0 l 1
 210.41015625 0 l 1
 7.9697265625 0 l 1
 0.4697265625 0 l 1
 0.4697265625 7.5 l 1
 0.4697265625 13.6103515625 l 2
 0.4697265625 21.4111328125 6.5517578125 28.76953125 15.4599609375 28.76953125 c 2
 30.7802734375 28.76953125 l 2
 47.38671875 28.76953125 69.4599609375 36.880859375 69.4599609375 80.3916015625 c 2
 69.4599609375 539.278320312 l 2
 69.4599609375 582.797851562 47.37890625 590.900390625 30.7802734375 590.900390625 c 2
 15.4599609375 590.900390625 l 2
 6.5625 590.900390625 0.4697265625 598.25 0.4697265625 606.059570312 c 2
 0.4697265625 612.169921875 l 1
 0.4697265625 619.669921875 l 1
 7.9697265625 619.669921875 l 1
 210.400390625 619.669921875 l 1
 217.900390625 619.669921875 l 1
 217.900390625 612.169921875 l 1
 217.900390625 606.059570312 l 2
 217.900390625 597.672851562 211.16796875 590.900390625 202.91015625 590.900390625 c 2
 187.5 590.900390625 l 2
 170.30078125 590.900390625 148.990234375 582.685546875 148.990234375 537.900390625 c 2
 148.990234375 325.899414062 l 1
 346.846679688 536.2265625 l 2
 356.22265625 546.282226562 362.388671875 560.369140625 362.405273438 571.14453125 c 0
 362.420898438 582.2265625 357.50390625 590.91015625 337.530273438 590.91015625 c 2
 311.110351562 590.91015625 l 2
 302.3046875 590.91015625 296.120117188 598.189453125 296.120117188 606.0703125 c 2
 296.120117188 612.1796875 l 1
 296.120117188 619.6796875 l 1
 303.620117188 619.6796875 l 1
 506.049804688 619.6796875 l 1
 513.549804688 619.6796875 l 1
 513.549804688 612.1796875 l 1
 513.549804688 606.0703125 l 2
 513.549804688 597.684570312 506.819335938 590.91015625 498.559570312 590.91015625 c 2
 483.150390625 590.91015625 l 2
 447.815429688 590.91015625 397.004882812 539.959960938 381.28515625 523.919921875 c 2
EndSplineSet
EndChar

StartChar: L
Encoding: 76 76 31
Width: 506
Flags: MW
HStem: -0.00976562 34.8896 590.9 28.7695
VStem: 68.7197 79.4502
LayerCount: 2
Fore
SplineSet
468.73046875 -0.009765625 m 1
 462.389648438 -0.009765625 l 1
 7.1904296875 -0.009765625 l 1
 -0.3095703125 -0.009765625 l 1
 -0.3095703125 7.490234375 l 1
 -0.3095703125 13.4462890625 l 2
 -0.3095703125 21.05078125 5.76953125 28.2265625 14.6796875 28.2265625 c 2
 30 28.2265625 l 2
 46.646484375 28.2265625 68.7197265625 36.3212890625 68.7197265625 79.8984375 c 2
 68.7197265625 539.21875 l 2
 68.7197265625 582.815429688 46.6376953125 590.900390625 30 590.900390625 c 2
 14.6796875 590.900390625 l 2
 5.7705078125 590.900390625 -0.3095703125 598.259765625 -0.3095703125 606.059570312 c 2
 -0.3095703125 612.169921875 l 1
 -0.3095703125 619.669921875 l 1
 7.1904296875 619.669921875 l 1
 209.620117188 619.669921875 l 1
 217.120117188 619.669921875 l 1
 217.120117188 612.169921875 l 1
 217.120117188 606.059570312 l 2
 217.120117188 597.6640625 210.375976562 590.900390625 202.129882812 590.900390625 c 2
 186.719726562 590.900390625 l 2
 180.081054688 590.900390625 173.272460938 589.526367188 167.370117188 586.009765625 c 0
 157.396484375 580.169921875 148.169921875 567.5859375 148.169921875 539.29296875 c 2
 148.169921875 80.5380859375 l 2
 148.169921875 48.3076171875 170.40625 34.8798828125 190.669921875 34.8798828125 c 2
 388.110351562 34.8798828125 l 2
 430.430664062 34.8798828125 450.700195312 79.4453125 455.068359375 99.06640625 c 0
 457.655273438 110.716796875 458.427734375 114.124023438 458.427734375 114.124023438 c 2
 460.163085938 122.110351562 468.263671875 127.376953125 476.42578125 125.499023438 c 0
 479.50390625 124.83203125 482.365234375 124.2265625 482.365234375 124.2265625 c 1
 489.399414062 122.735351562 l 1
 488.205078125 115.64453125 l 1
 469.547851562 4.845703125 l 1
 468.73046875 -0.009765625 l 1
EndSplineSet
EndChar

StartChar: M
Encoding: 77 77 32
Width: 749
Flags: MW
HStem: 0 28.7695 590.91 28.7695
VStem: 91.9902 34.79 564.93 79.54
LayerCount: 2
Fore
SplineSet
526.209960938 28.7802734375 m 2
 542.856445312 28.7802734375 564.9296875 37.08203125 564.9296875 81.779296875 c 2
 564.84765625 503.44140625 l 1
 367.297851562 17.3271484375 l 1
 360.784179688 1.2998046875 l 1
 353.5390625 17.0087890625 l 1
 126.780273438 508.661132812 l 1
 126.780273438 81.76953125 l 2
 126.780273438 40.0791015625 167.806640625 28.76953125 187.700195312 28.76953125 c 2
 203.110351562 28.76953125 l 2
 211.369140625 28.76953125 218.099609375 21.99609375 218.099609375 13.6103515625 c 2
 218.099609375 7.5 l 1
 218.099609375 0 l 1
 210.599609375 0 l 1
 8.169921875 0 l 1
 0.669921875 0 l 1
 0.669921875 7.5 l 1
 0.669921875 13.6103515625 l 2
 0.669921875 21.41015625 6.75 28.76953125 15.66015625 28.76953125 c 2
 30.98046875 28.76953125 l 2
 50.1982421875 28.76953125 91.990234375 39.912109375 91.990234375 80.3916015625 c 2
 91.990234375 539.7578125 l 2
 91.697265625 579.873046875 50.2001953125 590.91015625 30.98046875 590.91015625 c 2
 15.66015625 590.91015625 l 2
 6.7490234375 590.91015625 0.669921875 598.271484375 0.669921875 606.0703125 c 2
 0.669921875 612.1796875 l 1
 0.669921875 619.6796875 l 1
 8.169921875 619.6796875 l 1
 152.16015625 619.6796875 l 1
 156.967773438 619.6796875 l 1
 158.975585938 615.310546875 l 1
 381.623046875 130.663085938 l 1
 578.732421875 615.017578125 l 1
 580.634765625 619.690429688 l 1
 585.6796875 619.690429688 l 1
 705.830078125 619.690429688 l 1
 713.330078125 619.690429688 l 1
 713.330078125 612.190429688 l 1
 713.330078125 606.080078125 l 2
 713.330078125 597.685546875 706.587890625 590.919921875 698.33984375 590.919921875 c 2
 682.9296875 590.919921875 l 2
 665.735351562 590.919921875 644.469726562 582.95703125 644.469726562 539.276367188 c 2
 644.469726562 539.276367188 644.379882812 482.787109375 644.379882812 482.787109375 c 1
 644.379882812 482.787109375 644.469726562 80.40234375 644.469726562 80.40234375 c 2
 644.469726562 36.744140625 665.732421875 28.7802734375 682.9296875 28.7802734375 c 2
 698.33984375 28.7802734375 l 2
 706.598632812 28.7802734375 713.330078125 22.005859375 713.330078125 13.6201171875 c 2
 713.330078125 7.509765625 l 1
 713.330078125 0.009765625 l 1
 705.830078125 0.009765625 l 1
 503.400390625 0.009765625 l 1
 495.900390625 0.009765625 l 1
 495.900390625 7.509765625 l 1
 495.900390625 13.6201171875 l 2
 495.900390625 21.427734375 501.990234375 28.7802734375 510.889648438 28.7802734375 c 2
 526.209960938 28.7802734375 l 2
EndSplineSet
EndChar

StartChar: N
Encoding: 78 78 33
Width: 661
Flags: MW
HStem: 0 28.7695 590.91 28.7695
VStem: 90.9902 34.7793 508.23 34.7793
LayerCount: 2
Fore
SplineSet
634.330078125 619.6796875 m 1
 634.330078125 612.1796875 l 1
 634.330078125 606.0703125 l 2
 634.330078125 597.68359375 627.59765625 590.91015625 619.33984375 590.91015625 c 2
 603.9296875 590.91015625 l 2
 584.133789062 590.91015625 543.009765625 579.796875 543.009765625 539.209960938 c 2
 543.009765625 -1.2001953125 l 1
 543.009765625 -8.7001953125 l 1
 535.509765625 -8.7001953125 l 1
 515.889648438 -8.7001953125 l 1
 511.966796875 -8.7001953125 l 1
 509.729492188 -5.4775390625 l 1
 125.76953125 547.450195312 l 1
 125.76953125 81.76953125 l 2
 125.76953125 40.0791015625 166.796875 28.76953125 186.690429688 28.76953125 c 2
 202.099609375 28.76953125 l 2
 210.345703125 28.76953125 217.08984375 22.005859375 217.08984375 13.6103515625 c 2
 217.08984375 7.5 l 1
 217.08984375 0 l 1
 209.58984375 0 l 1
 7.169921875 0 l 1
 -0.330078125 0 l 1
 -0.330078125 7.5 l 1
 -0.330078125 13.6103515625 l 2
 -0.330078125 21.41015625 5.75 28.76953125 14.66015625 28.76953125 c 2
 29.98046875 28.76953125 l 2
 49.1982421875 28.76953125 90.990234375 39.912109375 90.990234375 80.3916015625 c 2
 90.990234375 539.278320312 l 2
 90.990234375 579.885742188 49.9619140625 590.91015625 30.0703125 590.91015625 c 2
 14.66015625 590.91015625 l 2
 6.4130859375 590.91015625 -0.330078125 597.674804688 -0.330078125 606.0703125 c 2
 -0.330078125 612.1796875 l 1
 -0.330078125 619.6796875 l 1
 7.169921875 619.6796875 l 1
 157.360351562 619.6796875 l 1
 161.282226562 619.6796875 l 1
 163.51953125 616.458984375 l 1
 508.23046875 120.250976562 l 1
 508.23046875 537.900390625 l 2
 508.23046875 579.538085938 466.529296875 590.91015625 447.219726562 590.91015625 c 2
 431.900390625 590.91015625 l 2
 422.989257812 590.91015625 416.91015625 598.271484375 416.91015625 606.0703125 c 2
 416.91015625 612.1796875 l 1
 416.91015625 619.6796875 l 1
 424.41015625 619.6796875 l 1
 626.830078125 619.6796875 l 1
 634.330078125 619.6796875 l 1
EndSplineSet
EndChar

StartChar: O
Encoding: 79 79 34
Width: 544
Flags: MW
HStem: -16.0303 36.0801 598.22 35.3701
VStem: 0.0302734 80.71 433.27 80.6904
LayerCount: 2
Fore
SplineSet
0.0302734375 309.620117188 m 0
 0.0302734375 432.125 49.6728515625 633.58984375 257.009765625 633.58984375 c 0
 436.66796875 633.58984375 513.969726562 489.0078125 513.959960938 309.620117188 c 0
 513.959960938 198.510742188 478.188476562 -16.0302734375 249.450195312 -16.0302734375 c 0
 61.4541015625 -16.0302734375 0.0302734375 164.48828125 0.0302734375 309.620117188 c 0
254.809570312 598.219726562 m 0
 137.553710938 598.219726562 80.740234375 446.951171875 80.740234375 307.014648438 c 0
 80.740234375 155.059570312 149.235351562 20.0498046875 267.650390625 20.0498046875 c 0
 354.516601562 20.0498046875 433.26953125 153.169921875 433.26953125 307.014648438 c 0
 433.26953125 465.736328125 368.284179688 598.219726562 254.809570312 598.219726562 c 0
EndSplineSet
EndChar

StartChar: P
Encoding: 80 80 35
Width: 511
Flags: MW
HStem: 0.00976562 28.7705 213.86 34.71 584.4 35.2793 591.443 28.2363
VStem: 69.0596 79.54
LayerCount: 2
Fore
SplineSet
7.5703125 619.6796875 m 1xd8
 210 619.6796875 l 2xe8
 296.4453125 619.6796875 398.215820312 614.3828125 457.458007812 502.938476562 c 0
 494.071289062 434.098632812 478.322265625 343.362304688 437.469726562 295.271484375 c 0
 371.5 217.618164062 305.250976562 213.860351562 173.049804688 213.860351562 c 2
 148.58984375 213.860351562 l 1
 148.58984375 79.7158203125 l 2
 148.58984375 36.6748046875 169.900390625 28.7802734375 187.099609375 28.7802734375 c 2
 202.509765625 28.7802734375 l 2
 210.768554688 28.7802734375 217.5 22.005859375 217.5 13.6201171875 c 2
 217.5 7.509765625 l 1
 217.5 0.009765625 l 1
 210 0.009765625 l 1
 7.5703125 0.009765625 l 1
 0.0703125 0.009765625 l 1
 0.0703125 7.509765625 l 1
 0.0703125 13.6201171875 l 2
 0.0703125 21.4189453125 6.1484375 28.7802734375 15.0595703125 28.7802734375 c 2
 30.3798828125 28.7802734375 l 2
 46.986328125 28.7802734375 69.0595703125 36.8994140625 69.0595703125 80.4521484375 c 2
 69.0595703125 539.771484375 l 2
 69.0595703125 583.333984375 46.978515625 591.443359375 30.3798828125 591.443359375 c 2
 15.0595703125 591.443359375 l 2
 6.1484375 591.443359375 0.0703125 598.620117188 0.0703125 606.223632812 c 2
 0.0703125 612.1796875 l 1
 0.0703125 619.6796875 l 1
 7.5703125 619.6796875 l 1xd8
215.599609375 584.400390625 m 2
 148.599609375 584.400390625 l 1
 148.599609375 248.5703125 l 1
 181.91015625 248.5703125 l 2
 355.368164062 248.5703125 396.740234375 343.448242188 396.740234375 416.596679688 c 0
 396.740234375 494.146484375 335.249023438 584.400390625 215.599609375 584.400390625 c 2
EndSplineSet
EndChar

StartChar: Q
Encoding: 81 81 36
Width: 550
Flags: MW
HStem: -140.94 160.24 597.7 35.3701
VStem: 0.0302734 80.71 433.27 80.7002
LayerCount: 2
Fore
SplineSet
513.969726562 309.663085938 m 0
 513.969726562 208.6015625 484.624023438 22.2060546875 309.358398438 -10.9296875 c 1
 339.248046875 -61.4150390625 385.559570312 -89.357421875 465.913085938 -107.708007812 c 0
 476.69921875 -110.17578125 480.845703125 -111.041015625 480.868164062 -111.045898438 c 0
 488.955078125 -112.802734375 494.176757812 -120.891601562 492.299804688 -129.055664062 c 0
 491.631835938 -132.134765625 491.028320312 -134.993164062 491.028320312 -134.993164062 c 1
 489.768554688 -140.940429688 l 1
 483.690429688 -140.940429688 l 2
 371.59375 -140.940429688 274.765625 -117.359375 229.907226562 -15.7265625 c 1
 56.4169921875 -3.9677734375 0.0302734375 169.798828125 0.0302734375 309.608398438 c 0
 0.0302734375 432.118164062 49.6845703125 633.0703125 257.009765625 633.0703125 c 0
 436.653320312 633.0703125 513.969726562 489.026367188 513.969726562 309.663085938 c 0
254.809570312 597.700195312 m 0
 137.540039062 597.700195312 80.740234375 446.92578125 80.740234375 306.999023438 c 0
 80.740234375 155.024414062 149.2578125 19.2998046875 267.650390625 19.2998046875 c 0
 354.494140625 19.2998046875 433.26953125 153.134765625 433.26953125 306.999023438 c 0
 433.26953125 465.701171875 368.299804688 597.700195312 254.809570312 597.700195312 c 0
EndSplineSet
EndChar

StartChar: R
Encoding: 82 82 37
Width: 615
Flags: MW
HStem: 0 28.7695 310.789 27.2109 584.37 35.3096 591.443 28.2363
VStem: 68.6504 79.46
LayerCount: 2
Fore
SplineSet
209.549804688 619.6796875 m 2xe8
 294.779296875 619.6796875 408.379882812 623.552734375 448.967773438 517.436523438 c 0
 451.301757812 511.333984375 453.23046875 505.35546875 454.775390625 499.501953125 c 0
 483.533203125 390.567382812 379.713867188 332.383789062 321.501953125 317.911132812 c 1
 475.62890625 92.271484375 l 2
 488.083007812 74.478515625 528.177734375 28.76953125 547.990234375 28.76953125 c 2
 563.309570312 28.76953125 l 2
 571.48046875 28.76953125 578.379882812 22.111328125 578.379882812 13.6103515625 c 2
 578.379882812 7.5 l 1
 578.379882812 0 l 1
 570.879882812 0 l 1
 445.48046875 0 l 1
 441.509765625 0 l 1
 439.27734375 3.2841796875 l 1
 229.264648438 312.241210938 l 1
 202.602539062 310.921875 164.39453125 310.8125 148.099609375 310.7890625 c 1
 148.099609375 81.76953125 l 2
 148.099609375 36.9638671875 169.44140625 28.76953125 186.650390625 28.76953125 c 2
 202.059570312 28.76953125 l 2
 210.318359375 28.76953125 217.049804688 21.99609375 217.049804688 13.6103515625 c 2
 217.049804688 7.5 l 1
 217.049804688 0 l 1
 209.549804688 0 l 1
 7.1201171875 0 l 1
 -0.3798828125 0 l 1
 -0.3798828125 7.5 l 1
 -0.3798828125 13.6103515625 l 2
 -0.3798828125 21.41015625 5.7001953125 28.76953125 14.6103515625 28.76953125 c 2
 29.9296875 28.76953125 l 2
 46.576171875 28.76953125 68.650390625 36.8642578125 68.650390625 80.44140625 c 2
 68.650390625 539.762695312 l 2
 68.650390625 583.359375 46.5673828125 591.443359375 29.9296875 591.443359375 c 2
 14.6103515625 591.443359375 l 2
 5.69921875 591.443359375 -0.3798828125 598.620117188 -0.3798828125 606.223632812 c 2
 -0.3798828125 612.1796875 l 1
 -0.3798828125 619.6796875 l 1
 7.1201171875 619.6796875 l 1xd8
 209.549804688 619.6796875 l 2xe8
148.110351562 584.370117188 m 1xe8
 148.110351562 338 l 1
 181.490234375 338 l 2
 329.698242188 338 378.139648438 385.197265625 378.139648438 461.014648438 c 0
 378.139648438 536.432617188 319.188476562 584.370117188 215.139648438 584.370117188 c 2
 148.110351562 584.370117188 l 1xe8
EndSplineSet
EndChar

StartChar: S
Encoding: 83 83 38
Width: 461
Flags: MW
HStem: -16.04 39.7998 598.53 34.8701
VStem: 15.8301 76.8896 345.801 46.5176 354.16 72.1602
LayerCount: 2
Fore
SplineSet
362.387695312 449.571289062 m 0xf0
 354.114257812 448.827148438 346.651367188 454.561523438 345.80078125 462.916015625 c 0xf0
 345.80078125 462.969726562 345.5625 466.21484375 344.0234375 477.943359375 c 0
 329.932617188 585.21875 254.098632812 598.530273438 206.08984375 598.530273438 c 0
 149.844726562 598.530273438 92.7197265625 557.372070312 92.7197265625 493.181640625 c 0
 92.7197265625 432.330078125 119.360351562 381.896484375 219.15625 356.295898438 c 0
 339.607421875 325.399414062 426.3203125 284.228515625 426.3203125 162.708007812 c 0
 426.3203125 55.466796875 325.918945312 -16.0400390625 219.889648438 -16.0400390625 c 0
 121.66796875 -16.0400390625 55.75390625 39.404296875 14.5625 110.8125 c 2
 13.96875 111.842773438 l 1
 13.7216796875 113.006835938 l 2
 0.998046875 173.125976562 -0.2900390625 224.4921875 -0.296875 224.752929688 c 2
 -0.4833984375 231.825195312 l 1
 6.56640625 232.423828125 l 2
 6.6357421875 232.4296875 31.521484375 234.549804688 35.134765625 234.73828125 c 0
 44.0537109375 235.287109375 49.96484375 227.469726562 50.900390625 222.10546875 c 0
 51.1689453125 219.537109375 52.216796875 208.989257812 54.23828125 196.8203125 c 0
 75.337890625 69.9736328125 160.018554688 23.759765625 223.280273438 23.759765625 c 0
 274.979492188 23.759765625 354.16015625 73.1171875 354.16015625 149.134765625 c 0xe8
 354.16015625 221.424804688 309.58203125 253.748046875 201.51953125 280.760742188 c 0
 69.3359375 313.80078125 15.830078125 393.211914062 15.830078125 481.60546875 c 0
 15.830078125 565.78515625 102.432617188 633.400390625 214.830078125 633.400390625 c 0
 295.822265625 633.400390625 329.578125 614.844726562 375.229492188 575.735351562 c 2
 376.583984375 574.575195312 l 1
 377.270507812 572.928710938 l 2
 393.760742188 533.422851562 392.392578125 460.076171875 392.389648438 459.788085938 c 2
 392.318359375 453.249023438 l 1
 385.830078125 452.4296875 l 2
 385.73828125 452.41796875 365.997070312 449.912109375 362.387695312 449.571289062 c 0xf0
EndSplineSet
EndChar

StartChar: T
Encoding: 84 84 39
Width: 563
Flags: MW
HStem: 0.00976562 28.7705 493.56 126.12 584.88 34.7998
VStem: 1.41016 28.7695 221.32 79.46 491.81 28.7705
LayerCount: 2
Fore
SplineSet
520.580078125 619.6796875 m 1xdc
 520.580078125 612.1796875 l 1
 520.580078125 501.0703125 l 1
 520.580078125 493.5703125 l 1
 513.080078125 493.5703125 l 1
 506.969726562 493.5703125 l 2
 499.170898438 493.5703125 491.809570312 499.6484375 491.809570312 508.559570312 c 2
 491.809570312 523.879882812 l 2
 491.809570312 543.0859375 480.283203125 584.889648438 438.799804688 584.889648438 c 2
 300.780273438 584.889648438 l 1
 300.780273438 80.388671875 l 2
 300.780273438 36.7568359375 322.111328125 28.7802734375 339.330078125 28.7802734375 c 2
 354.740234375 28.7802734375 l 2
 362.999023438 28.7802734375 369.73046875 22.005859375 369.73046875 13.6201171875 c 2
 369.73046875 7.509765625 l 1
 369.73046875 0.009765625 l 1
 362.23046875 0.009765625 l 1
 159.790039062 0.009765625 l 1
 152.290039062 0.009765625 l 1
 152.290039062 7.509765625 l 1
 152.290039062 13.6201171875 l 2
 152.290039062 21.4189453125 158.369140625 28.7802734375 167.280273438 28.7802734375 c 2
 182.599609375 28.7802734375 l 2
 199.24609375 28.7802734375 221.3203125 36.8642578125 221.3203125 80.388671875 c 2
 221.3203125 584.879882812 l 1
 83.1904296875 584.879882812 l 2xbc
 41.630859375 584.879882812 30.1796875 543.16796875 30.1796875 523.870117188 c 2
 30.1796875 508.549804688 l 2
 30.1796875 499.640625 22.8203125 493.559570312 15.01953125 493.559570312 c 2
 8.91015625 493.559570312 l 1
 1.41015625 493.559570312 l 1
 1.41015625 501.059570312 l 1
 1.41015625 612.1796875 l 1
 1.41015625 619.6796875 l 1
 8.91015625 619.6796875 l 1
 513.080078125 619.6796875 l 1
 520.580078125 619.6796875 l 1xdc
EndSplineSet
EndChar

StartChar: U
Encoding: 85 85 40
Width: 590
Flags: MW
HStem: -16.04 32.3096 590.91 28.7695
VStem: 68.7695 79.54 448.06 34.8008
LayerCount: 2
Fore
SplineSet
482.860351562 175.311523438 m 2
 482.860351562 50.787109375 421.86328125 -16.0400390625 280.349609375 -16.0400390625 c 0
 158.1015625 -16.0400390625 68.76953125 33.197265625 68.76953125 173.126953125 c 2
 68.8603515625 539.178710938 l 2
 68.8603515625 582.818359375 46.77734375 590.91015625 30.1396484375 590.91015625 c 2
 14.8203125 590.91015625 l 2
 5.9091796875 590.91015625 -0.169921875 598.271484375 -0.169921875 606.0703125 c 2
 -0.169921875 612.1796875 l 1
 -0.169921875 619.6796875 l 1
 7.330078125 619.6796875 l 1
 209.759765625 619.6796875 l 1
 217.259765625 619.6796875 l 1
 217.259765625 612.1796875 l 1
 217.259765625 606.0703125 l 2
 217.259765625 597.674804688 210.516601562 590.91015625 202.26953125 590.91015625 c 2
 186.860351562 590.91015625 l 2
 169.642578125 590.91015625 148.309570312 582.91796875 148.309570312 539.249023438 c 2
 148.309570312 171.430664062 l 2
 148.309570312 51.8427734375 217.63671875 16.26953125 291.4296875 16.26953125 c 0
 359.99609375 16.26953125 448.059570312 42.2763671875 448.059570312 175.874023438 c 2
 448.059570312 539.249023438 l 2
 448.059570312 579.837890625 406.360351562 590.91015625 387.049804688 590.91015625 c 2
 371.73046875 590.91015625 l 2
 362.819335938 590.91015625 356.740234375 598.271484375 356.740234375 606.0703125 c 2
 356.740234375 612.1796875 l 1
 356.740234375 619.6796875 l 1
 364.240234375 619.6796875 l 1
 566.6796875 619.6796875 l 1
 574.1796875 619.6796875 l 1
 574.1796875 612.1796875 l 1
 574.1796875 606.0703125 l 2
 574.1796875 597.684570312 567.44921875 590.91015625 559.190429688 590.91015625 c 2
 543.780273438 590.91015625 l 2
 523.985351562 590.91015625 482.860351562 579.779296875 482.860351562 539.178710938 c 2
 482.860351562 175.311523438 l 2
EndSplineSet
EndChar

StartChar: V
Encoding: 86 86 41
Width: 636
Flags: MW
HStem: 590.91 28.7695
LayerCount: 2
Fore
SplineSet
348.247070312 -16.0400390625 m 1
 342.580078125 -16.0400390625 l 1
 300.200195312 -16.0400390625 l 1
 294.901367188 -16.0400390625 l 1
 293.130859375 -11.044921875 l 1
 94.1201171875 536.893554688 l 2
 86.9375 556.42578125 68.734375 590.91015625 29.66015625 590.91015625 c 2
 14.33984375 590.91015625 l 2
 6.1572265625 590.91015625 -0.73046875 597.578125 -0.73046875 606.0703125 c 2
 -0.73046875 612.1796875 l 1
 -0.73046875 619.6796875 l 1
 6.76953125 619.6796875 l 1
 209.200195312 619.6796875 l 1
 216.700195312 619.6796875 l 1
 216.700195312 612.1796875 l 1
 216.700195312 606.0703125 l 2
 216.700195312 598.271484375 210.62109375 590.91015625 201.709960938 590.91015625 c 2
 193.959960938 590.91015625 l 2
 188.458984375 590.91015625 184.26171875 590.19921875 181.181640625 589.124023438 c 0
 166.514648438 584.000976562 168.793945312 564.389648438 178.913085938 535.75390625 c 2
 341.978515625 73.2978515625 l 1
 472.59765625 535.8984375 l 2
 474.408203125 541.7421875 475.2890625 547.228515625 475.352539062 552.641601562 c 0
 475.598632812 573.483398438 464.028320312 590.91015625 432.709960938 590.91015625 c 2
 406.290039062 590.91015625 l 2
 397.485351562 590.91015625 391.299804688 598.188476562 391.299804688 606.0703125 c 2
 391.299804688 612.1796875 l 1
 391.299804688 619.6796875 l 1
 398.799804688 619.6796875 l 1
 601.23046875 619.6796875 l 1
 608.73046875 619.6796875 l 1
 608.73046875 612.1796875 l 1
 608.73046875 606.0703125 l 2
 608.73046875 597.68359375 601.998046875 590.91015625 593.740234375 590.91015625 c 2
 578.330078125 590.91015625 l 2
 533.069335938 590.91015625 515.37109375 555.94140625 509.170898438 537.073242188 c 2
 349.794921875 -10.5888671875 l 1
 348.247070312 -16.0400390625 l 1
EndSplineSet
EndChar

StartChar: W
Encoding: 87 87 42
Width: 885
Flags: MW
HStem: 590.91 28.7695 598.4 21.2793
LayerCount: 2
Fore
SplineSet
630.870117188 619.6796875 m 1x40
 638.370117188 619.6796875 l 1
 840.809570312 619.6796875 l 1x80
 848.309570312 619.6796875 l 1x40
 848.309570312 612.1796875 l 1
 848.309570312 606.0703125 l 2
 848.309570312 597.67578125 841.568359375 590.91015625 833.3203125 590.91015625 c 2
 817.91015625 590.91015625 l 2
 773.381835938 590.91015625 754.922851562 555.857421875 748.750976562 537.073242188 c 2
 589.384765625 -10.5888671875 l 1
 587.836914062 -16.0400390625 l 1
 582.169921875 -16.0400390625 l 1
 539.740234375 -16.0400390625 l 1
 534.400390625 -16.0400390625 l 1
 532.653320312 -10.994140625 l 1
 431.321289062 281.701171875 l 1
 350.2578125 -10.53515625 l 1
 348.733398438 -16.0302734375 l 1
 343.030273438 -16.0302734375 l 1
 300.599609375 -16.0302734375 l 1
 295.299804688 -16.0302734375 l 1
 293.530273438 -11.03515625 l 1
 94.55078125 536.89453125 l 2
 87.267578125 556.713867188 71.748046875 590.91015625 30.08984375 590.91015625 c 2
 14.76953125 590.91015625 l 2x80
 6.5986328125 590.91015625 -0.2998046875 597.569335938 -0.2998046875 606.0703125 c 2
 -0.2998046875 612.1796875 l 1
 -0.2998046875 619.6796875 l 1x40
 7.2001953125 619.6796875 l 1
 209.629882812 619.6796875 l 1x80
 217.129882812 619.6796875 l 1x40
 217.129882812 612.1796875 l 1
 217.129882812 606.0703125 l 2
 217.129882812 598.271484375 211.05078125 590.91015625 202.139648438 590.91015625 c 2
 194.389648438 590.91015625 l 2
 188.888671875 590.91015625 184.69140625 590.19921875 181.611328125 589.124023438 c 0
 166.944335938 584.000976562 169.223632812 564.389648438 179.342773438 535.75390625 c 2
 342.314453125 73.4892578125 l 1
 411.043945312 323.459960938 l 1
 333.697265625 535.529296875 l 2
 326.661132812 555.154296875 304.663085938 590.91015625 269.23046875 590.91015625 c 2
 253.91015625 590.91015625 l 2x80
 245.739257812 590.91015625 238.83984375 597.569335938 238.83984375 606.0703125 c 2
 238.83984375 612.1796875 l 1
 238.83984375 619.6796875 l 1x40
 246.33984375 619.6796875 l 1x80
 399.23046875 619.6796875 l 1
 448.76953125 619.6796875 l 1x40
 601.669921875 619.6796875 l 1x80
 609.169921875 619.6796875 l 1x40
 609.169921875 612.1796875 l 1
 609.169921875 606.0703125 l 2
 609.169921875 597.674804688 602.426757812 590.91015625 594.1796875 590.91015625 c 2
 578.76953125 590.91015625 l 2
 531.989257812 590.91015625 515.890625 555.3203125 509.571289062 535.610351562 c 2
 509.571289062 535.610351562 471.9140625 392.095703125 469.029296875 381.10546875 c 1
 581.431640625 72.806640625 l 1
 712.16796875 535.896484375 l 2
 713.975585938 541.741210938 714.85546875 547.231445312 714.918945312 552.645507812 c 0
 715.162109375 573.490234375 703.598632812 590.91015625 672.280273438 590.91015625 c 2
 645.860351562 590.91015625 l 2x80
 637.0546875 590.91015625 630.870117188 598.189453125 630.870117188 606.0703125 c 2
 630.870117188 612.1796875 l 1
 630.870117188 619.6796875 l 1x40
421.234375 596.771484375 m 0
 405.9765625 591.801757812 408.291015625 572.102539062 418.5234375 543.140625 c 2
 448.743164062 447.557617188 l 1
 472.94921875 543.111328125 l 1
 472.997070312 543.30078125 l 1
 473.0546875 543.487304688 l 2
 474.813476562 549.169921875 475.729492188 554.860351562 475.780273438 560.252929688 c 0
 475.978515625 581.001953125 464.428710938 598.322265625 433.350585938 598.400390625 c 0x40
 428.251953125 598.38671875 424.221679688 597.745117188 421.234375 596.771484375 c 0
EndSplineSet
EndChar

StartChar: X
Encoding: 88 88 43
Width: 595
Flags: MW
HStem: 0 28.7695 590.9 28.7695
LayerCount: 2
Fore
SplineSet
264.010742188 268.39453125 m 1
 152.908203125 74.6318359375 l 2
 148.895507812 67.62109375 147.388671875 61.9462890625 147.266601562 57.4404296875 c 0
 146.768554688 38.96484375 173.715820312 28.76953125 189.889648438 28.76953125 c 2
 205.209960938 28.76953125 l 2
 214.120117188 28.76953125 220.200195312 21.41015625 220.200195312 13.6103515625 c 2
 220.200195312 7.5 l 1
 220.200195312 0 l 1
 212.700195312 0 l 1
 10.259765625 0 l 1
 2.759765625 0 l 1
 2.759765625 7.5 l 1
 2.759765625 13.6103515625 l 2
 2.759765625 21.9970703125 9.4921875 28.76953125 17.75 28.76953125 c 2
 33.16015625 28.76953125 l 2
 69.3359375 28.76953125 99.3994140625 50.7275390625 122.680664062 90.337890625 c 2
 244.868164062 293.208007812 l 1
 113.9765625 505.458984375 l 2
 88.2998046875 546.969726562 58.3037109375 590.900390625 33.0703125 590.900390625 c 2
 17.75 590.900390625 l 2
 8.83984375 590.900390625 2.759765625 598.259765625 2.759765625 606.059570312 c 2
 2.759765625 612.169921875 l 1
 2.759765625 619.669921875 l 1
 10.259765625 619.669921875 l 1
 212.690429688 619.669921875 l 1
 220.190429688 619.669921875 l 1
 220.190429688 612.169921875 l 1
 220.190429688 606.059570312 l 2
 220.190429688 597.672851562 213.458007812 590.900390625 205.200195312 590.900390625 c 2
 189.790039062 590.900390625 l 2
 185.090820312 590.900390625 180.884765625 589.837890625 177.840820312 588.01953125 c 0
 171.274414062 584.095703125 164.598632812 573.25 182.099609375 544.221679688 c 2
 290.294921875 364.081054688 l 1
 394.641601562 545.215820312 l 2
 398.654296875 552.2265625 400.162109375 557.904296875 400.283203125 562.41015625 c 0
 400.78125 580.885742188 373.834960938 591.080078125 357.66015625 591.080078125 c 2
 342.33984375 591.080078125 l 2
 333.4296875 591.080078125 327.349609375 598.440429688 327.349609375 606.240234375 c 2
 327.349609375 612.349609375 l 1
 327.349609375 619.849609375 l 1
 334.849609375 619.849609375 l 1
 537.299804688 619.849609375 l 1
 544.799804688 619.849609375 l 1
 544.799804688 612.349609375 l 1
 544.799804688 606.240234375 l 2
 544.799804688 597.85546875 538.0703125 591.080078125 529.809570312 591.080078125 c 2
 514.400390625 591.080078125 l 2
 478.225585938 591.080078125 448.16015625 569.122070312 424.87890625 529.51171875 c 2
 309.78125 338.405273438 l 1
 448.0234375 114.220703125 l 2
 473.700195312 72.7099609375 503.696289062 28.7802734375 528.9296875 28.7802734375 c 2
 544.25 28.7802734375 l 2
 553.161132812 28.7802734375 559.240234375 21.4189453125 559.240234375 13.6201171875 c 2
 559.240234375 7.509765625 l 1
 559.240234375 0.009765625 l 1
 551.740234375 0.009765625 l 1
 349.309570312 0.009765625 l 1
 341.809570312 0.009765625 l 1
 341.809570312 7.509765625 l 1
 341.809570312 13.6201171875 l 2
 341.809570312 22.005859375 348.541015625 28.7802734375 356.799804688 28.7802734375 c 2
 372.209960938 28.7802734375 l 2
 376.909179688 28.7802734375 381.115234375 29.8427734375 384.159179688 31.6611328125 c 0
 390.725585938 35.5849609375 397.400390625 46.4296875 379.900390625 75.4580078125 c 2
 264.010742188 268.39453125 l 1
EndSplineSet
EndChar

StartChar: Y
Encoding: 89 89 44
Width: 645
Flags: MW
HStem: 0.00976562 28.7705 590.91 28.7695
VStem: 255.97 79.5205
LayerCount: 2
Fore
SplineSet
390.330078125 619.6796875 m 1
 397.830078125 619.6796875 l 1
 600.25 619.6796875 l 1
 607.75 619.6796875 l 1
 607.75 612.1796875 l 1
 607.75 606.0703125 l 2
 607.75 597.674804688 601.006835938 590.91015625 592.759765625 590.91015625 c 2
 577.349609375 590.91015625 l 2
 537.057617188 590.91015625 521.67578125 570.245117188 497.833007812 529.293945312 c 2
 335.450195312 250.456054688 l 1
 335.490234375 80.40234375 l 2
 335.490234375 36.78125 356.80078125 28.7802734375 374 28.7802734375 c 2
 389.41015625 28.7802734375 l 2
 397.668945312 28.7802734375 404.400390625 22.005859375 404.400390625 13.6201171875 c 2
 404.400390625 7.509765625 l 1
 404.400390625 0.009765625 l 1
 396.900390625 0.009765625 l 1
 194.469726562 0.009765625 l 1
 186.969726562 0.009765625 l 1
 186.969726562 7.509765625 l 1
 186.969726562 13.6201171875 l 2
 186.969726562 21.419921875 193.049804688 28.7802734375 201.959960938 28.7802734375 c 2
 217.280273438 28.7802734375 l 2
 233.887695312 28.7802734375 255.969726562 36.89453125 255.969726562 80.4013671875 c 2
 255.9296875 247.909179688 l 1
 100.609375 518.755859375 l 2
 76.4541015625 560.688476562 54.8408203125 590.91015625 30.5498046875 590.91015625 c 2
 15.23046875 590.91015625 l 2
 6.3193359375 590.91015625 0.240234375 598.271484375 0.240234375 606.0703125 c 2
 0.240234375 612.1796875 l 1
 0.240234375 619.6796875 l 1
 7.740234375 619.6796875 l 1
 210.1796875 619.6796875 l 1
 217.6796875 619.6796875 l 1
 217.6796875 612.1796875 l 1
 217.6796875 606.0703125 l 2
 217.6796875 597.67578125 210.938476562 590.91015625 202.690429688 590.91015625 c 2
 187.280273438 590.91015625 l 2
 179.159179688 590.91015625 170.942382812 589.969726562 166.478515625 587.563476562 c 0
 162.0625 585.18359375 156.298828125 580.125976562 169.98828125 555.727539062 c 2
 320.680664062 285.940429688 l 1
 467.536132812 544.840820312 l 2
 471.0546875 551.041992188 472.283203125 556.0546875 472.28515625 560.090820312 c 0
 472.291992188 579.463867188 437.751953125 590.91015625 420.639648438 590.91015625 c 2
 405.3203125 590.91015625 l 2
 396.409179688 590.91015625 390.330078125 598.271484375 390.330078125 606.0703125 c 2
 390.330078125 612.1796875 l 1
 390.330078125 619.6796875 l 1
EndSplineSet
EndChar

StartChar: Z
Encoding: 90 90 45
Width: 483
Flags: MW
HStem: 0 34.79 584.89 34.79
VStem: 14.4697 28.7705 418.08 28.7695
LayerCount: 2
Fore
SplineSet
446.849609375 0 m 1
 439.349609375 0 l 1
 6.650390625 0 l 1
 -0.849609375 0 l 1
 -0.849609375 7.5 l 1
 -0.849609375 26.623046875 l 1
 -0.849609375 28.61328125 l 1
 0.185546875 30.3291015625 l 1
 334.7890625 584.889648438 l 1
 96.240234375 584.889648438 l 2
 54.69140625 584.889648438 43.240234375 543.1796875 43.240234375 523.879882812 c 2
 43.240234375 508.559570312 l 2
 43.240234375 499.6484375 35.87890625 493.5703125 28.080078125 493.5703125 c 2
 21.9697265625 493.5703125 l 1
 14.4697265625 493.5703125 l 1
 14.4697265625 501.0703125 l 1
 14.4697265625 612.1796875 l 1
 14.4697265625 619.6796875 l 1
 21.9697265625 619.6796875 l 1
 434.400390625 619.6796875 l 1
 447.501953125 619.6796875 l 1
 440.868164062 608.6640625 l 1
 95.2314453125 34.7900390625 l 1
 365.080078125 34.7900390625 l 2
 406.627929688 34.7900390625 418.080078125 76.5009765625 418.080078125 95.7998046875 c 2
 418.080078125 111.120117188 l 2
 418.080078125 120.030273438 425.440429688 126.110351562 433.240234375 126.110351562 c 2
 439.349609375 126.110351562 l 1
 446.849609375 126.110351562 l 1
 446.849609375 118.610351562 l 1
 446.849609375 7.5 l 1
 446.849609375 0 l 1
EndSplineSet
EndChar

StartChar: a
Encoding: 97 97 46
Width: 456
Flags: MW
HStem: 0 28.7695 203.837 30.8516 308.89 105.58
VStem: 25.5098 85.1006 254.71 79.6201
LayerCount: 2
Fore
SplineSet
254.709960938 234.688476562 m 1
 254.709960938 304.653320312 l 2
 254.709960938 335.168945312 242.374023438 369.952148438 217.189453125 384.288085938 c 0
 184.69921875 402.853515625 127.615234375 405.487304688 102.810546875 375.911132812 c 1
 108.178710938 368.108398438 110.610351562 360.569335938 110.610351562 351.440429688 c 0
 110.610351562 327.939453125 91.560546875 308.889648438 68.0595703125 308.889648438 c 0
 44.5595703125 308.889648438 25.509765625 327.939453125 25.509765625 351.440429688 c 0
 25.509765625 371.375 38.107421875 387.721679688 59.0771484375 402.931640625 c 0
 120.997070312 447.84765625 214.34375 436.766601562 263.568359375 414.469726562 c 0
 334.795898438 383.364257812 334.37109375 333.510742188 334.330078125 331.998046875 c 2
 334.330078125 102.520507812 l 1
 334.419921875 79.7958984375 l 2
 334.419921875 36.7236328125 355.698242188 28.76953125 372.879882812 28.76953125 c 2
 388.290039062 28.76953125 l 2
 396.547851562 28.76953125 403.280273438 21.9970703125 403.280273438 13.6103515625 c 2
 403.280273438 7.5 l 1
 403.280273438 0 l 1
 395.780273438 0 l 1
 262.379882812 0 l 1
 254.879882812 0 l 1
 254.879882812 7.5 l 1
 254.879882812 46.44140625 l 1
 207.83203125 -6.376953125 169.521484375 -15.83984375 121.709960938 -15.83984375 c 0
 98.7294921875 -15.83984375 78.3798828125 -11.41796875 61.2021484375 -3.49609375 c 0
 6.0849609375 20.7587890625 -14.404296875 78.71875 12.6259765625 133.947265625 c 0
 47.64453125 205.4140625 146.606445312 233.387695312 254.709960938 234.688476562 c 1
83.8994140625 60.45703125 m 0
 90.9521484375 28.9208984375 106.5 13.8623046875 142.6328125 17.9716796875 c 0
 259.505859375 31.2587890625 256.206054688 162.2890625 254.96484375 203.836914062 c 1
 227.341796875 204.083984375 182.83203125 204.390625 129.190429688 182.075195312 c 0
 78.728515625 161.081054688 75.4794921875 97.9111328125 83.8994140625 60.45703125 c 0
EndSplineSet
EndChar

StartChar: b
Encoding: 98 98 47
Width: 476
Flags: MW
HStem: -16.0098 50.1201 -0.00976562 28.7695 382.09 51.6904 590.91 28.7695
VStem: 69.3203 79.46 318.27 79.4502
LayerCount: 2
Fore
SplineSet
148.780273438 612.1796875 m 1x7c
 148.780273438 378.805664062 l 1
 180.092773438 410.380859375 219.241210938 434.140625 263.7421875 433.780273438 c 0
 335.16015625 433.206054688 397.719726562 364.490234375 397.719726562 202.260742188 c 0
 397.719726562 96.791015625 372.4296875 -16.009765625 258.099609375 -16.009765625 c 0xbc
 205.390625 -16.009765625 169.8515625 13.4267578125 148.780273438 41.623046875 c 1
 148.780273438 7.490234375 l 1
 148.780273438 -0.009765625 l 1
 141.280273438 -0.009765625 l 1
 7.7900390625 -0.009765625 l 1
 0.2900390625 -0.009765625 l 1
 0.2900390625 7.490234375 l 1
 0.2900390625 13.599609375 l 2
 0.2900390625 21.3994140625 6.3701171875 28.759765625 15.2802734375 28.759765625 c 2
 30.599609375 28.759765625 l 2
 47.2314453125 28.759765625 69.3203125 36.908203125 69.3203125 80.2529296875 c 2
 69.3203125 537.900390625 l 2
 69.3203125 582.618164062 47.2373046875 590.91015625 30.599609375 590.91015625 c 2
 15.2802734375 590.91015625 l 2
 6.369140625 590.91015625 0.2900390625 598.271484375 0.2900390625 606.0703125 c 2
 0.2900390625 612.1796875 l 1
 0.2900390625 619.6796875 l 1
 7.7900390625 619.6796875 l 1
 141.280273438 619.6796875 l 1
 148.780273438 619.6796875 l 1
 148.780273438 612.1796875 l 1x7c
318.26953125 202.290039062 m 0
 318.26953125 313.69921875 291.366210938 382.08984375 236.889648438 382.08984375 c 0
 206.654296875 382.08984375 172.899414062 361.416015625 148.790039062 326.485351562 c 1
 148.790039062 100.63671875 l 1
 170.611328125 63.1240234375 200.103515625 34.1103515625 233.530273438 34.1103515625 c 0
 285.122070312 34.1103515625 318.26953125 111.009765625 318.26953125 202.290039062 c 0
EndSplineSet
EndChar

StartChar: c
Encoding: 99 99 48
Width: 469
Flags: MW
HStem: -16.0098 34.1602 400.07 33.6992
VStem: 0.44043 82.3398 303.15 85.0996
LayerCount: 2
Fore
SplineSet
369.029296875 378.912109375 m 0
 382.237304688 363.725585938 388.25 351.650390625 388.25 334.01953125 c 0
 388.25 310.51953125 369.200195312 291.469726562 345.700195312 291.469726562 c 0
 322.19921875 291.469726562 303.150390625 310.51953125 303.150390625 334.01953125 c 0
 303.150390625 344.205078125 307.471679688 354.088867188 312.447265625 360.426757812 c 1
 303.90234375 372.662109375 295.544921875 380.134765625 285.678710938 386.177734375 c 0
 267.778320312 397.12890625 244.34375 400.358398438 226.279296875 400.0703125 c 0
 117.314453125 400.0703125 82.7802734375 288.301757812 82.7802734375 216.64453125 c 0
 82.7802734375 122.5234375 122.973632812 18.150390625 218.849609375 18.150390625 c 0
 284.487304688 18.150390625 314.279296875 46.39453125 332.794921875 76.259765625 c 0
 340.44921875 88.611328125 349.708984375 113.774414062 351.73828125 122.659179688 c 0
 353.549804688 130.598632812 360.346679688 137.240234375 369.389648438 137.240234375 c 2
 384.059570312 137.240234375 l 1
 392.370117188 137.240234375 l 1
 391.520507812 128.973632812 l 2
 383.470703125 50.6455078125 320.975585938 -16.009765625 219.459960938 -16.009765625 c 0
 96.8603515625 -16.009765625 0.4404296875 85.3876953125 0.4404296875 216.689453125 c 0
 0.4404296875 407.490234375 162.55859375 433.76953125 224.299804688 433.76953125 c 0
 295.575195312 433.76953125 343.409179688 408.366210938 369.029296875 378.912109375 c 0
EndSplineSet
EndChar

StartChar: d
Encoding: 100 100 49
Width: 458
Flags: MW
HStem: -16.0195 50.1299 0 28.7695 382.09 51.6797 590.91 28.7695
VStem: 0.269531 79.4805 249.24 79.4795
LayerCount: 2
Fore
SplineSet
328.719726562 619.6796875 m 1xbc
 328.719726562 612.1796875 l 1
 328.719726562 80.44140625 l 2
 328.719726562 36.9404296875 350.815429688 28.76953125 367.440429688 28.76953125 c 2
 382.759765625 28.76953125 l 2
 391.669921875 28.76953125 397.75 21.41015625 397.75 13.6103515625 c 2
 397.75 7.5 l 1
 397.75 0 l 1
 390.25 0 l 1
 256.759765625 0 l 1
 249.259765625 0 l 1x7c
 249.259765625 7.5 l 1
 249.259765625 41.59765625 l 1
 227.309570312 12.2236328125 192.24609375 -16.01953125 139.879882812 -16.01953125 c 0
 25.6298828125 -16.01953125 0.26953125 96.81640625 0.26953125 202.212890625 c 0
 0.26953125 364.479492188 62.8466796875 433.216796875 134.302734375 433.76953125 c 0
 178.969726562 434.169921875 219.009765625 409.231445312 249.259765625 378.782226562 c 1
 249.259765625 537.879882812 l 2
 249.259765625 582.580078125 227.083007812 590.91015625 210.540039062 590.91015625 c 2
 195.219726562 590.91015625 l 2
 186.30859375 590.91015625 180.23046875 598.271484375 180.23046875 606.0703125 c 2
 180.23046875 612.1796875 l 1
 180.23046875 619.6796875 l 1
 187.73046875 619.6796875 l 1
 256.75 619.6796875 l 1
 321.209960938 619.6796875 l 1
 328.719726562 619.6796875 l 1xbc
164.490234375 34.1103515625 m 0xbc
 198.123046875 34.1103515625 228.1171875 64.3681640625 249.240234375 100.655273438 c 1
 249.240234375 326.485351562 l 1
 224.302734375 362.600585938 191.12890625 382.08984375 161.129882812 382.08984375 c 0
 106.650390625 382.08984375 79.75 313.702148438 79.75 202.290039062 c 0
 79.75 111 112.887695312 34.1103515625 164.490234375 34.1103515625 c 0xbc
EndSplineSet
EndChar

StartChar: e
Encoding: 101 101 50
Width: 459
Flags: MW
HStem: -16 43.6201 237.17 27.3398 396.2 37.5801
LayerCount: 2
Fore
SplineSet
22.9111328125 312.040039062 m 0
 64.220703125 406.611328125 136.190429688 433.780273438 187.870117188 433.780273438 c 0
 259.3203125 433.780273438 369.059570312 405.08984375 369.069335938 244.39453125 c 2
 369.069335938 237.169921875 l 1
 361.569335938 237.169921875 l 1
 80.44140625 237.169921875 l 1
 81.876953125 91.140625 114.305664062 27.6201171875 200.709960938 27.6201171875 c 0
 263.888671875 27.6201171875 311.203125 82.1796875 327.333984375 148.740234375 c 0
 327.8515625 150.857421875 328.290039062 153.063476562 328.696289062 155.362304688 c 0
 330.198242188 163.8125 337.494140625 170.099609375 346.19921875 170.099609375 c 2
 362.189453125 170.099609375 l 1
 370.520507812 170.099609375 l 1
 369.6484375 161.814453125 l 2
 369.086914062 156.478515625 368.307617188 151.228515625 367.379882812 146.122070312 c 0
 350.995117188 55.72265625 293.028320312 -16 199.830078125 -16 c 0
 142.51953125 -16 80.6171875 -1.845703125 35.662109375 61.6513671875 c 0
 -17.5029296875 136.7421875 -3.24609375 252.147460938 22.9111328125 312.040039062 c 0
289.794921875 264.509765625 m 1
 285.583007812 328.696289062 261.2578125 396.200195312 186.939453125 396.200195312 c 0
 138.01953125 396.200195312 89.6494140625 341.62109375 81.3984375 264.509765625 c 1
 289.794921875 264.509765625 l 1
EndSplineSet
EndChar

StartChar: f
Encoding: 102 102 51
Width: 391
Flags: MW
HStem: 0.00976562 28.7705 398.9 34.8799 598.91 35.1396
VStem: 68.9121 79.5381 238.88 85.1504
LayerCount: 2
Fore
SplineSet
321.719726562 569.19140625 m 2
 321.719726562 569.19140625 324.030273438 557.391601562 324.030273438 555.459960938 c 0
 324.030273438 531.952148438 305.0078125 512.9296875 281.5 512.9296875 c 0
 258.020507812 512.9296875 238.879882812 531.924804688 238.879882812 555.459960938 c 0
 238.879882812 562.920898438 240.9453125 569.678710938 244.041992188 575.779296875 c 1
 239.330078125 582.8984375 225.698242188 598.91015625 193.01953125 598.91015625 c 0
 155.061523438 598.91015625 148.450195312 559.408203125 148.450195312 502.099609375 c 2
 148.450195312 433.780273438 l 1
 223.830078125 433.780273438 l 1
 231.330078125 433.780273438 l 1
 231.330078125 426.280273438 l 1
 231.330078125 406.400390625 l 1
 231.330078125 398.900390625 l 1
 223.830078125 398.900390625 l 1
 148.450195312 398.900390625 l 1
 148.450195312 79.7158203125 l 2
 148.450195312 36.6533203125 169.78125 28.7802734375 187 28.7802734375 c 2
 202.41015625 28.7802734375 l 2
 210.658203125 28.7802734375 217.400390625 22.0146484375 217.400390625 13.6201171875 c 2
 217.400390625 7.509765625 l 1
 217.400390625 0.009765625 l 1
 209.900390625 0.009765625 l 1
 7.4697265625 0.009765625 l 1
 -0.0302734375 0.009765625 l 1
 -0.0302734375 7.509765625 l 1
 -0.0302734375 13.6201171875 l 2
 -0.0302734375 21.419921875 6.0498046875 28.7802734375 14.9599609375 28.7802734375 c 2
 30.2802734375 28.7802734375 l 2
 46.92578125 28.7802734375 69 36.7607421875 69 79.7138671875 c 2
 68.912109375 398.900390625 l 1
 7.4697265625 398.900390625 l 1
 -0.0302734375 398.900390625 l 1
 -0.0302734375 406.400390625 l 1
 -0.0302734375 426.280273438 l 1
 -0.0302734375 433.780273438 l 1
 7.4697265625 433.780273438 l 1
 68.91015625 433.780273438 l 1
 68.91015625 502.099609375 l 2
 68.91015625 585.811523438 105.840820312 634.049804688 190.360351562 634.049804688 c 0
 271.540039062 634.049804688 312.96484375 597.706054688 321.719726562 569.19140625 c 2
EndSplineSet
EndChar

StartChar: g
Encoding: 103 103 52
Width: 514
Flags: MW
HStem: -200 34.8496 0.168945 79.2012 116.95 34.9902 381.727 81.4883 402.26 34.7998
VStem: 24.8096 79.6309 278.53 79.5596 366.93 49.3008
LayerCount: 2
Fore
SplineSet
387.669921875 381.7265625 m 0xf7
 370.47265625 381.7265625 356.431640625 391.91015625 349.59375 405.052734375 c 1
 336.770507812 402.83203125 322.125976562 396.177734375 311.759765625 389.297851562 c 1
 327.373046875 375.231445312 358.08984375 340.166992188 358.08984375 279.63671875 c 0
 358.08984375 150.673828125 279.510742188 116.950195312 194.76953125 116.950195312 c 0
 153.98046875 116.950195312 114.35546875 124.760742188 90.0693359375 137.129882812 c 1
 69.5234375 116.828125 59.7900390625 101.987304688 59.7021484375 93.556640625 c 0
 59.6279296875 87.0458984375 67.8544921875 79.3701171875 109.809570312 79.3701171875 c 2
 254.23046875 79.3701171875 l 2
 349.7734375 79.3701171875 416.23046875 34.1806640625 416.23046875 -52.76953125 c 0
 416.23046875 -168.549804688 294.693359375 -200 202.530273438 -200 c 0
 86.6865234375 -200 -0.23046875 -174.224609375 -0.23046875 -93.259765625 c 0
 -0.23046875 -47.7109375 15.455078125 -17.8330078125 50.3740234375 5.32421875 c 1
 35.9970703125 9.3544921875 27.400390625 13.8681640625 19.74609375 20.701171875 c 0
 -20.708984375 56.818359375 25.134765625 121.530273438 60.9228515625 158.86328125 c 1
 49.96484375 173 24.8095703125 212.064453125 24.8095703125 275.42578125 c 0
 24.8095703125 380.134765625 98.9443359375 437.059570312 182.509765625 437.059570312 c 0xef
 210.139648438 437.059570312 249.896484375 427.948242188 281.626953125 410.44140625 c 1
 305.712890625 439.307617188 330.188476562 456.391601562 354.3984375 463.748046875 c 0
 378.680664062 471.802734375 398.413085938 464.877929688 402.416992188 463.21484375 c 0
 422.418945312 454.147460938 430.219726562 440.932617188 430.219726562 423.259765625 c 0
 430.219726562 400.321289062 411.170898438 381.7265625 387.669921875 381.7265625 c 0xf7
70.5029296875 -53.873046875 m 0
 67.353515625 -75.65625 66.9169921875 -103.821289062 80.3564453125 -122.309570312 c 0
 99.28515625 -148.348632812 112.171875 -165.139648438 204.51953125 -165.150390625 c 0
 290.926757812 -165.150390625 366.9296875 -115.095703125 366.9296875 -57.169921875 c 0
 366.9296875 -14.3212890625 326.14453125 -0.330078125 261.32421875 -0.330078125 c 2
 261.32421875 -0.330078125 147.526367188 0.1474609375 96.0126953125 0.1689453125 c 1
 81.0234375 -15.2607421875 73.4326171875 -33.603515625 70.5029296875 -53.873046875 c 0
104.440429688 285.993164062 m 0
 104.440429688 189.58203125 143.010742188 151.940429688 194.01953125 151.940429688 c 0
 266.709960938 151.940429688 278.540039062 217.758789062 278.530273438 273.653320312 c 0
 278.530273438 346.356445312 236.63671875 402.259765625 185.950195312 402.259765625 c 0
 134.75 402.259765625 104.440429688 354.63671875 104.440429688 285.993164062 c 0
EndSplineSet
EndChar

StartChar: h
Encoding: 104 104 53
Width: 577
Flags: MW
HStem: 0 28.7695 396.71 37.0498 590.9 28.7695
VStem: 68.7305 79.4873 369.85 79.54
LayerCount: 2
Fore
SplineSet
278.09765625 433.759765625 m 0
 350.4375 433.780273438 449.360351562 397.651367188 449.360351562 295.405273438 c 2
 449.389648438 79.876953125 l 2
 449.389648438 36.689453125 470.690429688 28.76953125 487.900390625 28.76953125 c 2
 503.309570312 28.76953125 l 2
 511.555664062 28.76953125 518.299804688 22.005859375 518.299804688 13.6103515625 c 2
 518.299804688 7.5 l 1
 518.299804688 0 l 1
 510.799804688 0 l 1
 308.360351562 0 l 1
 300.860351562 0 l 1
 300.860351562 7.5 l 1
 300.860351562 13.6103515625 l 2
 300.860351562 21.41015625 306.940429688 28.76953125 315.849609375 28.76953125 c 2
 331.169921875 28.76953125 l 2
 347.776367188 28.76953125 369.849609375 36.7724609375 369.849609375 79.69140625 c 2
 369.799804688 286.78125 l 2
 369.799804688 351.34765625 348.680664062 396.709960938 273.629882812 396.709960938 c 0
 208.44921875 396.709960938 148.209960938 349.783203125 148.209960938 295.0546875 c 2
 148.23046875 79.693359375 l 2
 148.23046875 36.6611328125 169.53125 28.76953125 186.740234375 28.76953125 c 2
 202.150390625 28.76953125 l 2
 210.397460938 28.76953125 217.139648438 22.00390625 217.139648438 13.6103515625 c 2
 217.139648438 7.5 l 1
 217.139648438 0 l 1
 209.639648438 0 l 1
 7.2099609375 0 l 1
 -0.2900390625 0 l 1
 -0.2900390625 7.5 l 1
 -0.2900390625 13.6103515625 l 2
 -0.2900390625 21.41015625 5.7900390625 28.76953125 14.7001953125 28.76953125 c 2
 30.01953125 28.76953125 l 2
 46.6259765625 28.76953125 68.7001953125 36.8583984375 68.7001953125 80.2529296875 c 2
 68.73046875 537.900390625 l 2
 68.73046875 582.529296875 46.6357421875 590.900390625 30.009765625 590.900390625 c 2
 14.6904296875 590.900390625 l 2
 5.7802734375 590.900390625 -0.2998046875 598.259765625 -0.2998046875 606.059570312 c 2
 -0.2998046875 612.169921875 l 1
 -0.2998046875 619.669921875 l 1
 7.2001953125 619.669921875 l 1
 140.700195312 619.669921875 l 1
 148.19921875 619.669921875 l 1
 148.200195312 612.170898438 l 1
 148.217773438 388.483398438 l 1
 188.549804688 426.766601562 252.173828125 433.759765625 278.09765625 433.759765625 c 0
EndSplineSet
EndChar

StartChar: i
Encoding: 105 105 54
Width: 282
Flags: MW
HStem: 0 28.7695 392.26 28.7705 530.41 103.64
VStem: 57.1797 103.641 69.29 79.5195
LayerCount: 2
Fore
SplineSet
187.3203125 28.76953125 m 2xe8
 202.73046875 28.76953125 l 2
 210.991210938 28.76953125 217.690429688 22.01171875 217.73046875 13.6279296875 c 2
 217.73046875 7.5 l 1
 217.73046875 0 l 1
 210.23046875 0 l 1
 7.7998046875 0 l 1
 0.2998046875 0 l 1
 0.2998046875 7.5 l 1
 0.2998046875 13.6103515625 l 2
 0.2998046875 21.41015625 6.3798828125 28.76953125 15.2900390625 28.76953125 c 2
 30.6103515625 28.76953125 l 2
 47.216796875 28.76953125 69.2900390625 36.7666015625 69.2900390625 79.669921875 c 2
 69.3203125 341.350585938 l 2
 69.3203125 384.212890625 47.2236328125 392.259765625 30.599609375 392.259765625 c 2
 15.2802734375 392.259765625 l 2
 6.369140625 392.259765625 0.2900390625 399.62109375 0.2900390625 407.419921875 c 2
 0.2900390625 413.530273438 l 1
 0.2900390625 421.030273438 l 1
 7.7900390625 421.030273438 l 1
 141.26953125 421.030273438 l 1
 148.768554688 421.030273438 l 1
 148.76953125 413.53125 l 1
 148.809570312 79.78125 l 2
 148.809570312 36.67578125 170.12109375 28.76953125 187.3203125 28.76953125 c 2xe8
109 530.41015625 m 0
 80.380859375 530.41015625 57.1796875 553.607421875 57.1796875 582.23046875 c 0
 57.1796875 610.848632812 80.3779296875 634.049804688 109 634.049804688 c 0
 137.619140625 634.049804688 160.8203125 610.852539062 160.8203125 582.23046875 c 0xf0
 160.8203125 553.611328125 137.623046875 530.41015625 109 530.41015625 c 0
EndSplineSet
EndChar

StartChar: j
Encoding: 106 106 55
Width: 325
Flags: MW
HStem: -200.01 35.4199 392.26 28.7705
VStem: -6.04004 85.0996 170.16 79.5801
LayerCount: 2
Fore
SplineSet
246.856445312 545.58203125 m 0
 226.620117188 525.346679688 193.811523438 525.34375 173.572265625 545.58203125 c 0
 153.336914062 565.818359375 153.333984375 598.626953125 173.572265625 618.8671875 c 0
 193.80859375 639.102539062 226.6171875 639.10546875 246.857421875 618.866210938 c 0
 267.092773438 598.629882812 267.095703125 565.821289062 246.856445312 545.58203125 c 0
116.240234375 392.259765625 m 2
 107.329101562 392.259765625 101.25 399.62109375 101.25 407.419921875 c 2
 101.25 413.530273438 l 1
 101.25 421.030273438 l 1
 108.75 421.030273438 l 1
 242.240234375 421.030273438 l 1
 249.740234375 421.030273438 l 1
 249.740234375 413.530273438 l 1
 249.740234375 -71.83984375 l 2
 249.740234375 -107.8125 247.961914062 -144.345703125 217.260742188 -169.63671875 c 0
 191.932617188 -190.513671875 161.831054688 -200.009765625 121.849609375 -200.009765625 c 0
 83.5751953125 -200.009765625 50.0673828125 -188.84765625 25.1787109375 -172.666015625 c 0
 11.5400390625 -163.791015625 -6.0400390625 -144.416015625 -6.0400390625 -121.370117188 c 0
 -6.0400390625 -97.869140625 13.009765625 -78.8203125 36.509765625 -78.8203125 c 0
 60.0107421875 -78.8203125 79.0595703125 -97.869140625 79.0595703125 -121.370117188 c 0
 79.0595703125 -130.63671875 76.1826171875 -137.661132812 74.138671875 -141.678710938 c 1
 80.5 -149.857421875 95.1005859375 -164.58984375 122.309570312 -164.58984375 c 0
 161.736328125 -164.58984375 170.16015625 -121.392578125 170.16015625 -71.828125 c 2
 170.280273438 340.91015625 l 2
 170.280273438 384.143554688 148.18359375 392.259765625 131.559570312 392.259765625 c 2
 116.240234375 392.259765625 l 2
EndSplineSet
EndChar

StartChar: k
Encoding: 107 107 56
Width: 511
Flags: MW
HStem: 0.00976562 28.7705 392.27 28.7705 590.91 28.7695
VStem: 69.5 79.5293
LayerCount: 2
Fore
SplineSet
445.08984375 28.76953125 m 2
 460.41015625 28.76953125 l 2
 468.581054688 28.76953125 475.5 22.099609375 475.48046875 13.6103515625 c 2
 475.48046875 7.5 l 1
 475.48046875 0 l 1
 467.98046875 0 l 1
 265.549804688 0 l 1
 258.049804688 0 l 1
 258.049804688 7.5 l 1
 258.049804688 13.6103515625 l 2
 258.049804688 21.41015625 264.129882812 28.76953125 273.040039062 28.76953125 c 2
 280.790039062 28.76953125 l 2
 289.033203125 28.76953125 293.012695312 30.4404296875 294.2421875 31.4404296875 c 0
 297.810546875 34.3408203125 289.900390625 51.212890625 270.391601562 73.9306640625 c 2
 152.999023438 209.396484375 l 1
 149.01953125 205.59375 l 1
 149.030273438 81.7802734375 l 2
 149.030273438 36.9951171875 170.340820312 28.7802734375 187.540039062 28.7802734375 c 2
 202.950195312 28.7802734375 l 2
 211.208984375 28.7802734375 217.940429688 22.005859375 217.940429688 13.6201171875 c 2
 217.940429688 7.509765625 l 1
 217.940429688 0.009765625 l 1
 210.440429688 0.009765625 l 1
 8.009765625 0.009765625 l 1
 0.509765625 0.009765625 l 1
 0.509765625 7.509765625 l 1
 0.509765625 13.6201171875 l 2
 0.509765625 21.4287109375 6.6015625 28.7802734375 15.5 28.7802734375 c 2
 30.8203125 28.7802734375 l 2
 47.4267578125 28.7802734375 69.5 36.8701171875 69.5 80.2626953125 c 2
 69.4501953125 537.900390625 l 2
 69.4501953125 582.624023438 47.3564453125 590.91015625 30.8203125 590.91015625 c 2
 15.5 590.91015625 l 2
 6.5888671875 590.91015625 0.509765625 598.271484375 0.509765625 606.0703125 c 2
 0.509765625 612.1796875 l 1
 0.509765625 619.6796875 l 1
 8.009765625 619.6796875 l 1
 141.5 619.6796875 l 1
 148.999023438 619.6796875 l 1
 149 612.180664062 l 1
 149.029296875 239.672851562 l 1
 253.646484375 337.530273438 l 2
 265.516601562 347.770507812 273.907226562 363.809570312 273.927734375 375.275390625 c 0
 273.944335938 384.526367188 269.921875 392.26953125 250.030273438 392.26953125 c 2
 223.610351562 392.26953125 l 2
 214.8046875 392.26953125 208.620117188 399.548828125 208.620117188 407.4296875 c 2
 208.620117188 413.540039062 l 1
 208.620117188 421.040039062 l 1
 216.120117188 421.040039062 l 1
 418.549804688 421.040039062 l 1
 426.049804688 421.040039062 l 1
 426.049804688 413.540039062 l 1
 426.049804688 407.4296875 l 2
 426.049804688 399.03515625 419.307617188 392.26953125 411.059570312 392.26953125 c 2
 395.650390625 392.26953125 l 2
 360.293945312 392.26953125 302.134765625 337.610351562 284.518554688 323.32421875 c 2
 284.518554688 323.32421875 219.3203125 263.174804688 213.104492188 257.44140625 c 1
 350.922851562 101.6171875 l 2
 365.311523438 85.666015625 425.331054688 28.76953125 445.08984375 28.76953125 c 2
EndSplineSet
EndChar

StartChar: l
Encoding: 108 108 57
Width: 260
Flags: MW
HStem: 0.00976562 28.7705 590.91 28.7695
VStem: 68.2803 79.5293
LayerCount: 2
Fore
SplineSet
29.599609375 28.7802734375 m 2
 46.2060546875 28.7802734375 68.2802734375 36.8701171875 68.2802734375 80.263671875 c 2
 68.3203125 537.900390625 l 2
 68.3203125 582.530273438 46.2236328125 590.91015625 29.599609375 590.91015625 c 2
 14.2802734375 590.91015625 l 2
 5.369140625 590.91015625 -0.7099609375 598.271484375 -0.7099609375 606.0703125 c 2
 -0.7099609375 612.1796875 l 1
 -0.7099609375 619.6796875 l 1
 6.7900390625 619.6796875 l 1
 140.26953125 619.6796875 l 1
 147.768554688 619.6796875 l 1
 147.76953125 612.180664062 l 1
 147.809570312 80.4521484375 l 2
 147.809570312 36.7890625 169.12109375 28.7802734375 186.3203125 28.7802734375 c 2
 201.73046875 28.7802734375 l 2
 209.990234375 28.7802734375 216.719726562 22.0048828125 216.719726562 13.6201171875 c 2
 216.719726562 7.509765625 l 1
 216.719726562 0.009765625 l 1
 209.219726562 0.009765625 l 1
 6.7900390625 0.009765625 l 1
 -0.7099609375 0.009765625 l 1
 -0.7099609375 7.509765625 l 1
 -0.7099609375 13.6201171875 l 2
 -0.7099609375 21.427734375 5.380859375 28.7802734375 14.2802734375 28.7802734375 c 2
 29.599609375 28.7802734375 l 2
EndSplineSet
EndChar

StartChar: m
Encoding: 109 109 58
Width: 797
Flags: MW
HStem: 0 28.7695 392.25 28.7695 394.39 39.3906
VStem: 69.8477 79.5293 347.047 79.5205 592.938 79.5195
LayerCount: 2
Fore
SplineSet
347.046875 79.689453125 m 2xbc
 346.997070312 288.608398438 l 2
 346.997070312 353.8046875 313.96484375 394.388671875 251.1875 394.379882812 c 0
 202.3359375 394.379882812 149.34765625 352.013671875 149.34765625 301.146484375 c 2
 149.376953125 79.6806640625 l 2
 149.376953125 36.66015625 170.6875 28.76953125 187.88671875 28.76953125 c 2
 203.296875 28.76953125 l 2
 211.555664062 28.76953125 218.287109375 21.99609375 218.287109375 13.6103515625 c 2
 218.287109375 7.5 l 1
 218.287109375 0 l 1
 210.787109375 0 l 1
 8.357421875 0 l 1
 0.857421875 0 l 1
 0.857421875 7.5 l 1
 0.857421875 13.6103515625 l 2
 0.857421875 21.4189453125 6.94921875 28.76953125 15.84765625 28.76953125 c 2
 31.1669921875 28.76953125 l 2
 47.7734375 28.76953125 69.84765625 36.7666015625 69.84765625 79.669921875 c 2
 69.876953125 341.340820312 l 2
 69.876953125 384.203125 47.78125 392.25 31.1572265625 392.25 c 2
 15.8369140625 392.25 l 2
 6.92578125 392.25 0.84765625 399.611328125 0.84765625 407.41015625 c 2
 0.84765625 413.51953125 l 1
 0.84765625 421.01953125 l 1
 8.34765625 421.01953125 l 1
 141.807617188 421.01953125 l 1
 149.305664062 421.01953125 l 1xdc
 149.307617188 413.521484375 l 1
 149.313476562 382.100585938 l 1
 185.875976562 416.106445312 226.153320312 433.780273438 266.926757812 433.780273438 c 0
 312.952148438 433.780273438 363.8828125 406.97265625 404.211914062 359.0859375 c 1
 437.59765625 409.704101562 485.274414062 433.780273438 530.787109375 433.780273438 c 0
 575.435546875 433.780273438 633.471679688 403.48828125 659.861328125 345.15234375 c 0
 666.764648438 329.8984375 672.407226562 300.203125 672.407226562 279.689453125 c 2
 672.45703125 79.876953125 l 2
 672.45703125 36.6904296875 693.767578125 28.76953125 710.966796875 28.76953125 c 2
 726.376953125 28.76953125 l 2
 734.634765625 28.76953125 741.3671875 21.9970703125 741.3671875 13.6103515625 c 2
 741.3671875 7.5 l 1
 741.3671875 0 l 1
 733.8671875 0 l 1
 531.4375 0 l 1
 523.9375 0 l 1
 523.9375 7.5 l 1
 523.9375 13.6103515625 l 2
 523.9375 21.4189453125 530.028320312 28.76953125 538.926757812 28.76953125 c 2
 554.247070312 28.76953125 l 2
 570.864257812 28.76953125 592.9375 36.7705078125 592.9375 79.6787109375 c 2
 592.88671875 278.725585938 l 2
 592.88671875 364.172851562 562.455078125 394.389648438 523.237304688 394.389648438 c 0
 475.444335938 394.389648438 426.517578125 359.719726562 426.517578125 295.393554688 c 2
 426.567382812 79.69140625 l 2
 426.567382812 36.6708984375 447.877929688 28.7802734375 465.077148438 28.7802734375 c 2
 480.487304688 28.7802734375 l 2
 488.74609375 28.7802734375 495.477539062 22.005859375 495.477539062 13.6201171875 c 2
 495.477539062 7.509765625 l 1
 495.477539062 0.009765625 l 1
 487.977539062 0.009765625 l 1
 285.546875 0.009765625 l 1
 278.046875 0.009765625 l 1
 278.046875 7.509765625 l 1
 278.046875 13.6201171875 l 2
 278.046875 21.419921875 284.126953125 28.7802734375 293.037109375 28.7802734375 c 2
 308.357421875 28.7802734375 l 2
 324.96484375 28.7802734375 347.046875 36.7822265625 347.046875 79.689453125 c 2xbc
EndSplineSet
EndChar

StartChar: n
Encoding: 110 110 59
Width: 540
Flags: MW
HStem: 0.00976562 28.7705 392.26 28.7705 396.61 37.1592
VStem: 68.9102 79.4395 331.63 79.5605
LayerCount: 2
Fore
SplineSet
465.150390625 28.76953125 m 2xb8
 473.403320312 28.76953125 480.120117188 21.9873046875 480.120117188 13.6103515625 c 2
 480.120117188 7.5 l 1
 480.120117188 0 l 1
 472.620117188 0 l 1
 270.200195312 0 l 1
 262.700195312 0 l 1
 262.700195312 7.5 l 1
 262.700195312 13.6103515625 l 2
 262.700195312 21.41015625 268.780273438 28.76953125 277.690429688 28.76953125 c 2
 293 28.76953125 l 2
 309.544921875 28.76953125 331.629882812 36.7421875 331.629882812 79.693359375 c 2
 331.629882812 291.813476562 l 2
 331.629882812 357.430664062 302.546875 396.610351562 239.990234375 396.610351562 c 0xb8
 191.666015625 396.610351562 148.349609375 356.100585938 148.349609375 304.380859375 c 2
 148.349609375 79.7041015625 l 2
 148.349609375 36.7255859375 169.692382812 28.7802734375 186.900390625 28.7802734375 c 2
 202.309570312 28.7802734375 l 2
 210.557617188 28.7802734375 217.299804688 22.0146484375 217.299804688 13.6201171875 c 2
 217.299804688 7.509765625 l 1
 217.299804688 0.009765625 l 1
 209.799804688 0.009765625 l 1
 7.3798828125 0.009765625 l 1
 -0.1201171875 0.009765625 l 1
 -0.1201171875 7.509765625 l 1
 -0.1201171875 13.6201171875 l 2
 -0.1201171875 21.4189453125 5.958984375 28.7802734375 14.8701171875 28.7802734375 c 2
 30.1904296875 28.7802734375 l 2
 46.822265625 28.7802734375 68.91015625 36.8369140625 68.91015625 79.6796875 c 2
 68.91015625 341.360351562 l 2
 68.91015625 384.221679688 46.8154296875 392.259765625 30.1904296875 392.259765625 c 2
 14.8701171875 392.259765625 l 2
 5.958984375 392.259765625 -0.1201171875 399.62109375 -0.1201171875 407.419921875 c 2
 -0.1201171875 413.530273438 l 1
 -0.1201171875 421.030273438 l 1
 7.3798828125 421.030273438 l 1
 140.870117188 421.030273438 l 1
 148.370117188 421.030273438 l 1xd8
 148.370117188 413.530273438 l 1
 148.370117188 385.577148438 l 1
 183.608398438 419.205078125 215.229492188 433.76953125 255.759765625 433.76953125 c 0
 303.12890625 433.76953125 411.190429688 407.299804688 411.190429688 273.669921875 c 2
 411.190429688 79.876953125 l 2
 411.190429688 36.6708984375 432.53125 28.76953125 449.740234375 28.76953125 c 2
 465.150390625 28.76953125 l 2xb8
EndSplineSet
EndChar

StartChar: o
Encoding: 111 111 60
Width: 492
Flags: MW
HStem: -16 34.8496 405.18 28.6006
VStem: 0.650391 79.3994 310.46 78.9004
LayerCount: 2
Fore
SplineSet
0.650390625 217.192382812 m 0
 0.650390625 309.845703125 55.5 433.780273438 195.26953125 433.780273438 c 0
 316.201171875 433.780273438 389.349609375 344.516601562 389.360351562 217.192382812 c 0
 389.360351562 122.270507812 344.688476562 -16 190.23046875 -16 c 0
 55.3232421875 -16 0.650390625 110.232421875 0.650390625 217.192382812 c 0
193.790039062 405.1796875 m 0
 118.103515625 405.1796875 80.0498046875 307.857421875 80.0498046875 215.54296875 c 0
 80.0498046875 115.146484375 124.950195312 18.849609375 201.169921875 18.849609375 c 0
 256.223632812 18.849609375 310.459960938 114.017578125 310.459960938 215.54296875 c 0
 310.459960938 320.083984375 267.124023438 405.1796875 193.790039062 405.1796875 c 0
EndSplineSet
EndChar

StartChar: p
Encoding: 112 112 61
Width: 526
Flags: MW
HStem: -200 28.7695 -16.0098 47.8701 382.1 51.6807 392.25 28.7695
VStem: 68.6904 79.5098 364.25 80.0596
LayerCount: 2
Fore
SplineSet
252.709960938 433.780273438 m 0xec
 349.184570312 433.780273438 444.309570312 369.5625 444.309570312 194.31640625 c 0
 444.309570312 57.2705078125 340.865234375 -16.009765625 249.740234375 -16.009765625 c 0
 204.291992188 -16.009765625 171.501953125 -3.056640625 148.2109375 19.9521484375 c 1
 148.219726562 -118.23046875 l 2
 148.219726562 -163.015625 169.53125 -171.23046875 186.73046875 -171.23046875 c 2
 202.139648438 -171.23046875 l 2
 210.3984375 -171.23046875 217.129882812 -178.00390625 217.129882812 -186.389648438 c 2
 217.129882812 -192.5 l 1
 217.129882812 -200 l 1
 209.629882812 -200 l 1
 7.2001953125 -200 l 1
 -0.2998046875 -200 l 1
 -0.2998046875 -192.5 l 1
 -0.2998046875 -186.389648438 l 2
 -0.2998046875 -178.58984375 5.7802734375 -171.23046875 14.6904296875 -171.23046875 c 2
 30.009765625 -171.23046875 l 2
 46.6162109375 -171.23046875 68.6904296875 -162.903320312 68.6904296875 -118.23046875 c 2
 68.7197265625 340.752929688 l 2
 68.7197265625 384.110351562 46.6240234375 392.25 30 392.25 c 2
 14.6796875 392.25 l 2
 5.7685546875 392.25 -0.3095703125 399.611328125 -0.3095703125 407.41015625 c 2
 -0.3095703125 413.51953125 l 1
 -0.3095703125 421.01953125 l 1
 7.1904296875 421.01953125 l 1
 140.6796875 421.01953125 l 1
 148.1796875 421.01953125 l 1xdc
 148.1796875 413.51953125 l 1
 148.1796875 394.188476562 l 1
 180.21484375 423.666992188 217.59375 433.780273438 252.709960938 433.780273438 c 0xec
248.280273438 31.8603515625 m 0
 298.051757812 31.8603515625 364.25 52.5126953125 364.25 194.370117188 c 0
 364.25 285.016601562 340.203125 382.090820312 251.860351562 382.099609375 c 0xec
 194.470703125 382.099609375 173.955078125 369.827148438 148.1796875 344.330078125 c 1
 148.200195312 73.375 l 1
 170.8984375 45.37890625 202.45703125 31.8603515625 248.280273438 31.8603515625 c 0
EndSplineSet
EndChar

StartChar: q
Encoding: 113 113 62
Width: 497
Flags: MW
HStem: -200 28.7695 -16.0098 47.8594 382.09 51.6904 392.25 28.7695
VStem: 0.69043 80.0596 296.8 79.5205
LayerCount: 2
Fore
SplineSet
296.7890625 19.9521484375 m 1xdc
 272.58984375 -3.9541015625 240.314453125 -16.009765625 195.259765625 -16.009765625 c 0
 104.134765625 -16.009765625 0.6904296875 57.267578125 0.6904296875 194.31640625 c 0
 0.6904296875 369.55859375 95.7998046875 433.780273438 192.290039062 433.780273438 c 0xec
 227.634765625 433.780273438 265.903320312 422.633789062 296.8203125 394.185546875 c 1
 296.8203125 413.51953125 l 1
 296.8203125 421.01953125 l 1
 304.3203125 421.01953125 l 1
 437.8203125 421.01953125 l 1
 445.3203125 421.01953125 l 1
 445.3203125 413.51953125 l 1
 445.3203125 407.41015625 l 2
 445.3203125 399.610351562 439.240234375 392.25 430.330078125 392.25 c 2
 415.009765625 392.25 l 2
 398.37890625 392.25 376.290039062 384.1015625 376.290039062 340.75390625 c 2
 376.3203125 -118.23046875 l 2
 376.3203125 -162.912109375 398.401367188 -171.23046875 415 -171.23046875 c 2
 430.309570312 -171.23046875 l 2
 439.219726562 -171.23046875 445.299804688 -178.58984375 445.299804688 -186.389648438 c 2
 445.299804688 -192.5 l 1
 445.299804688 -200 l 1
 437.799804688 -200 l 1
 235.370117188 -200 l 1
 227.870117188 -200 l 1
 227.870117188 -192.5 l 1
 227.870117188 -186.389648438 l 2
 227.870117188 -177.994140625 234.614257812 -171.23046875 242.860351562 -171.23046875 c 2
 258.26953125 -171.23046875 l 2
 275.479492188 -171.23046875 296.780273438 -163.017578125 296.780273438 -118.23046875 c 2
 296.7890625 19.9521484375 l 1xdc
296.8203125 344.3203125 m 1
 270.212890625 370.639648438 250.256835938 382.08984375 193.139648438 382.08984375 c 0
 104.794921875 382.08984375 80.75 285.017578125 80.75 194.360351562 c 0
 80.75 52.501953125 146.948242188 31.849609375 196.719726562 31.849609375 c 0
 242.897460938 31.849609375 274.848632812 46.298828125 296.799804688 73.3662109375 c 1
 296.8203125 344.3203125 l 1
EndSplineSet
EndChar

StartChar: r
Encoding: 114 114 63
Width: 425
Flags: MW
HStem: 0.00976562 28.7705 344.91 88.8701 392.26 28.7705
VStem: 68.3604 79.54
LayerCount: 2
Fore
SplineSet
261.049804688 376.748046875 m 1xd0
 222.83203125 380.267578125 179.771484375 344.064453125 147.879882812 263.763671875 c 1
 147.900390625 79.3798828125 l 2
 147.900390625 36.6220703125 169.201171875 28.7802734375 186.41015625 28.7802734375 c 2
 201.8203125 28.7802734375 l 2
 210.069335938 28.7802734375 216.809570312 22.0126953125 216.809570312 13.6201171875 c 2
 216.809570312 7.509765625 l 1
 216.809570312 0.009765625 l 1
 209.309570312 0.009765625 l 1
 6.8701171875 0.009765625 l 1
 -0.6298828125 0.009765625 l 1
 -0.6298828125 7.509765625 l 1
 -0.6298828125 13.6201171875 l 2
 -0.6298828125 21.4189453125 5.44921875 28.7802734375 14.3603515625 28.7802734375 c 2
 29.6796875 28.7802734375 l 2
 46.2861328125 28.7802734375 68.3603515625 36.77734375 68.3603515625 79.6806640625 c 2
 68.3896484375 341.350585938 l 2
 68.3896484375 384.212890625 46.2939453125 392.259765625 29.669921875 392.259765625 c 2
 14.349609375 392.259765625 l 2
 5.4501953125 392.259765625 -0.6396484375 399.612304688 -0.6396484375 407.419921875 c 2
 -0.6396484375 413.530273438 l 1
 -0.6396484375 421.030273438 l 1
 6.8603515625 421.030273438 l 1
 140.349609375 421.030273438 l 1
 147.848632812 421.030273438 l 1xb0
 147.849609375 413.53125 l 1
 147.857421875 337.893554688 l 1
 174.583984375 384.987304688 218.981445312 433.780273438 288.870117188 433.780273438 c 0
 298.262695312 433.780273438 313 433 326 423 c 0
 337 414 344.610351562 406 344.610351562 387.459960938 c 0
 344.610351562 363.958984375 325.560546875 344.91015625 302.059570312 344.91015625 c 0
 281.737304688 344.91015625 265.818359375 359.263671875 261.049804688 376.748046875 c 1xd0
EndSplineSet
EndChar

StartChar: s
Encoding: 115 115 64
Width: 349
Flags: MW
HStem: -15.9902 34.8506 398.93 34.8506
VStem: 14.8496 61.2207 236.14 57.8408 238.077 33.2051
LayerCount: 2
Fore
SplineSet
238.077148438 320.866210938 m 0xe8
 237.912109375 324.80078125 237.702148438 332.635742188 237.241210938 335.075195312 c 0
 228.580078125 380.720703125 190.885742188 398.919921875 146.98046875 398.9296875 c 0
 103.87109375 398.9296875 76.0703125 372.974609375 76.0703125 333.659179688 c 0
 76.0703125 295.052734375 91.689453125 272.528320312 159.05859375 253.087890625 c 0
 262.423828125 223.266601562 293.98046875 183.668945312 293.98046875 104.446289062 c 0
 293.98046875 23.4033203125 224.916992188 -15.990234375 153.610351562 -15.990234375 c 0
 87.0537109375 -15.990234375 38.685546875 21.705078125 10.7529296875 70.1328125 c 2
 10.158203125 71.1630859375 l 1
 9.912109375 72.328125 l 2
 1.3828125 112.649414062 -0.0029296875 146.67578125 -0.0126953125 146.913085938 c 2
 -0.3212890625 154.196289062 l 1
 6.9501953125 154.711914062 l 1
 6.9501953125 154.711914062 21.23828125 155.724609375 23.3515625 155.904296875 c 0
 31.0625 156.541992188 39.021484375 151.168945312 39.708984375 142.17578125 c 0
 40 138.334960938 40.5224609375 130.60546875 40.9541015625 127.325195312 c 0
 47.46484375 78.1796875 95.6806640625 18.8603515625 157.030273438 18.8603515625 c 0
 193.58203125 18.8603515625 236.139648438 47.328125 236.139648438 101.685546875 c 0xf0
 236.139648438 147.505859375 208.399414062 161.3046875 135.060546875 184.216796875 c 0
 42.2451171875 213.205078125 14.849609375 265.640625 14.849609375 331.12109375 c 0
 14.849609375 388.516601562 74.3232421875 433.780273438 150.25 433.780273438 c 0
 204.80078125 433.780273438 228.279296875 420.989257812 259.008789062 394.666015625 c 2
 260.364257812 393.504882812 l 1
 261.051757812 391.858398438 l 2
 272.419921875 364.614257812 271.352539062 315.592773438 271.349609375 315.313476562 c 2
 271.282226562 308.723632812 l 1
 264.73828125 307.942382812 l 2
 264.731445312 307.94140625 256.797851562 306.994140625 254.526367188 306.73828125 c 0
 246.11328125 305.782226562 238.44921875 312.0703125 238.077148438 320.866210938 c 0xe8
EndSplineSet
EndChar

StartChar: t
Encoding: 116 116 65
Width: 327
Flags: MW
HStem: -15.9297 41.6992 398.99 34.8799
VStem: 74.0898 79.71 125.06 28.7705
LayerCount: 2
Fore
SplineSet
153.829101562 398.990234375 m 1xd0
 153.799804688 135.143554688 l 2
 153.799804688 58.732421875 172.21875 25.76953125 197.16015625 25.76953125 c 0
 235.224609375 25.76953125 245.91796875 43.8427734375 252.337890625 71.3447265625 c 0
 253.01171875 74.2119140625 253.293945312 75.9375 253.740234375 78.27734375 c 0
 255.189453125 86.7197265625 262.634765625 92.9697265625 271.26953125 92.9697265625 c 2
 287.219726562 92.9697265625 l 1
 294.719726562 92.9697265625 l 1
 294.719726562 85.4697265625 l 2
 294.719726562 33.7177734375 267.700195312 -15.9296875 198.83984375 -15.9296875 c 0
 152.33203125 -15.9296875 121.291992188 -4.0478515625 96.2568359375 31.1640625 c 0
 70.0341796875 68.0419921875 74.08984375 114.852539062 74.08984375 181.999023438 c 2xe0
 74.2060546875 398.98046875 l 1
 6.8095703125 398.98046875 l 1
 -0.6904296875 398.98046875 l 1
 -0.6904296875 406.48046875 l 1
 -0.6904296875 412.58984375 l 2
 -0.6904296875 420.975585938 6.041015625 427.75 14.2998046875 427.75 c 2
 29.7099609375 427.75 l 2
 74.7275390625 427.75 125.059570312 450.361328125 125.059570312 508.040039062 c 2
 125.059570312 523.360351562 l 2
 125.059570312 532.271484375 132.420898438 538.349609375 140.219726562 538.349609375 c 2
 146.330078125 538.349609375 l 1
 153.830078125 538.349609375 l 1
 153.830078125 530.849609375 l 1
 153.830078125 433.870117188 l 1
 246.169921875 433.870117188 l 1
 253.669921875 433.870117188 l 1
 253.669921875 426.370117188 l 1
 253.669921875 406.490234375 l 1
 253.669921875 398.990234375 l 1
 246.169921875 398.990234375 l 1
 153.829101562 398.990234375 l 1xd0
EndSplineSet
EndChar

StartChar: u
Encoding: 117 117 66
Width: 543
Flags: MW
HStem: -12.7197 37.1699 0.0195312 28.7705 392.28 28.7695
VStem: 68.8203 79.5498 331.64 79.46
LayerCount: 2
Fore
SplineSet
465.139648438 28.7900390625 m 2x78
 474.05078125 28.7900390625 480.129882812 21.4287109375 480.129882812 13.6298828125 c 2
 480.129882812 7.51953125 l 1
 480.129882812 0.01953125 l 1
 472.629882812 0.01953125 l 1
 339.139648438 0.01953125 l 1
 331.639648438 0.01953125 l 1x78
 331.639648438 7.51953125 l 1
 331.639648438 35.462890625 l 1
 296.401367188 1.8359375 264.779296875 -12.7197265625 224.25 -12.7197265625 c 0
 176.881835938 -12.7197265625 68.8203125 13.740234375 68.8203125 147.379882812 c 2
 68.8203125 341.172851562 l 2
 68.8203125 384.37890625 47.478515625 392.280273438 30.26953125 392.280273438 c 2
 14.8701171875 392.280273438 l 2
 6.6123046875 392.280273438 -0.1201171875 399.053710938 -0.1201171875 407.440429688 c 2
 -0.1201171875 413.549804688 l 1
 -0.1201171875 421.049804688 l 1
 7.3798828125 421.049804688 l 1
 140.870117188 421.049804688 l 1
 148.370117188 421.049804688 l 1
 148.370117188 413.549804688 l 1
 148.370117188 129.470703125 l 2
 148.370117188 63.7138671875 177.453125 24.4501953125 240 24.4501953125 c 0xb8
 288.333007812 24.4501953125 331.639648438 64.958984375 331.639648438 116.6796875 c 2
 331.639648438 341.356445312 l 2
 331.639648438 384.333984375 310.287109375 392.280273438 293.08984375 392.280273438 c 2
 277.690429688 392.280273438 l 2
 269.430664062 392.280273438 262.700195312 399.0546875 262.700195312 407.440429688 c 2
 262.700195312 413.549804688 l 1
 262.700195312 421.049804688 l 1
 270.200195312 421.049804688 l 1
 403.599609375 421.049804688 l 1
 411.099609375 421.049804688 l 1
 411.099609375 413.549804688 l 1
 411.099609375 79.8017578125 l 2
 411.099609375 36.845703125 433.194335938 28.7900390625 449.8203125 28.7900390625 c 2
 465.139648438 28.7900390625 l 2x78
EndSplineSet
EndChar

StartChar: v
Encoding: 118 118 67
Width: 530
Flags: MW
HStem: 392.23 28.7695
LayerCount: 2
Fore
SplineSet
224.461914062 -16.0400390625 m 1
 222.600585938 -11.26171875 l 1
 82.7451171875 335.029296875 l 2
 74.2333984375 355.481445312 56.6005859375 392.23046875 29.51953125 392.23046875 c 2
 14.2001953125 392.23046875 l 2
 6.029296875 392.23046875 -0.8701171875 398.888671875 -0.8701171875 407.389648438 c 2
 -0.8701171875 413.5 l 1
 -0.8701171875 421 l 1
 6.6298828125 421 l 1
 209.059570312 421 l 1
 216.559570312 421 l 1
 216.559570312 413.5 l 1
 216.559570312 407.389648438 l 2
 216.559570312 399.58984375 210.479492188 392.23046875 201.5703125 392.23046875 c 2
 193.8203125 392.23046875 l 2
 187.62109375 392.23046875 182.704101562 391.278320312 178.84375 389.7578125 c 0
 161.79296875 383.041015625 159.021484375 360.502929688 168.877929688 335.595703125 c 2
 276.077148438 68.1572265625 l 1
 355.864257812 337.33984375 l 2
 357.95703125 344.3359375 359.111328125 351.279296875 359.166015625 357.638671875 c 0
 359.337890625 377.348632812 350.505859375 392.23046875 320.849609375 392.23046875 c 2
 294.4296875 392.23046875 l 2
 285.625976562 392.23046875 279.440429688 399.5078125 279.440429688 407.389648438 c 2
 279.440429688 413.5 l 1
 279.440429688 421 l 1
 286.940429688 421 l 1
 489.370117188 421 l 1
 496.870117188 421 l 1
 496.870117188 413.5 l 1
 496.870117188 407.389648438 l 2
 496.870117188 399.002929688 490.137695312 392.23046875 481.879882812 392.23046875 c 2
 466.469726562 392.23046875 l 2
 411.849609375 392.23046875 398.197265625 358.276367188 392.048828125 339.203125 c 2
 285.234375 -10.658203125 l 1
 283.650390625 -16.0400390625 l 1
 278.040039062 -16.0400390625 l 1
 229.58984375 -16.0400390625 l 1
 224.461914062 -16.0400390625 l 1
EndSplineSet
EndChar

StartChar: w
Encoding: 119 119 68
Width: 778
Flags: MW
HStem: 392.27 28.7705
LayerCount: 2
Fore
SplineSet
169.6484375 335.581054688 m 2
 276.854492188 68.154296875 l 1
 356.798828125 338.120117188 l 1
 362.926757812 358.811523438 l 1
 370.952148438 338.779296875 l 1
 479.37890625 68.15625 l 1
 559.146484375 337.364257812 l 2
 561.240234375 344.344726562 562.390625 351.279296875 562.442382812 357.634765625 c 0
 562.600585938 377.336914062 553.724609375 392.259765625 524.0703125 392.259765625 c 2
 497.650390625 392.259765625 l 2
 488.844726562 392.259765625 482.66015625 399.5390625 482.66015625 407.419921875 c 2
 482.66015625 413.530273438 l 1
 482.66015625 421.030273438 l 1
 490.16015625 421.030273438 l 1
 692.58984375 421.030273438 l 1
 700.08984375 421.030273438 l 1
 700.08984375 413.530273438 l 1
 700.08984375 407.419921875 l 2
 700.08984375 399.03515625 693.360351562 392.259765625 685.099609375 392.259765625 c 2
 669.690429688 392.259765625 l 2
 615.119140625 392.259765625 601.4453125 358.322265625 595.278320312 339.23046875 c 2
 488.495117188 -10.626953125 l 1
 486.911132812 -16.009765625 l 1
 481.299804688 -16.009765625 l 1
 432.83984375 -16.009765625 l 1
 427.711914062 -16.009765625 l 1
 425.850585938 -11.2314453125 l 1
 346.12890625 193.51953125 l 1
 286.065429688 -10.626953125 l 1
 284.481445312 -16.009765625 l 1
 278.870117188 -16.009765625 l 1
 230.41015625 -16.009765625 l 1
 225.282226562 -16.009765625 l 1
 223.420898438 -11.2314453125 l 1
 83.5751953125 335.01953125 l 2
 75.04296875 355.500976562 57.4013671875 392.26953125 30.2998046875 392.26953125 c 2
 14.98046875 392.26953125 l 2
 6.80859375 392.26953125 -0.08984375 398.9296875 -0.08984375 407.4296875 c 2
 -0.08984375 413.540039062 l 1
 -0.08984375 421.040039062 l 1
 7.41015625 421.040039062 l 1
 209.849609375 421.040039062 l 1
 217.349609375 421.040039062 l 1
 217.349609375 413.540039062 l 1
 217.349609375 407.4296875 l 2
 217.349609375 399.630859375 211.271484375 392.26953125 202.360351562 392.26953125 c 2
 194.610351562 392.26953125 l 2
 188.724609375 392.26953125 183.994140625 391.409179688 180.229492188 390.018554688 c 0
 162.603515625 383.5078125 159.717773438 360.759765625 169.6484375 335.581054688 c 2
EndSplineSet
EndChar

StartChar: x
Encoding: 120 120 69
Width: 602
Flags: MW
HStem: 0 28.7695 392.27 28.7705
LayerCount: 2
Fore
SplineSet
509.919921875 28.76953125 m 2
 525.240234375 28.76953125 l 2
 533.416992188 28.76953125 540.309570312 22.1015625 540.309570312 13.599609375 c 2
 540.309570312 7.490234375 l 1
 540.309570312 -0.009765625 l 1
 532.809570312 -0.009765625 l 1
 330.379882812 -0.009765625 l 1
 322.879882812 -0.009765625 l 1
 322.879882812 7.490234375 l 1
 322.879882812 13.599609375 l 2
 322.879882812 21.3994140625 328.959960938 28.759765625 337.870117188 28.759765625 c 2
 345.620117188 28.759765625 l 2
 353.318359375 28.759765625 357.440429688 30.1982421875 359.017578125 31.291015625 c 0
 363.756835938 34.576171875 356.016601562 51.1767578125 338.155273438 76.17578125 c 2
 254.317382812 192.552734375 l 1
 166.4921875 82.759765625 l 2
 156.379882812 70.142578125 147.849609375 54.3720703125 147.6796875 44.2021484375 c 0
 147.551757812 36.48046875 150.724609375 28.76953125 175.700195312 28.76953125 c 2
 202.120117188 28.76953125 l 2
 210.923828125 28.76953125 217.110351562 21.4931640625 217.110351562 13.6103515625 c 2
 217.110351562 7.5 l 1
 217.110351562 0 l 1
 209.610351562 0 l 1
 7.1796875 0 l 1
 -0.3203125 0 l 1
 -0.3203125 7.5 l 1
 -0.3203125 13.6103515625 l 2
 -0.3203125 22.005859375 6.423828125 28.76953125 14.669921875 28.76953125 c 2
 30.080078125 28.76953125 l 2
 76.3662109375 28.76953125 118.3046875 75.4912109375 132.071289062 91.708984375 c 2
 231.772460938 212.78515625 l 1
 149.881835938 324.369140625 l 2
 136.834960938 341.763671875 96.6044921875 392.26953125 61.0595703125 392.26953125 c 2
 45.740234375 392.26953125 l 2
 37.568359375 392.26953125 30.669921875 398.9296875 30.669921875 407.4296875 c 2
 30.669921875 413.540039062 l 1
 30.669921875 421.040039062 l 1
 38.169921875 421.040039062 l 1
 240.610351562 421.040039062 l 1
 248.110351562 421.040039062 l 1
 248.110351562 413.540039062 l 1
 248.110351562 407.4296875 l 2
 248.110351562 399.629882812 242.030273438 392.26953125 233.120117188 392.26953125 c 2
 225.370117188 392.26953125 l 2
 217.670898438 392.26953125 213.5546875 390.830078125 211.986328125 389.741210938 c 0
 207.2578125 386.458984375 215.047851562 369.866210938 232.848632812 344.834960938 c 2
 287.524414062 268.934570312 l 1
 343.016601562 338.256835938 l 2
 353.087890625 350.8828125 361.599609375 366.657226562 361.760742188 376.830078125 c 0
 361.8828125 384.559570312 358.704101562 392.26953125 333.73046875 392.26953125 c 2
 307.309570312 392.26953125 l 2
 298.50390625 392.26953125 292.3203125 399.548828125 292.3203125 407.4296875 c 2
 292.3203125 413.540039062 l 1
 292.3203125 421.040039062 l 1
 299.8203125 421.040039062 l 1
 502.25 421.040039062 l 1
 509.75 421.040039062 l 1
 509.75 413.540039062 l 1
 509.75 407.4296875 l 2
 509.75 399.03515625 503.0078125 392.26953125 494.759765625 392.26953125 c 2
 479.349609375 392.26953125 l 2
 433.0625 392.26953125 391.125976562 345.549804688 377.357421875 329.330078125 c 2
 308.567382812 245.815429688 l 1
 421.07421875 96.7802734375 l 2
 434.169921875 79.2412109375 474.44921875 28.76953125 509.919921875 28.76953125 c 2
EndSplineSet
EndChar

StartChar: y
Encoding: 121 121 70
Width: 606
Flags: MW
HStem: -198.399 93.7295 392.27 28.7705
VStem: 5.45996 84.8965
LayerCount: 2
Fore
SplineSet
207.8125 -147.069335938 m 0
 180.784179688 -185.845703125 111.228515625 -206.140625 58.9814453125 -198.399414062 c 0
 30.0771484375 -194.12109375 5.4716796875 -173.806640625 5.4599609375 -147.219726562 c 0
 5.4599609375 -123.719726562 24.509765625 -104.669921875 48.009765625 -104.669921875 c 0
 70.521484375 -104.669921875 91.3759765625 -122.137695312 90.3564453125 -149.857421875 c 1
 113.705078125 -163.3515625 145.215820312 -155.427734375 167.463867188 -136.657226562 c 0
 185.0078125 -122.263671875 211.685546875 -59.654296875 245.697265625 23.2646484375 c 1
 92.97265625 334.145507812 l 1
 92.8720703125 334.350585938 l 1
 92.78515625 334.560546875 l 2
 84.8056640625 353.790039062 58.5712890625 392.259765625 30.9697265625 392.259765625 c 2
 15.650390625 392.259765625 l 2
 7.478515625 392.259765625 0.580078125 398.919921875 0.580078125 407.419921875 c 2
 0.580078125 413.530273438 l 1
 0.580078125 421.030273438 l 1
 8.080078125 421.030273438 l 1
 210.509765625 421.030273438 l 1
 218.009765625 421.030273438 l 1
 218.009765625 413.530273438 l 1
 218.009765625 407.419921875 l 2
 218.009765625 399.612304688 211.918945312 392.259765625 203.01953125 392.259765625 c 2
 195.26953125 392.259765625 l 2
 189.640625 392.259765625 185.334960938 391.466796875 182.1328125 390.259765625 c 0
 166.939453125 384.53515625 168.317382812 362.703125 178.778320312 336.016601562 c 2
 286.416992188 129.357421875 l 1
 375.696289062 339.794921875 l 2
 379.23046875 347.51953125 380.965820312 354.888671875 381.048828125 361.668945312 c 0
 381.254882812 378.463867188 371.969726562 392.26953125 343.400390625 392.26953125 c 2
 316.98046875 392.26953125 l 2
 308.174804688 392.26953125 301.990234375 399.548828125 301.990234375 407.4296875 c 2
 301.990234375 413.540039062 l 1
 301.990234375 421.040039062 l 1
 309.490234375 421.040039062 l 1
 511.9296875 421.040039062 l 1
 519.4296875 421.040039062 l 1
 519.4296875 413.540039062 l 1
 519.4296875 407.4296875 l 2
 519.4296875 399.044921875 512.700195312 392.26953125 504.440429688 392.26953125 c 2
 489.030273438 392.26953125 l 2
 434.696289062 392.26953125 420.860351562 355.899414062 411.561523438 336.77734375 c 0
 408.462890625 329.2265625 295.243164062 53.3037109375 252.609375 -50.4501953125 c 0
 242.485351562 -75.9140625 226.595703125 -120.122070312 207.8125 -147.069335938 c 0
EndSplineSet
EndChar

StartChar: z
Encoding: 122 122 71
Width: 412
Flags: MW
HStem: 0 34.877 386.18 34.8604
VStem: 12.75 28.7695 321.69 28.7695
LayerCount: 2
Fore
SplineSet
350.459960938 0 m 1
 342.959960938 0 l 1
 11.0400390625 0 l 1
 -2.068359375 0 l 1
 4.57421875 10.8779296875 l 1
 233.751953125 386.170898438 l 1
 94.51953125 386.1796875 l 2
 52.8212890625 386.1796875 41.51953125 345.20703125 41.51953125 325.330078125 c 2
 41.51953125 309.919921875 l 2
 41.51953125 301.662109375 34.7470703125 294.9296875 26.3603515625 294.9296875 c 2
 20.25 294.9296875 l 1
 12.75 294.9296875 l 1
 12.75 302.4296875 l 1
 12.75 413.540039062 l 1
 12.75 421.040039062 l 1
 20.25 421.040039062 l 1
 335.4296875 421.040039062 l 1
 348.59375 421.040039062 l 1
 341.880859375 410.138671875 l 1
 110.79296875 34.876953125 l 1
 268.690429688 34.849609375 l 2
 310.38671875 34.849609375 321.690429688 75.822265625 321.690429688 95.7099609375 c 2
 321.690429688 111.120117188 l 2
 321.690429688 119.377929688 328.462890625 126.110351562 336.849609375 126.110351562 c 2
 342.959960938 126.110351562 l 1
 350.459960938 126.110351562 l 1
 350.459960938 118.610351562 l 1
 350.459960938 7.5 l 1
 350.459960938 0 l 1
EndSplineSet
EndChar

StartChar: quotedblleft
Encoding: 8220 8220 72
Width: 297
Flags: MW
HStem: 494.95 94.748
VStem: 0.5 105.32 154.18 105.32
LayerCount: 2
Fore
SplineSet
69.7998046875 600.107421875 m 0
 65.330078125 598.013671875 58.1298828125 593.458007812 53.4287109375 589.698242188 c 1
 83.490234375 589.375 105.807617188 568.12109375 105.8203125 542.326171875 c 0
 105.8203125 516.163085938 82.2412109375 494.950195312 53.16015625 494.950195312 c 0
 24.078125 494.950195312 0.5 516.209960938 0.5 542.431640625 c 0
 0.5 551.770507812 0.623046875 558.86328125 2.1796875 566.709960938 c 0
 3.134765625 571.528320312 4.6083984375 576.5078125 6.8203125 582.390625 c 0
 16.1064453125 606.973632812 42.6171875 618.833984375 69.5576171875 632.479492188 c 2
 76.2744140625 636.252929688 l 1
 79.865234375 629.436523438 l 2
 82.677734375 624.63671875 81.92578125 625.696289062 82.4677734375 624.754882812 c 0
 83.634765625 622.791015625 90.0390625 609.27734375 75.3525390625 602.671875 c 0
 73.923828125 601.99609375 71.69921875 601.021484375 69.7998046875 600.107421875 c 0
223.481445312 600.107421875 m 0
 219.009765625 598.013671875 211.810546875 593.458007812 207.108398438 589.69921875 c 1
 237.168945312 589.375 259.5 568.12109375 259.5 542.326171875 c 0
 259.5 516.163085938 235.921875 494.950195312 206.83984375 494.950195312 c 0
 177.758789062 494.950195312 154.1796875 516.209960938 154.1796875 542.431640625 c 0
 154.1796875 551.770507812 154.302734375 558.86328125 155.859375 566.709960938 c 0
 156.814453125 571.528320312 158.288085938 576.5078125 160.5 582.390625 c 0
 169.786132812 606.973632812 196.296875 618.833984375 223.237304688 632.479492188 c 2
 229.953125 636.251953125 l 1
 233.544921875 629.4375 l 2
 236.357421875 624.637695312 235.609375 625.689453125 236.147460938 624.754882812 c 0
 237.314453125 622.791015625 243.719726562 609.278320312 229.033203125 602.671875 c 0
 227.603515625 601.995117188 225.379882812 601.021484375 223.481445312 600.107421875 c 0
EndSplineSet
EndChar

StartChar: quotedblright
Encoding: 8221 8221 73
Width: 311
Flags: MW
HStem: 538.681 94.749
VStem: 0.724609 105.32 154.404 105.32
LayerCount: 2
Fore
SplineSet
190.424804688 528.272460938 m 0
 194.89453125 530.366210938 202.094726562 534.921875 206.795898438 538.681640625 c 1
 176.73828125 538.994140625 154.404296875 560.251953125 154.404296875 586.053710938 c 0
 154.404296875 612.216796875 177.983398438 633.4296875 207.064453125 633.4296875 c 0
 236.146484375 633.4296875 259.724609375 612.169921875 259.724609375 585.948242188 c 0
 259.724609375 576.609375 259.6015625 569.516601562 258.044921875 561.669921875 c 0
 257.08984375 556.8515625 255.616210938 551.872070312 253.404296875 545.989257812 c 0
 244.118164062 521.405273438 217.607421875 509.546875 190.666992188 495.901367188 c 2
 183.951171875 492.12890625 l 1
 180.359375 498.943359375 l 2
 177.546875 503.744140625 178.298828125 502.68359375 177.7578125 503.624023438 c 0
 176.58984375 505.58984375 170.185546875 519.102539062 184.872070312 525.708007812 c 0
 186.30078125 526.383789062 188.525390625 527.358398438 190.424804688 528.272460938 c 0
36.7431640625 528.272460938 m 0
 41.2138671875 530.366210938 48.4140625 534.921875 53.1162109375 538.680664062 c 1
 23.05859375 538.994140625 0.724609375 560.251953125 0.724609375 586.053710938 c 0
 0.724609375 612.216796875 24.302734375 633.4296875 53.384765625 633.4296875 c 0
 82.4658203125 633.4296875 106.044921875 612.169921875 106.044921875 585.948242188 c 0
 106.044921875 576.609375 105.921875 569.516601562 104.365234375 561.669921875 c 0
 103.41015625 556.8515625 101.936523438 551.872070312 99.724609375 545.989257812 c 0
 90.4384765625 521.405273438 63.927734375 509.546875 36.9873046875 495.901367188 c 2
 30.2724609375 492.12890625 l 1
 26.6796875 498.942382812 l 2
 23.8671875 503.7421875 24.6162109375 502.690429688 24.078125 503.624023438 c 0
 22.91015625 505.588867188 16.5048828125 519.1015625 31.19140625 525.708007812 c 0
 32.62109375 526.384765625 34.8447265625 527.358398438 36.7431640625 528.272460938 c 0
EndSplineSet
EndChar

StartChar: emdash
Encoding: 8212 8212 74
Width: 848
Flags: MW
HStem: 168.72 79.6104
LayerCount: 2
Fore
SplineSet
602.599609375 168.719726562 m 1
 595.099609375 168.719726562 l 1
 8.3896484375 168.719726562 l 2
 3.740234375 168.719726562 0 172.48046875 0 177.110351562 c 2
 0 240.830078125 l 1
 0 248.330078125 l 1
 7.5 248.330078125 l 1
 594.209960938 248.330078125 l 2
 598.85546875 248.330078125 602.599609375 244.576171875 602.599609375 239.940429688 c 2
 602.599609375 176.219726562 l 1
 602.599609375 168.719726562 l 1
EndSplineSet
EndChar

StartChar: quoteleft
Encoding: 8216 8216 75
Width: 157
Flags: MW
HStem: 494.94 94.748
VStem: 0.339844 105.32
LayerCount: 2
Fore
SplineSet
69.6396484375 600.09765625 m 0
 65.169921875 598.00390625 57.9697265625 593.448242188 53.2685546875 589.688476562 c 1
 83.3271484375 589.375976562 105.66015625 568.118164062 105.66015625 542.315429688 c 0
 105.66015625 516.153320312 82.0810546875 494.940429688 53 494.940429688 c 0
 23.9189453125 494.940429688 0.33984375 516.200195312 0.33984375 542.420898438 c 0
 0.33984375 551.760742188 0.462890625 558.853515625 2.01953125 566.700195312 c 0
 2.974609375 571.518554688 4.4482421875 576.498046875 6.66015625 582.380859375 c 0
 15.9462890625 606.96484375 42.45703125 618.823242188 69.3974609375 632.46875 c 2
 76.11328125 636.241210938 l 1
 79.705078125 629.426757812 l 2
 82.517578125 624.625976562 81.7646484375 625.686523438 82.3076171875 624.745117188 c 0
 83.474609375 622.779296875 89.8798828125 609.268554688 75.1923828125 602.661132812 c 0
 73.7626953125 601.984375 71.5390625 601.01171875 69.6396484375 600.09765625 c 0
EndSplineSet
EndChar

StartChar: quoteright
Encoding: 8217 8217 76
Width: 135
Flags: MW
HStem: 538.682 94.748
VStem: -0.301758 105.32
LayerCount: 2
Fore
SplineSet
35.71875 528.272460938 m 0
 40.1884765625 530.366210938 47.388671875 534.921875 52.08984375 538.681640625 c 1
 22.03125 538.994140625 -0.3017578125 560.251953125 -0.3017578125 586.053710938 c 0
 -0.3017578125 612.216796875 23.2763671875 633.4296875 52.3583984375 633.4296875 c 0
 81.4404296875 633.4296875 105.018554688 612.169921875 105.018554688 585.948242188 c 0
 105.018554688 576.609375 104.895507812 569.516601562 103.338867188 561.669921875 c 0
 102.383789062 556.8515625 100.91015625 551.872070312 98.6982421875 545.989257812 c 0
 89.412109375 521.405273438 62.9013671875 509.546875 35.9609375 495.901367188 c 2
 29.2451171875 492.12890625 l 1
 25.6533203125 498.943359375 l 2
 22.8408203125 503.744140625 23.5927734375 502.68359375 23.0517578125 503.624023438 c 0
 21.8837890625 505.58984375 15.4794921875 519.102539062 30.1650390625 525.708007812 c 0
 31.59375 526.383789062 33.8203125 527.359375 35.71875 528.272460938 c 0
EndSplineSet
EndChar

StartChar: endash
Encoding: 8211 8211 77
Width: 449
Flags: MW
HStem: 168.72 79.6104
LayerCount: 2
Fore
SplineSet
358.33984375 168.719726562 m 1
 350.83984375 168.719726562 l 1
 10.0400390625 168.719726562 l 2
 5.390625 168.719726562 1.650390625 172.48046875 1.650390625 177.110351562 c 2
 1.650390625 240.830078125 l 1
 1.650390625 248.330078125 l 1
 9.150390625 248.330078125 l 1
 349.950195312 248.330078125 l 2
 354.595703125 248.330078125 358.33984375 244.576171875 358.33984375 239.940429688 c 2
 358.33984375 176.219726562 l 1
 358.33984375 168.719726562 l 1
EndSplineSet
EndChar

StartChar: f_i
Encoding: 64257 64257 78
Width: 485
LigCaretCntFixed: 1
Flags: MW
HStem: 0.0302734 28.7695 398.9 34.8799 598.91 35.1396
VStem: 69.1396 79.4502 287.85 91.1201 308.96 79.5303
LayerCount: 2
Fore
SplineSet
245.310546875 634.049804688 m 0xf4
 344.282226562 634.040039062 378.969726562 583.504882812 378.969726562 554.41015625 c 0
 378.969726562 529.249023438 358.572265625 508.849609375 333.41015625 508.849609375 c 0
 308.249023438 508.849609375 287.849609375 529.247070312 287.849609375 554.41015625 c 0xf8
 287.849609375 563.846679688 291.474609375 573.33203125 295.53515625 579.508789062 c 1
 288.298828125 587.482421875 274.01171875 598.91015625 246.620117188 598.91015625 c 0
 195.419921875 598.91015625 148.580078125 551.056640625 148.580078125 496 c 2
 148.580078125 433.780273438 l 1
 247.370117188 433.780273438 l 1
 357.48046875 433.780273438 l 1
 380.950195312 433.780273438 l 1
 388.44921875 433.780273438 l 1
 388.450195312 426.28125 l 1
 388.490234375 79.8720703125 l 2
 388.490234375 36.7138671875 409.79296875 28.7998046875 426.990234375 28.7998046875 c 2
 442.400390625 28.7998046875 l 2
 450.6484375 28.7998046875 457.389648438 22.0341796875 457.389648438 13.6396484375 c 2
 457.389648438 7.5302734375 l 1
 457.389648438 0.0302734375 l 1
 449.889648438 0.0302734375 l 1
 247.469726562 0.0302734375 l 1
 239.969726562 0.0302734375 l 1
 239.969726562 7.5302734375 l 1
 239.969726562 13.6396484375 l 2
 239.969726562 21.439453125 246.049804688 28.7998046875 254.959960938 28.7998046875 c 2
 270.280273438 28.7998046875 l 2
 286.88671875 28.7998046875 308.959960938 36.802734375 308.959960938 79.736328125 c 2
 308.990234375 347.96484375 l 2
 308.990234375 390.85546875 286.895507812 398.900390625 270.26953125 398.900390625 c 2
 254.870117188 398.900390625 l 1
 148.58984375 398.900390625 l 1
 148.58984375 79.7353515625 l 2
 148.58984375 36.671875 169.921875 28.7998046875 187.129882812 28.7998046875 c 2
 202.540039062 28.7998046875 l 2
 210.787109375 28.7998046875 217.530273438 22.03515625 217.530273438 13.6396484375 c 2
 217.530273438 7.5302734375 l 1
 217.530273438 0.0302734375 l 1
 210.030273438 0.0302734375 l 1
 7.6103515625 0.0302734375 l 1
 0.1103515625 0.0302734375 l 1
 0.1103515625 7.5302734375 l 1
 0.1103515625 13.6396484375 l 2
 0.1103515625 21.4384765625 6.1884765625 28.7998046875 15.099609375 28.7998046875 c 2
 30.419921875 28.7998046875 l 2
 47.06640625 28.7998046875 69.1396484375 36.7802734375 69.1396484375 79.7333984375 c 2
 69.0517578125 398.900390625 l 1
 7.6103515625 398.900390625 l 1
 0.1103515625 398.900390625 l 1
 0.1103515625 406.400390625 l 1
 0.1103515625 426.280273438 l 1
 0.1103515625 433.780273438 l 1
 7.6103515625 433.780273438 l 1
 69.0498046875 433.780273438 l 1
 69.0498046875 489.76953125 l 2
 69.0498046875 593.506835938 163.426757812 634.049804688 245.310546875 634.049804688 c 0xf4
EndSplineSet
Ligature2: "<1,2> Common Ligatures in Latin lookup 0 subtable" f i
LCarets2: 1 223
EndChar

StartChar: f_f
Encoding: 64256 64256 79
Width: 593
LigCaretCntFixed: 1
Flags: MW
HStem: 0.0302734 28.7695 398.9 34.8799 598.91 35.1396
VStem: 68.5986 79.46 303.941 79.5381 473.909 85.1406
LayerCount: 2
Fore
SplineSet
425.379882812 634.01953125 m 0
 506.559570312 634.01953125 547.6484375 598.768554688 556.403320312 570.25390625 c 0
 559.12109375 561.861328125 559.049804688 560.959960938 559.049804688 555.4296875 c 0
 559.049804688 531.919921875 540.017578125 512.899414062 516.51953125 512.899414062 c 0
 493.036132812 512.899414062 473.909179688 531.907226562 473.909179688 555.4296875 c 0
 473.909179688 562.890625 475.974609375 569.6484375 479.071289062 575.749023438 c 1
 474.359375 582.868164062 460.727539062 598.879882812 428.049804688 598.879882812 c 0
 390.090820312 598.879882812 383.479492188 559.377929688 383.479492188 502.069335938 c 2
 383.479492188 433.75 l 1
 458.859375 433.75 l 1
 466.359375 433.75 l 1
 466.359375 426.25 l 1
 466.359375 406.370117188 l 1
 466.359375 398.870117188 l 1
 458.859375 398.870117188 l 1
 383.479492188 398.870117188 l 1
 383.479492188 79.705078125 l 2
 383.479492188 36.6416015625 404.811523438 28.76953125 422.01953125 28.76953125 c 2
 437.4296875 28.76953125 l 2
 445.6875 28.76953125 452.419921875 21.99609375 452.419921875 13.609375 c 2
 452.419921875 7.5 l 1
 452.419921875 0 l 1
 444.919921875 0 l 1
 242.5 0 l 1
 235 0 l 1
 235 7.5 l 1
 235 13.609375 l 2
 235 21.408203125 241.078125 28.76953125 249.989257812 28.76953125 c 2
 265.309570312 28.76953125 l 2
 281.956054688 28.76953125 304.029296875 36.75 304.029296875 79.703125 c 2
 303.94140625 398.870117188 l 1
 242.5 398.870117188 l 1
 148.05859375 398.900390625 l 1
 148.05859375 79.7353515625 l 2
 148.05859375 36.671875 169.390625 28.7998046875 186.598632812 28.7998046875 c 2
 202.008789062 28.7998046875 l 2
 210.267578125 28.7998046875 216.998046875 22.025390625 216.998046875 13.6396484375 c 2
 216.998046875 7.5302734375 l 1
 216.998046875 0.0302734375 l 1
 209.498046875 0.0302734375 l 1
 7.078125 0.0302734375 l 1
 -0.421875 0.0302734375 l 1
 -0.421875 7.5302734375 l 1
 -0.421875 13.6396484375 l 2
 -0.421875 21.4384765625 5.6572265625 28.7998046875 14.568359375 28.7998046875 c 2
 29.888671875 28.7998046875 l 2
 46.5234375 28.7998046875 68.5986328125 36.779296875 68.5986328125 79.7333984375 c 2
 68.5107421875 398.900390625 l 1
 7.068359375 398.900390625 l 1
 -0.431640625 398.900390625 l 1
 -0.431640625 406.400390625 l 1
 -0.431640625 426.280273438 l 1
 -0.431640625 433.780273438 l 1
 7.068359375 433.780273438 l 1
 68.5087890625 433.780273438 l 1
 68.5087890625 489.76953125 l 2
 68.5087890625 593.506835938 162.875976562 634.049804688 244.768554688 634.049804688 c 0
 284.974609375 634.049804688 328.749023438 625.443359375 349.161132812 614.053710938 c 1
 369.087890625 627.702148438 393.83984375 634.01953125 425.379882812 634.01953125 c 0
303.939453125 433.75 m 1
 303.939453125 502.069335938 l 2
 303.939453125 529.872070312 308.25 554.327148438 316.313476562 573.107421875 c 1
 306.888671875 585.825195312 275.654296875 598.91015625 246.108398438 598.91015625 c 0
 194.897460938 598.91015625 148.068359375 551.057617188 148.068359375 496 c 2
 148.068359375 433.780273438 l 1
 242.509765625 433.75 l 1
 249.909179688 433.75 l 1
 303.939453125 433.75 l 1
EndSplineSet
Ligature2: "<1,2> Common Ligatures in Latin lookup 0 subtable" f f
LCarets2: 1 222
EndChar

StartChar: f_f_i
Encoding: 64259 64259 80
Width: 734
LigCaretCntFixed: 1
Flags: MW
HStem: 0.0195312 28.7705 398.89 34.8799 413.89 19.8799 598.9 35.1396
VStem: 68.9902 79.4502 308.79 79.4502 534.39 91.1201 547.99 79.5303
LayerCount: 2
Fore
SplineSet
666.020507812 28.7705078125 m 2xdd
 681.4296875 28.7705078125 l 2
 689.690429688 28.7705078125 696.419921875 21.9951171875 696.419921875 13.6103515625 c 2
 696.419921875 7.5 l 1
 696.419921875 0 l 1
 688.919921875 0 l 1
 486.5 0 l 1
 479 0 l 1
 479 7.5 l 1
 479 13.6103515625 l 2
 479 21.4189453125 485.091796875 28.7705078125 493.990234375 28.7705078125 c 2
 509.310546875 28.7705078125 l 2
 525.916015625 28.7705078125 547.990234375 36.7734375 547.990234375 79.70703125 c 2
 548.020507812 347.934570312 l 2
 548.020507812 390.817382812 525.924804688 398.870117188 509.299804688 398.870117188 c 2
 493.900390625 398.870117188 l 1
 388.240234375 398.889648438 l 1xdd
 388.240234375 79.7255859375 l 2
 388.240234375 36.662109375 409.572265625 28.7900390625 426.780273438 28.7900390625 c 2
 442.190429688 28.7900390625 l 2
 450.450195312 28.7900390625 457.1796875 22.0146484375 457.1796875 13.6298828125 c 2
 457.1796875 7.51953125 l 1
 457.1796875 0.01953125 l 1
 449.6796875 0.01953125 l 1
 247.259765625 0.01953125 l 1
 239.759765625 0.01953125 l 1
 239.759765625 7.51953125 l 1
 239.759765625 13.6298828125 l 2
 239.759765625 21.4287109375 245.838867188 28.7900390625 254.75 28.7900390625 c 2
 270.0703125 28.7900390625 l 2
 286.715820312 28.7900390625 308.790039062 37.09375 308.790039062 81.7880859375 c 2
 308.702148438 413.889648438 l 1
 148.440429688 413.889648438 l 1xbd
 148.440429688 81.7900390625 l 2
 148.440429688 36.9814453125 169.772460938 28.7900390625 186.98046875 28.7900390625 c 2
 202.389648438 28.7900390625 l 2
 210.650390625 28.7900390625 217.379882812 22.0146484375 217.379882812 13.6298828125 c 2
 217.379882812 7.51953125 l 1
 217.379882812 0.01953125 l 1
 209.879882812 0.01953125 l 1
 7.4599609375 0.01953125 l 1
 -0.0400390625 0.01953125 l 1
 -0.0400390625 7.51953125 l 1
 -0.0400390625 13.6298828125 l 2
 -0.0400390625 21.4287109375 6.0390625 28.7900390625 14.9501953125 28.7900390625 c 2
 30.26953125 28.7900390625 l 2
 46.916015625 28.7900390625 68.990234375 36.7705078125 68.990234375 79.7236328125 c 2
 68.90234375 398.889648438 l 1
 7.4599609375 398.889648438 l 1
 -0.0400390625 398.889648438 l 1
 -0.0400390625 406.389648438 l 1
 -0.0400390625 426.26953125 l 1
 -0.0400390625 433.76953125 l 1
 7.4599609375 433.76953125 l 1
 68.900390625 433.76953125 l 1
 68.900390625 489.759765625 l 2
 68.900390625 593.497070312 163.267578125 634.040039062 245.16015625 634.040039062 c 0
 301.125976562 634.040039062 343.759765625 617.705078125 363.588867188 599.053710938 c 1
 398.1171875 623.708007812 449.423828125 634.020507812 491.83984375 634.020507812 c 0
 590.822265625 634.020507812 625.509765625 583.474609375 625.509765625 554.380859375 c 0
 625.509765625 529.219726562 605.112304688 508.8203125 579.950195312 508.8203125 c 0
 554.7890625 508.8203125 534.389648438 529.217773438 534.389648438 554.380859375 c 0xde
 534.389648438 563.815429688 538.004882812 573.290039062 542.075195312 579.48046875 c 1
 534.838867188 587.452148438 520.551757812 598.880859375 493.16015625 598.880859375 c 0
 441.94921875 598.880859375 388.25 551.047851562 388.25 495.990234375 c 2
 388.25 433.76953125 l 1
 486.41015625 433.75 l 1
 596.509765625 433.75 l 1
 619.98046875 433.75 l 1
 627.479492188 433.75 l 1
 627.48046875 426.250976562 l 1
 627.520507812 79.8427734375 l 2
 627.520507812 36.6845703125 648.823242188 28.7705078125 666.020507812 28.7705078125 c 2xdd
148.4296875 495.990234375 m 2
 148.4296875 433.76953125 l 1
 308.700195312 433.76953125 l 1xbc
 308.700195312 489.759765625 l 2
 308.700195312 516.77734375 315.364257812 539.74609375 326.333984375 558.805664062 c 1
 307.018554688 586.45703125 277.186523438 598.900390625 246.469726562 598.900390625 c 0
 195.259765625 598.900390625 148.4296875 551.047851562 148.4296875 495.990234375 c 2
EndSplineSet
Ligature2: "<1,2> Common Ligatures in Latin lookup 0 subtable" f f i
LCarets2: 2 225 468
EndChar

StartChar: f_l
Encoding: 64258 64258 81
Width: 488
LigCaretCntFixed: 1
Flags: MW
HStem: 0.0195312 28.7705 398.43 34.8799 598.41 35.1396
VStem: 69.2598 79.4502 306.03 79.4502
LayerCount: 2
Fore
SplineSet
424.01953125 28.759765625 m 2
 439.4296875 28.759765625 l 2
 447.684570312 28.759765625 454.400390625 22.0048828125 454.419921875 13.609375 c 2
 454.419921875 7.5 l 1
 454.419921875 0 l 1
 446.919921875 0 l 1
 244.5 0 l 1
 237 0 l 1
 237 7.5 l 1
 237 13.609375 l 2
 237 21.408203125 243.079101562 28.76953125 251.990234375 28.76953125 c 2
 267.309570312 28.76953125 l 2
 283.956054688 28.76953125 306.030273438 36.849609375 306.030273438 80.3515625 c 2
 306.030273438 574.248046875 l 1
 298.349609375 583.96484375 282.004882812 598.41015625 251.620117188 598.41015625 c 0
 200.409179688 598.41015625 148.719726562 550.587890625 148.719726562 495.530273438 c 2
 148.719726562 433.309570312 l 1
 224.219726562 433.309570312 l 1
 233.014648438 433.309570312 l 1
 231.625976562 424.625 l 2
 230.780273438 419.34375 231.461914062 413.717773438 233.494140625 408.788085938 c 2
 237.762695312 398.4296875 l 1
 226.559570312 398.4296875 l 1
 148.709960938 398.4296875 l 1
 148.709960938 79.7236328125 l 2
 148.709960938 36.662109375 170.041992188 28.7900390625 187.25 28.7900390625 c 2
 202.659179688 28.7900390625 l 2
 210.919921875 28.7900390625 217.649414062 22.0146484375 217.649414062 13.6298828125 c 2
 217.649414062 7.51953125 l 1
 217.649414062 0.01953125 l 1
 210.149414062 0.01953125 l 1
 7.7294921875 0.01953125 l 1
 0.2294921875 0.01953125 l 1
 0.2294921875 7.51953125 l 1
 0.2294921875 13.6298828125 l 2
 0.2294921875 21.4287109375 6.30859375 28.7900390625 15.2197265625 28.7900390625 c 2
 30.5400390625 28.7900390625 l 2
 47.185546875 28.7900390625 69.259765625 36.76953125 69.259765625 79.7216796875 c 2
 69.171875 398.4296875 l 1
 7.7294921875 398.4296875 l 1
 0.2294921875 398.4296875 l 1
 0.2294921875 405.9296875 l 1
 0.2294921875 425.809570312 l 1
 0.2294921875 433.309570312 l 1
 7.7294921875 433.309570312 l 1
 69.169921875 433.309570312 l 1
 69.169921875 489.299804688 l 2
 69.169921875 593.037109375 168.397460938 633.549804688 250.290039062 633.549804688 c 0
 283.282226562 633.549804688 309.423828125 627.598632812 328.10546875 619.639648438 c 1
 377.98046875 619.639648438 l 1
 385.48046875 619.639648438 l 1
 385.48046875 612.139648438 l 1
 385.48046875 80.431640625 l 2
 385.48046875 36.7451171875 406.811523438 28.759765625 424.01953125 28.759765625 c 2
EndSplineSet
Ligature2: "<1,2> Common Ligatures in Latin lookup 0 subtable" f l
LCarets2: 1 225
EndChar

StartChar: f_f_l
Encoding: 64260 64260 82
Width: 736
LigCaretCntFixed: 1
Flags: MW
HStem: 0.0302734 28.7695 398.9 34.8799 413.9 19.8799 598.91 35.1299
VStem: 68.5898 79.4502 308.37 79.4502 546.96 79.5498
LayerCount: 2
Fore
SplineSet
665.049804688 28.7900390625 m 2xde
 680.459960938 28.7900390625 l 2
 688.716796875 28.7900390625 695.440429688 22.0107421875 695.440429688 13.6298828125 c 2
 695.440429688 7.51953125 l 1
 695.440429688 0.01953125 l 1
 687.940429688 0.01953125 l 1
 485.51953125 0.01953125 l 1
 478.01953125 0.01953125 l 1
 478.01953125 7.51953125 l 1
 478.01953125 13.6298828125 l 2
 478.01953125 21.4296875 484.099609375 28.7900390625 493.009765625 28.7900390625 c 2
 508.330078125 28.7900390625 l 2
 524.963867188 28.7900390625 546.959960938 36.853515625 546.959960938 80.373046875 c 2
 547.040039062 574.2109375 l 1
 540.064453125 583.254882812 523.487304688 598.91015625 493.419921875 598.91015625 c 0
 442.166992188 598.91015625 387.8203125 551.044921875 387.8203125 495.990234375 c 2
 387.8203125 433.780273438 l 1
 463.889648438 433.780273438 l 1xde
 475.150390625 433.780273438 l 1xbe
 470.810546875 423.389648438 l 2
 468.737304688 418.427734375 467.995117188 412.806640625 468.802734375 407.537109375 c 2
 470.127929688 398.900390625 l 1
 461.389648438 398.900390625 l 1
 387.8203125 398.900390625 l 1xde
 387.8203125 79.7353515625 l 2
 387.8203125 36.671875 409.15234375 28.7998046875 426.360351562 28.7998046875 c 2
 441.76953125 28.7998046875 l 2
 450.029296875 28.7998046875 456.759765625 22.025390625 456.759765625 13.6396484375 c 2
 456.759765625 7.5302734375 l 1
 456.759765625 0.0302734375 l 1
 449.259765625 0.0302734375 l 1
 246.83984375 0.0302734375 l 1
 239.33984375 0.0302734375 l 1
 239.33984375 7.5302734375 l 1
 239.33984375 13.6396484375 l 2
 239.33984375 21.4482421875 245.431640625 28.7998046875 254.330078125 28.7998046875 c 2
 269.650390625 28.7998046875 l 2
 286.295898438 28.7998046875 308.370117188 37.103515625 308.370117188 81.7978515625 c 2
 308.282226562 413.900390625 l 1
 148.040039062 413.900390625 l 1xbe
 148.040039062 81.7998046875 l 2
 148.040039062 36.9912109375 169.372070312 28.7998046875 186.580078125 28.7998046875 c 2
 201.990234375 28.7998046875 l 2
 210.248046875 28.7998046875 216.98046875 22.0263671875 216.98046875 13.6396484375 c 2
 216.98046875 7.5302734375 l 1
 216.98046875 0.0302734375 l 1
 209.48046875 0.0302734375 l 1
 7.0595703125 0.0302734375 l 1
 -0.4404296875 0.0302734375 l 1
 -0.4404296875 7.5302734375 l 1
 -0.4404296875 13.6396484375 l 2
 -0.4404296875 21.439453125 5.6396484375 28.7998046875 14.5498046875 28.7998046875 c 2
 29.8701171875 28.7998046875 l 2
 46.515625 28.7998046875 68.58984375 36.7802734375 68.58984375 79.7333984375 c 2
 68.501953125 398.900390625 l 1
 7.0595703125 398.900390625 l 1
 -0.4404296875 398.900390625 l 1
 -0.4404296875 406.400390625 l 1
 -0.4404296875 426.280273438 l 1
 -0.4404296875 433.780273438 l 1
 7.0595703125 433.780273438 l 1
 68.5 433.780273438 l 1
 68.5 489.790039062 l 2
 68.5 593.467773438 170.376953125 634.040039062 252.26953125 634.040039062 c 0
 308.255859375 634.040039062 343.379882812 617.672851562 363.178710938 599.04296875 c 1
 397.75390625 623.73046875 449.6875 634.040039062 492.049804688 634.040039062 c 0
 525.700195312 634.040039062 552.181640625 627.8828125 570.970703125 619.669921875 c 1
 619.009765625 619.669921875 l 1
 626.509765625 619.669921875 l 1
 626.509765625 612.169921875 l 1
 626.509765625 80.4619140625 l 2
 626.509765625 36.775390625 647.841796875 28.7900390625 665.049804688 28.7900390625 c 2xde
308.280273438 433.780273438 m 1xbe
 308.280273438 489.790039062 l 2
 308.280273438 516.825195312 315.004882812 539.778320312 325.971679688 558.806640625 c 1
 306.66796875 586.431640625 284.264648438 598.91015625 253.549804688 598.91015625 c 0
 202.392578125 598.91015625 148.040039062 551.047851562 148.040039062 495.990234375 c 2
 148.040039062 433.780273438 l 1
 308.280273438 433.780273438 l 1xbe
EndSplineSet
Ligature2: "<1,2> Common Ligatures in Latin lookup 0 subtable" f f l
LCarets2: 2 184 460
EndChar

StartChar: T_h
Encoding: 65537 -1 83
Width: 979
LigCaretCntFixed: 1
Flags: MW
HStem: 0.0195312 28.7705 404.21 37.0596 584.88 34.79
VStem: 0.0400391 28.7695 219.93 79.4707 490.39 79.5303 791.53 79.5293
LayerCount: 2
Fore
SplineSet
0.0400390625 619.669921875 m 1
 7.5400390625 619.669921875 l 1
 562.370117188 619.669921875 l 1
 569.869140625 619.669921875 l 1
 569.870117188 612.170898438 l 1
 569.887695312 395.993164062 l 1
 610.219726562 434.276367188 673.841796875 441.26953125 699.76953125 441.26953125 c 0
 772.106445312 441.26953125 871.030273438 404.481445312 871.030273438 300.34375 c 2
 871.059570312 80.833984375 l 2
 871.059570312 36.8466796875 892.362304688 28.7802734375 909.559570312 28.7802734375 c 2
 924.969726562 28.7802734375 l 2
 933.228515625 28.7802734375 939.959960938 22.005859375 939.959960938 13.6201171875 c 2
 939.959960938 7.509765625 l 1
 939.959960938 0.009765625 l 1
 932.459960938 0.009765625 l 1
 730.040039062 0.009765625 l 1
 722.540039062 0.009765625 l 1
 722.540039062 7.509765625 l 1
 722.540039062 13.6201171875 l 2
 722.540039062 21.4189453125 728.619140625 28.7802734375 737.530273438 28.7802734375 c 2
 752.849609375 28.7802734375 l 2
 769.456054688 28.7802734375 791.530273438 36.9462890625 791.530273438 80.740234375 c 2
 791.48046875 292.041015625 l 2
 791.48046875 357.923828125 770.369140625 404.209960938 695.3203125 404.209960938 c 0
 630.138671875 404.209960938 569.900390625 356.326171875 569.900390625 300.4921875 c 2
 569.919921875 80.751953125 l 2
 569.919921875 36.841796875 591.22265625 28.7900390625 608.419921875 28.7900390625 c 2
 623.830078125 28.7900390625 l 2
 632.088867188 28.7900390625 638.8203125 22.015625 638.8203125 13.6298828125 c 2
 638.8203125 7.51953125 l 1
 638.8203125 0.01953125 l 1
 631.3203125 0.01953125 l 1
 428.900390625 0.01953125 l 1
 421.400390625 0.01953125 l 1
 421.400390625 7.51953125 l 1
 421.400390625 13.6298828125 l 2
 421.400390625 21.4375 427.490234375 28.7900390625 436.389648438 28.7900390625 c 2
 451.709960938 28.7900390625 l 2
 468.31640625 28.7900390625 490.389648438 36.8984375 490.389648438 80.3984375 c 2
 490.419921875 525.47265625 l 2
 490.419921875 544.174804688 478.90234375 584.879882812 437.419921875 584.879882812 c 2
 299.400390625 584.879882812 l 1
 299.400390625 80.3984375 l 2
 299.400390625 36.765625 320.732421875 28.7900390625 337.940429688 28.7900390625 c 2
 353.33984375 28.7900390625 l 2
 361.598632812 28.7900390625 368.330078125 22.015625 368.330078125 13.6298828125 c 2
 368.330078125 7.51953125 l 1
 368.330078125 0.01953125 l 1
 360.830078125 0.01953125 l 1
 158.41015625 0.01953125 l 1
 150.91015625 0.01953125 l 1
 150.91015625 7.51953125 l 1
 150.91015625 13.6298828125 l 2
 150.91015625 21.4287109375 156.989257812 28.7900390625 165.900390625 28.7900390625 c 2
 181.209960938 28.7900390625 l 2
 197.856445312 28.7900390625 219.9296875 36.8740234375 219.9296875 80.3984375 c 2
 219.9296875 584.879882812 l 1
 81.8095703125 584.879882812 l 2
 40.26171875 584.879882812 28.8095703125 543.168945312 28.8095703125 523.870117188 c 2
 28.8095703125 508.549804688 l 2
 28.8095703125 499.641601562 21.451171875 493.559570312 13.650390625 493.559570312 c 2
 7.5400390625 493.559570312 l 1
 0.0400390625 493.559570312 l 1
 0.0400390625 501.059570312 l 1
 0.0400390625 612.169921875 l 1
 0.0400390625 619.669921875 l 1
EndSplineSet
Ligature2: "<1,2> Common Ligatures in Latin lookup 0 subtable" T h
LCarets2: 1 399
EndChar
